<svg viewBox="0 0 330 200" xmlns="http://www.w3.org/2000/svg"><g><g><g><g><g><line x1="70" y1="174.14049434285812" x2="65" y2="174.14049434285812" style="visibility: inherit;" fill="rgb(0, 0, 0)" stroke="rgb(204, 204, 204)" stroke-width="1px"></line><line x1="70" y1="158.47769093440354" x2="65" y2="158.47769093440354" style="visibility: inherit;" fill="rgb(0, 0, 0)" stroke="rgb(204, 204, 204)" stroke-width="1px"></line><line x1="70" y1="142.81488752594896" x2="65" y2="142.81488752594896" style="visibility: inherit;" fill="rgb(0, 0, 0)" stroke="rgb(204, 204, 204)" stroke-width="1px"></line><line x1="70" y1="127.15208411749435" x2="65" y2="127.15208411749435" style="visibility: inherit;" fill="rgb(0, 0, 0)" stroke="rgb(204, 204, 204)" stroke-width="1px"></line><line x1="70" y1="111.48928070903976" x2="65" y2="111.48928070903976" style="visibility: inherit;" fill="rgb(0, 0, 0)" stroke="rgb(204, 204, 204)" stroke-width="1px"></line><line x1="70" y1="95.82647730058518" x2="65" y2="95.82647730058518" style="visibility: inherit;" fill="rgb(0, 0, 0)" stroke="rgb(204, 204, 204)" stroke-width="1px"></line><line x1="70" y1="80.16367389213059" x2="65" y2="80.16367389213059" style="visibility: inherit;" fill="rgb(0, 0, 0)" stroke="rgb(204, 204, 204)" stroke-width="1px"></line><line x1="70" y1="64.50087048367598" x2="65" y2="64.50087048367598" style="visibility: inherit;" fill="rgb(0, 0, 0)" stroke="rgb(204, 204, 204)" stroke-width="1px"></line><line x1="70" y1="48.8380670752214" x2="65" y2="48.8380670752214" style="visibility: inherit;" fill="rgb(0, 0, 0)" stroke="rgb(204, 204, 204)" stroke-width="1px"></line><line x1="70" y1="33.175263666766824" x2="65" y2="33.175263666766824" style="visibility: inherit;" fill="rgb(0, 0, 0)" stroke="rgb(204, 204, 204)" stroke-width="1px"></line><line x1="70" y1="17.512460258312217" x2="65" y2="17.512460258312217" style="visibility: inherit;" fill="rgb(0, 0, 0)" stroke="rgb(204, 204, 204)" stroke-width="1px"></line><line x1="70" y1="1.849656849857979" x2="65" y2="1.849656849857979" style="visibility: inherit;" fill="rgb(0, 0, 0)" stroke="rgb(204, 204, 204)" stroke-width="1px"></line></g><g transform="translate(60, 0)"><text x="0" y="174.14049434285812" dx="0em" dy="0.3em" style="text-anchor: end; visibility: hidden; font-family: &quot;Helvetica Neue&quot;, sans-serif; font-size: 12px; font-weight: 200;" fill="rgb(50, 49, 63)" stroke="none" stroke-width="1px">0.95</text><text x="0" y="158.47769093440354" dx="0em" dy="0.3em" style="text-anchor: end; visibility: inherit; font-family: &quot;Helvetica Neue&quot;, sans-serif; font-size: 12px; font-weight: 200;" fill="rgb(50, 49, 63)" stroke="none" stroke-width="1px">0.955</text><text x="0" y="142.81488752594896" dx="0em" dy="0.3em" style="text-anchor: end; visibility: hidden; font-family: &quot;Helvetica Neue&quot;, sans-serif; font-size: 12px; font-weight: 200;" fill="rgb(50, 49, 63)" stroke="none" stroke-width="1px">0.96</text><text x="0" y="127.15208411749435" dx="0em" dy="0.3em" style="text-anchor: end; visibility: inherit; font-family: &quot;Helvetica Neue&quot;, sans-serif; font-size: 12px; font-weight: 200;" fill="rgb(50, 49, 63)" stroke="none" stroke-width="1px">0.965</text><text x="0" y="111.48928070903976" dx="0em" dy="0.3em" style="text-anchor: end; visibility: hidden; font-family: &quot;Helvetica Neue&quot;, sans-serif; font-size: 12px; font-weight: 200;" fill="rgb(50, 49, 63)" stroke="none" stroke-width="1px">0.97</text><text x="0" y="95.82647730058518" dx="0em" dy="0.3em" style="text-anchor: end; visibility: inherit; font-family: &quot;Helvetica Neue&quot;, sans-serif; font-size: 12px; font-weight: 200;" fill="rgb(50, 49, 63)" stroke="none" stroke-width="1px">0.975</text><text x="0" y="80.16367389213059" dx="0em" dy="0.3em" style="text-anchor: end; visibility: hidden; font-family: &quot;Helvetica Neue&quot;, sans-serif; font-size: 12px; font-weight: 200;" fill="rgb(50, 49, 63)" stroke="none" stroke-width="1px">0.98</text><text x="0" y="64.50087048367598" dx="0em" dy="0.3em" style="text-anchor: end; visibility: inherit; font-family: &quot;Helvetica Neue&quot;, sans-serif; font-size: 12px; font-weight: 200;" fill="rgb(50, 49, 63)" stroke="none" stroke-width="1px">0.985</text><text x="0" y="48.8380670752214" dx="0em" dy="0.3em" style="text-anchor: end; visibility: hidden; font-family: &quot;Helvetica Neue&quot;, sans-serif; font-size: 12px; font-weight: 200;" fill="rgb(50, 49, 63)" stroke="none" stroke-width="1px">0.99</text><text x="0" y="33.175263666766824" dx="0em" dy="0.3em" style="text-anchor: end; visibility: inherit; font-family: &quot;Helvetica Neue&quot;, sans-serif; font-size: 12px; font-weight: 200;" fill="rgb(50, 49, 63)" stroke="none" stroke-width="1px">0.995</text><text x="0" y="17.512460258312217" dx="0em" dy="0.3em" style="text-anchor: end; visibility: hidden; font-family: &quot;Helvetica Neue&quot;, sans-serif; font-size: 12px; font-weight: 200;" fill="rgb(50, 49, 63)" stroke="none" stroke-width="1px">1</text><text x="0" y="1.849656849857979" dx="0em" dy="0.3em" style="text-anchor: end; visibility: hidden; font-family: &quot;Helvetica Neue&quot;, sans-serif; font-size: 12px; font-weight: 200;" fill="rgb(50, 49, 63)" stroke="none" stroke-width="1px">1</text></g><line x1="70" y1="0" x2="70" y2="178" fill="rgb(0, 0, 0)" stroke="rgb(204, 204, 204)" stroke-width="1px"></line></g></g><g transform="translate(70, 0)" clip-path="url(#clip_0)"><clipPath id="clip_0"><rect width="260" height="178"></rect></clipPath><g><g><g><line x1="24.426763299067037" y1="0" x2="24.426763299067037" y2="178" fill="rgb(0, 0, 0)" stroke="rgb(60, 60, 60)" stroke-width="1px" opacity="0.25"></line><line x1="57.77324943467768" y1="0" x2="57.77324943467768" y2="178" fill="rgb(0, 0, 0)" stroke="rgb(60, 60, 60)" stroke-width="1px" opacity="0.25"></line><line x1="91.11973557028833" y1="0" x2="91.11973557028833" y2="178" fill="rgb(0, 0, 0)" stroke="rgb(60, 60, 60)" stroke-width="1px" opacity="0.25"></line><line x1="124.46622170589897" y1="0" x2="124.46622170589897" y2="178" fill="rgb(0, 0, 0)" stroke="rgb(60, 60, 60)" stroke-width="1px" opacity="0.25"></line><line x1="157.81270784150962" y1="0" x2="157.81270784150962" y2="178" fill="rgb(0, 0, 0)" stroke="rgb(60, 60, 60)" stroke-width="1px" opacity="0.25"></line><line x1="191.15919397712028" y1="0" x2="191.15919397712028" y2="178" fill="rgb(0, 0, 0)" stroke="rgb(60, 60, 60)" stroke-width="1px" opacity="0.25"></line><line x1="224.50568011273091" y1="0" x2="224.50568011273091" y2="178" fill="rgb(0, 0, 0)" stroke="rgb(60, 60, 60)" stroke-width="1px" opacity="0.25"></line><line x1="257.8521662483416" y1="0" x2="257.8521662483416" y2="178" fill="rgb(0, 0, 0)" stroke="rgb(60, 60, 60)" stroke-width="1px" opacity="0.25"></line></g><g><line x1="0" y1="174.14049434285812" x2="260" y2="174.14049434285812" fill="rgb(0, 0, 0)" stroke="rgb(60, 60, 60)" stroke-width="1px" opacity="0.25"></line><line x1="0" y1="158.47769093440354" x2="260" y2="158.47769093440354" fill="rgb(0, 0, 0)" stroke="rgb(60, 60, 60)" stroke-width="1px" opacity="0.25"></line><line x1="0" y1="142.81488752594896" x2="260" y2="142.81488752594896" fill="rgb(0, 0, 0)" stroke="rgb(60, 60, 60)" stroke-width="1px" opacity="0.25"></line><line x1="0" y1="127.15208411749435" x2="260" y2="127.15208411749435" fill="rgb(0, 0, 0)" stroke="rgb(60, 60, 60)" stroke-width="1px" opacity="0.25"></line><line x1="0" y1="111.48928070903976" x2="260" y2="111.48928070903976" fill="rgb(0, 0, 0)" stroke="rgb(60, 60, 60)" stroke-width="1px" opacity="0.25"></line><line x1="0" y1="95.82647730058518" x2="260" y2="95.82647730058518" fill="rgb(0, 0, 0)" stroke="rgb(60, 60, 60)" stroke-width="1px" opacity="0.25"></line><line x1="0" y1="80.16367389213059" x2="260" y2="80.16367389213059" fill="rgb(0, 0, 0)" stroke="rgb(60, 60, 60)" stroke-width="1px" opacity="0.25"></line><line x1="0" y1="64.50087048367598" x2="260" y2="64.50087048367598" fill="rgb(0, 0, 0)" stroke="rgb(60, 60, 60)" stroke-width="1px" opacity="0.25"></line><line x1="0" y1="48.8380670752214" x2="260" y2="48.8380670752214" fill="rgb(0, 0, 0)" stroke="rgb(60, 60, 60)" stroke-width="1px" opacity="0.25"></line><line x1="0" y1="33.175263666766824" x2="260" y2="33.175263666766824" fill="rgb(0, 0, 0)" stroke="rgb(60, 60, 60)" stroke-width="1px" opacity="0.25"></line><line x1="0" y1="17.512460258312217" x2="260" y2="17.512460258312217" fill="rgb(0, 0, 0)" stroke="rgb(60, 60, 60)" stroke-width="1px" opacity="0.25"></line><line x1="0" y1="1.849656849857979" x2="260" y2="1.849656849857979" fill="rgb(0, 0, 0)" stroke="rgb(60, 60, 60)" stroke-width="1px" opacity="0.25"></line></g></g></g><g><g><line x1="0" y1="3150.073141949227" x2="260" y2="3150.073141949227" fill="rgb(0, 0, 0)" stroke="rgb(153, 153, 153)" stroke-width="1.5px"></line></g></g><g><g><line x1="24.426763299067037" y1="0" x2="24.426763299067037" y2="178" fill="rgb(0, 0, 0)" stroke="rgb(153, 153, 153)" stroke-width="1.5px"></line></g></g><g><g><g><g><g><path style="fill: none;" stroke="rgb(255, 112, 67)" stroke-width="2px" d="M26.09408760584757,83.16487373232343L27.761411912628102,64.40709465836784L29.428736219408634,51.90184637067523L31.096060526189166,226.97513568320508L32.7633848329697,48.775487619960415L34.43070913975023,39.39659808298262L36.09803344653076,33.14406729671967L37.76535775331129,33.14406729671967L39.43268206009183,108.17537030770863L41.10000636687236,48.775487619960415L42.7673306736529,33.14406729671967L44.43465498043343,26.89134979529001L46.101979287213965,30.017708546004826L47.76930359399449,26.89134979529001L49.43662790077502,30.017708546004826L51.10395220755556,33.14406729671967L52.77127651433609,51.90184637067523L54.438600821116616,45.64931558441228L56.105925127897144,23.764991044575197L57.77324943467768,33.14406729671967L59.44057374145821,23.764991044575197L61.107898048238745,30.017708546004826L62.775222355019274,30.017708546004826L64.44254666179981,26.89134979529001L66.10987096858035,30.017708546004826L67.77719527536088,39.39659808298262L69.44451958214141,23.764991044575197L71.11184388892194,20.63881900902706L72.77916819570248,26.89134979529001L74.44649250248301,26.89134979529001L76.11381680926354,23.764991044575197L77.78114111604407,39.39659808298262L79.4484654228246,33.14406729671967L81.11578972960514,30.017708546004826L82.78311403638567,26.89134979529001L84.4504383431662,26.89134979529001L86.11776264994673,30.017708546004826L87.78508695672727,26.89134979529001L89.4524112635078,23.764991044575197L91.11973557028833,30.017708546004826L92.78705987706886,23.764991044575197L94.4543841838494,26.89134979529001L96.12170849062993,26.89134979529001L97.78903279741046,26.89134979529001L99.45635710419099,30.017708546004826L101.12368141097151,26.89134979529001L102.79100571775206,26.89134979529001L104.45833002453259,23.764991044575197L106.12565433131311,23.764991044575197L107.79297863809364,23.764991044575197L109.46030294487419,26.89134979529001L111.12762725165472,23.764991044575197L112.79495155843524,23.764991044575197L114.46227586521577,23.764991044575197L116.12960017199632,23.764991044575197L117.79692447877684,23.764991044575197L119.46424878555737,30.017708546004826L121.1315730923379,23.764991044575197L122.79889739911845,23.764991044575197L124.46622170589897,23.764991044575197L126.1335460126795,23.764991044575197L127.80087031946003,26.89134979529001L129.46819462624057,20.63881900902706L131.1355189330211,20.63881900902706L132.80284323980163,30.017708546004826L134.4701675465822,23.764991044575197L136.1374918533627,23.764991044575197L137.80481616014325,23.764991044575197L139.47214046692375,23.764991044575197L141.1394647737043,23.764991044575197L142.80678908048483,23.764991044575197L144.47411338726536,26.89134979529001L146.1414376940459,26.89134979529001L147.80876200082645,23.764991044575197L149.47608630760695,26.89134979529001L151.1434106143875,26.89134979529001L152.810734921168,26.89134979529001L154.47805922794856,23.764991044575197L156.1453835347291,26.89134979529001L157.81270784150962,30.017708546004826L159.48003214829015,26.89134979529001L161.14735645507068,26.89134979529001L162.8146807618512,30.017708546004826L164.48200506863176,23.764991044575197L166.14932937541226,23.764991044575197L167.81665368219282,20.63881900902706L169.48397798897335,26.89134979529001L171.15130229575388,23.764991044575197L172.81862660253444,23.764991044575197L174.48595090931494,26.89134979529001L176.1532752160955,26.89134979529001L177.82059952287602,26.89134979529001L179.48792382965655,26.89134979529001L181.15524813643708,23.764991044575197L182.8225724432176,23.764991044575197L184.48989674999814,26.89134979529001L186.1572210567787,23.764991044575197L187.8245453635592,30.017708546004826L189.49186967033975,20.63881900902706L191.15919397712028,23.764991044575197L192.8265182839008,511.4691141190869L194.49384259068134,1446.2352566543177L192.8265182839008,30.017708546004826L194.49384259068134,26.89134979529001L196.16116689746187,26.89134979529001L197.8284912042424,23.764991044575197L199.49581551102295,26.89134979529001L201.16313981780345,23.764991044575197L202.830464124584,20.63881900902706L204.49778843136454,20.63881900902706L206.16511273814507,26.89134979529001L207.8324370449256,23.764991044575197L209.49976135170613,23.764991044575197L211.16708565848666,20.63881900902706L212.8344099652672,3150.073141949227L214.5017342720477,20.63881900902706L216.16905857882827,23.764991044575197L217.83638288560877,23.764991044575197L219.50370719238933,30.017708546004826L221.17103149916986,26.89134979529001L222.83835580595039,20.63881900902706L224.50568011273091,23.764991044575197L226.17300441951147,23.764991044575197L227.84032872629197,23.764991044575197" fill="none"></path></g></g></g></g></g></g><g transform="translate(70, 178)" clip-path="url(#clip_1)"><clipPath id="clip_1"><rect width="260" height="22"></rect></clipPath><g><g><line x1="24.426763299067037" y1="0" x2="24.426763299067037" y2="5" style="visibility: inherit;" fill="rgb(0, 0, 0)" stroke="rgb(204, 204, 204)" stroke-width="1px"></line><line x1="57.77324943467768" y1="0" x2="57.77324943467768" y2="5" style="visibility: inherit;" fill="rgb(0, 0, 0)" stroke="rgb(204, 204, 204)" stroke-width="1px"></line><line x1="91.11973557028833" y1="0" x2="91.11973557028833" y2="5" style="visibility: inherit;" fill="rgb(0, 0, 0)" stroke="rgb(204, 204, 204)" stroke-width="1px"></line><line x1="124.46622170589897" y1="0" x2="124.46622170589897" y2="5" style="visibility: inherit;" fill="rgb(0, 0, 0)" stroke="rgb(204, 204, 204)" stroke-width="1px"></line><line x1="157.81270784150962" y1="0" x2="157.81270784150962" y2="5" style="visibility: inherit;" fill="rgb(0, 0, 0)" stroke="rgb(204, 204, 204)" stroke-width="1px"></line><line x1="191.15919397712028" y1="0" x2="191.15919397712028" y2="5" style="visibility: inherit;" fill="rgb(0, 0, 0)" stroke="rgb(204, 204, 204)" stroke-width="1px"></line><line x1="224.50568011273091" y1="0" x2="224.50568011273091" y2="5" style="visibility: inherit;" fill="rgb(0, 0, 0)" stroke="rgb(204, 204, 204)" stroke-width="1px"></line><line x1="257.8521662483416" y1="0" x2="257.8521662483416" y2="5" style="visibility: inherit;" fill="rgb(0, 0, 0)" stroke="rgb(204, 204, 204)" stroke-width="1px"></line></g><g transform="translate(0, 8)"><text x="24.426763299067037" y="0" dx="0em" dy="0.95em" style="text-anchor: middle; visibility: inherit; font-family: &quot;Helvetica Neue&quot;, sans-serif; font-size: 12px; font-weight: 200;" fill="rgb(50, 49, 63)" stroke="none" stroke-width="1px">0</text><text x="57.77324943467768" y="0" dx="0em" dy="0.95em" style="text-anchor: middle; visibility: inherit; font-family: &quot;Helvetica Neue&quot;, sans-serif; font-size: 12px; font-weight: 200;" fill="rgb(50, 49, 63)" stroke="none" stroke-width="1px">20</text><text x="91.11973557028833" y="0" dx="0em" dy="0.95em" style="text-anchor: middle; visibility: inherit; font-family: &quot;Helvetica Neue&quot;, sans-serif; font-size: 12px; font-weight: 200;" fill="rgb(50, 49, 63)" stroke="none" stroke-width="1px">40</text><text x="124.46622170589897" y="0" dx="0em" dy="0.95em" style="text-anchor: middle; visibility: inherit; font-family: &quot;Helvetica Neue&quot;, sans-serif; font-size: 12px; font-weight: 200;" fill="rgb(50, 49, 63)" stroke="none" stroke-width="1px">60</text><text x="157.81270784150962" y="0" dx="0em" dy="0.95em" style="text-anchor: middle; visibility: inherit; font-family: &quot;Helvetica Neue&quot;, sans-serif; font-size: 12px; font-weight: 200;" fill="rgb(50, 49, 63)" stroke="none" stroke-width="1px">80</text><text x="191.15919397712028" y="0" dx="0em" dy="0.95em" style="text-anchor: middle; visibility: inherit; font-family: &quot;Helvetica Neue&quot;, sans-serif; font-size: 12px; font-weight: 200;" fill="rgb(50, 49, 63)" stroke="none" stroke-width="1px">100</text><text x="224.50568011273091" y="0" dx="0em" dy="0.95em" style="text-anchor: middle; visibility: inherit; font-family: &quot;Helvetica Neue&quot;, sans-serif; font-size: 12px; font-weight: 200;" fill="rgb(50, 49, 63)" stroke="none" stroke-width="1px">120</text><text x="257.8521662483416" y="0" dx="0em" dy="0.95em" style="text-anchor: middle; visibility: hidden; font-family: &quot;Helvetica Neue&quot;, sans-serif; font-size: 12px; font-weight: 200;" fill="rgb(50, 49, 63)" stroke="none" stroke-width="1px">140</text></g><line x1="0" y1="0" x2="260" y2="0" fill="rgb(0, 0, 0)" stroke="rgb(204, 204, 204)" stroke-width="1px"></line></g></g></g></g></svg>