<svg viewBox="0 0 330 200" xmlns="http://www.w3.org/2000/svg"><g><g><g><g><g><line x1="82" y1="175.0194489384188" x2="77" y2="175.0194489384188" style="visibility: inherit;" fill="rgb(0, 0, 0)" stroke="rgb(204, 204, 204)" stroke-width="1px"></line><line x1="82" y1="161.23689893703028" x2="77" y2="161.23689893703028" style="visibility: inherit;" fill="rgb(0, 0, 0)" stroke="rgb(204, 204, 204)" stroke-width="1px"></line><line x1="82" y1="147.45434893564172" x2="77" y2="147.45434893564172" style="visibility: inherit;" fill="rgb(0, 0, 0)" stroke="rgb(204, 204, 204)" stroke-width="1px"></line><line x1="82" y1="133.67179893425316" x2="77" y2="133.67179893425316" style="visibility: inherit;" fill="rgb(0, 0, 0)" stroke="rgb(204, 204, 204)" stroke-width="1px"></line><line x1="82" y1="119.88924893286463" x2="77" y2="119.88924893286463" style="visibility: inherit;" fill="rgb(0, 0, 0)" stroke="rgb(204, 204, 204)" stroke-width="1px"></line><line x1="82" y1="106.1066989314761" x2="77" y2="106.1066989314761" style="visibility: inherit;" fill="rgb(0, 0, 0)" stroke="rgb(204, 204, 204)" stroke-width="1px"></line><line x1="82" y1="92.32414893008755" x2="77" y2="92.32414893008755" style="visibility: inherit;" fill="rgb(0, 0, 0)" stroke="rgb(204, 204, 204)" stroke-width="1px"></line><line x1="82" y1="78.54159892869899" x2="77" y2="78.54159892869899" style="visibility: inherit;" fill="rgb(0, 0, 0)" stroke="rgb(204, 204, 204)" stroke-width="1px"></line><line x1="82" y1="64.75904892731043" x2="77" y2="64.75904892731043" style="visibility: inherit;" fill="rgb(0, 0, 0)" stroke="rgb(204, 204, 204)" stroke-width="1px"></line><line x1="82" y1="50.97649892592189" x2="77" y2="50.97649892592189" style="visibility: inherit;" fill="rgb(0, 0, 0)" stroke="rgb(204, 204, 204)" stroke-width="1px"></line><line x1="82" y1="37.19394892453337" x2="77" y2="37.19394892453337" style="visibility: inherit;" fill="rgb(0, 0, 0)" stroke="rgb(204, 204, 204)" stroke-width="1px"></line><line x1="82" y1="23.411398923144816" x2="77" y2="23.411398923144816" style="visibility: inherit;" fill="rgb(0, 0, 0)" stroke="rgb(204, 204, 204)" stroke-width="1px"></line><line x1="82" y1="9.628848921756259" x2="77" y2="9.628848921756259" style="visibility: inherit;" fill="rgb(0, 0, 0)" stroke="rgb(204, 204, 204)" stroke-width="1px"></line></g><g transform="translate(72, 0)"><text x="0" y="175.0194489384188" dx="0em" dy="0.3em" style="text-anchor: end; visibility: hidden; font-family: &quot;Helvetica Neue&quot;, sans-serif; font-size: 12px; font-weight: 200;" fill="rgb(50, 49, 63)" stroke="none" stroke-width="1px">1.4e-3</text><text x="0" y="161.23689893703028" dx="0em" dy="0.3em" style="text-anchor: end; visibility: inherit; font-family: &quot;Helvetica Neue&quot;, sans-serif; font-size: 12px; font-weight: 200;" fill="rgb(50, 49, 63)" stroke="none" stroke-width="1px">1.6e-3</text><text x="0" y="147.45434893564172" dx="0em" dy="0.3em" style="text-anchor: end; visibility: hidden; font-family: &quot;Helvetica Neue&quot;, sans-serif; font-size: 12px; font-weight: 200;" fill="rgb(50, 49, 63)" stroke="none" stroke-width="1px">1.8e-3</text><text x="0" y="133.67179893425316" dx="0em" dy="0.3em" style="text-anchor: end; visibility: inherit; font-family: &quot;Helvetica Neue&quot;, sans-serif; font-size: 12px; font-weight: 200;" fill="rgb(50, 49, 63)" stroke="none" stroke-width="1px">2e-3</text><text x="0" y="119.88924893286463" dx="0em" dy="0.3em" style="text-anchor: end; visibility: hidden; font-family: &quot;Helvetica Neue&quot;, sans-serif; font-size: 12px; font-weight: 200;" fill="rgb(50, 49, 63)" stroke="none" stroke-width="1px">2.2e-3</text><text x="0" y="106.1066989314761" dx="0em" dy="0.3em" style="text-anchor: end; visibility: inherit; font-family: &quot;Helvetica Neue&quot;, sans-serif; font-size: 12px; font-weight: 200;" fill="rgb(50, 49, 63)" stroke="none" stroke-width="1px">2.4e-3</text><text x="0" y="92.32414893008755" dx="0em" dy="0.3em" style="text-anchor: end; visibility: hidden; font-family: &quot;Helvetica Neue&quot;, sans-serif; font-size: 12px; font-weight: 200;" fill="rgb(50, 49, 63)" stroke="none" stroke-width="1px">2.6e-3</text><text x="0" y="78.54159892869899" dx="0em" dy="0.3em" style="text-anchor: end; visibility: inherit; font-family: &quot;Helvetica Neue&quot;, sans-serif; font-size: 12px; font-weight: 200;" fill="rgb(50, 49, 63)" stroke="none" stroke-width="1px">2.8e-3</text><text x="0" y="64.75904892731043" dx="0em" dy="0.3em" style="text-anchor: end; visibility: hidden; font-family: &quot;Helvetica Neue&quot;, sans-serif; font-size: 12px; font-weight: 200;" fill="rgb(50, 49, 63)" stroke="none" stroke-width="1px">3e-3</text><text x="0" y="50.97649892592189" dx="0em" dy="0.3em" style="text-anchor: end; visibility: inherit; font-family: &quot;Helvetica Neue&quot;, sans-serif; font-size: 12px; font-weight: 200;" fill="rgb(50, 49, 63)" stroke="none" stroke-width="1px">3.2e-3</text><text x="0" y="37.19394892453337" dx="0em" dy="0.3em" style="text-anchor: end; visibility: hidden; font-family: &quot;Helvetica Neue&quot;, sans-serif; font-size: 12px; font-weight: 200;" fill="rgb(50, 49, 63)" stroke="none" stroke-width="1px">3.4e-3</text><text x="0" y="23.411398923144816" dx="0em" dy="0.3em" style="text-anchor: end; visibility: inherit; font-family: &quot;Helvetica Neue&quot;, sans-serif; font-size: 12px; font-weight: 200;" fill="rgb(50, 49, 63)" stroke="none" stroke-width="1px">3.6e-3</text><text x="0" y="9.628848921756259" dx="0em" dy="0.3em" style="text-anchor: end; visibility: hidden; font-family: &quot;Helvetica Neue&quot;, sans-serif; font-size: 12px; font-weight: 200;" fill="rgb(50, 49, 63)" stroke="none" stroke-width="1px">3.8e-3</text></g><line x1="82" y1="0" x2="82" y2="178" fill="rgb(0, 0, 0)" stroke="rgb(204, 204, 204)" stroke-width="1px"></line></g></g><g transform="translate(82, 0)" clip-path="url(#clip_0)"><clipPath id="clip_0"><rect width="248" height="178"></rect></clipPath><g><g><g><line x1="13.331855824849166" y1="0" x2="13.331855824849166" y2="178" fill="rgb(0, 0, 0)" stroke="rgb(60, 60, 60)" stroke-width="1px" opacity="0.25"></line><line x1="31.057382533635817" y1="0" x2="31.057382533635817" y2="178" fill="rgb(0, 0, 0)" stroke="rgb(60, 60, 60)" stroke-width="1px" opacity="0.25"></line><line x1="48.78290924242248" y1="0" x2="48.78290924242248" y2="178" fill="rgb(0, 0, 0)" stroke="rgb(60, 60, 60)" stroke-width="1px" opacity="0.25"></line><line x1="66.50843595120914" y1="0" x2="66.50843595120914" y2="178" fill="rgb(0, 0, 0)" stroke="rgb(60, 60, 60)" stroke-width="1px" opacity="0.25"></line><line x1="84.2339626599958" y1="0" x2="84.2339626599958" y2="178" fill="rgb(0, 0, 0)" stroke="rgb(60, 60, 60)" stroke-width="1px" opacity="0.25"></line><line x1="101.95948936878244" y1="0" x2="101.95948936878244" y2="178" fill="rgb(0, 0, 0)" stroke="rgb(60, 60, 60)" stroke-width="1px" opacity="0.25"></line><line x1="119.68501607756912" y1="0" x2="119.68501607756912" y2="178" fill="rgb(0, 0, 0)" stroke="rgb(60, 60, 60)" stroke-width="1px" opacity="0.25"></line><line x1="137.4105427863558" y1="0" x2="137.4105427863558" y2="178" fill="rgb(0, 0, 0)" stroke="rgb(60, 60, 60)" stroke-width="1px" opacity="0.25"></line><line x1="155.13606949514244" y1="0" x2="155.13606949514244" y2="178" fill="rgb(0, 0, 0)" stroke="rgb(60, 60, 60)" stroke-width="1px" opacity="0.25"></line><line x1="172.86159620392908" y1="0" x2="172.86159620392908" y2="178" fill="rgb(0, 0, 0)" stroke="rgb(60, 60, 60)" stroke-width="1px" opacity="0.25"></line><line x1="190.58712291271576" y1="0" x2="190.58712291271576" y2="178" fill="rgb(0, 0, 0)" stroke="rgb(60, 60, 60)" stroke-width="1px" opacity="0.25"></line><line x1="208.3126496215024" y1="0" x2="208.3126496215024" y2="178" fill="rgb(0, 0, 0)" stroke="rgb(60, 60, 60)" stroke-width="1px" opacity="0.25"></line><line x1="226.03817633028908" y1="0" x2="226.03817633028908" y2="178" fill="rgb(0, 0, 0)" stroke="rgb(60, 60, 60)" stroke-width="1px" opacity="0.25"></line><line x1="243.76370303907572" y1="0" x2="243.76370303907572" y2="178" fill="rgb(0, 0, 0)" stroke="rgb(60, 60, 60)" stroke-width="1px" opacity="0.25"></line></g><g><line x1="0" y1="175.0194489384188" x2="248" y2="175.0194489384188" fill="rgb(0, 0, 0)" stroke="rgb(60, 60, 60)" stroke-width="1px" opacity="0.25"></line><line x1="0" y1="161.23689893703028" x2="248" y2="161.23689893703028" fill="rgb(0, 0, 0)" stroke="rgb(60, 60, 60)" stroke-width="1px" opacity="0.25"></line><line x1="0" y1="147.45434893564172" x2="248" y2="147.45434893564172" fill="rgb(0, 0, 0)" stroke="rgb(60, 60, 60)" stroke-width="1px" opacity="0.25"></line><line x1="0" y1="133.67179893425316" x2="248" y2="133.67179893425316" fill="rgb(0, 0, 0)" stroke="rgb(60, 60, 60)" stroke-width="1px" opacity="0.25"></line><line x1="0" y1="119.88924893286463" x2="248" y2="119.88924893286463" fill="rgb(0, 0, 0)" stroke="rgb(60, 60, 60)" stroke-width="1px" opacity="0.25"></line><line x1="0" y1="106.1066989314761" x2="248" y2="106.1066989314761" fill="rgb(0, 0, 0)" stroke="rgb(60, 60, 60)" stroke-width="1px" opacity="0.25"></line><line x1="0" y1="92.32414893008755" x2="248" y2="92.32414893008755" fill="rgb(0, 0, 0)" stroke="rgb(60, 60, 60)" stroke-width="1px" opacity="0.25"></line><line x1="0" y1="78.54159892869899" x2="248" y2="78.54159892869899" fill="rgb(0, 0, 0)" stroke="rgb(60, 60, 60)" stroke-width="1px" opacity="0.25"></line><line x1="0" y1="64.75904892731043" x2="248" y2="64.75904892731043" fill="rgb(0, 0, 0)" stroke="rgb(60, 60, 60)" stroke-width="1px" opacity="0.25"></line><line x1="0" y1="50.97649892592189" x2="248" y2="50.97649892592189" fill="rgb(0, 0, 0)" stroke="rgb(60, 60, 60)" stroke-width="1px" opacity="0.25"></line><line x1="0" y1="37.19394892453337" x2="248" y2="37.19394892453337" fill="rgb(0, 0, 0)" stroke="rgb(60, 60, 60)" stroke-width="1px" opacity="0.25"></line><line x1="0" y1="23.411398923144816" x2="248" y2="23.411398923144816" fill="rgb(0, 0, 0)" stroke="rgb(60, 60, 60)" stroke-width="1px" opacity="0.25"></line><line x1="0" y1="9.628848921756259" x2="248" y2="9.628848921756259" fill="rgb(0, 0, 0)" stroke="rgb(60, 60, 60)" stroke-width="1px" opacity="0.25"></line></g></g></g><g><g><line x1="0" y1="271.4972989481386" x2="248" y2="271.4972989481386" fill="rgb(0, 0, 0)" stroke="rgb(153, 153, 153)" stroke-width="1.5px"></line></g></g><g><g><line x1="13.331855824849166" y1="0" x2="13.331855824849166" y2="178" fill="rgb(0, 0, 0)" stroke="rgb(153, 153, 153)" stroke-width="1.5px"></line></g></g><g><g><g><g><g><path stroke="rgb(255, 112, 67)" stroke-width="2px" d="M15.104408495727832,-190.18711298754948L16.876961166606495,27.36923936491496L18.649513837485163,44.22781707195105L20.422066508363827,-1.5425829721043556L22.194619179242494,43.07410135126L23.967171850121158,54.35779569411734L25.739724520999825,63.506381894948944L27.512277191878493,28.589236980358464L29.284829862757153,59.710311404126614L31.057382533635817,76.54432421625448L32.829935204514484,105.57218399284041L34.60248787539315,99.10086648200966L36.37504054627182,78.68713395825144L38.14759321715049,109.67967188749964L39.92014588802915,90.96818549738383L41.692698558907814,79.89694299873302L43.46525122978648,45.73782806131143L45.23780390066515,129.56610153322725L47.01035657154382,85.62771958232955L48.78290924242248,126.24531603062982L50.555461913301144,109.71474625736865L52.32801458417981,114.60158793411713L54.10056725505848,145.07094655031932L55.87311992593714,116.99739523516921L57.64567259681581,127.68687905024582L59.418225267694474,117.89889960180224L61.190777938573135,110.33769338004204L62.9633306094518,142.34802983548894L64.73588328033047,102.23965355028683L66.50843595120914,130.00979391657015L68.28098862208779,133.49813735354178L70.05354129296647,100.38963296719635L71.82609396384512,148.49703538752345L73.5986466347238,140.2257737384152L75.37119930560246,120.54072488693546L77.14375197648113,154.36571072310497L78.9163046473598,115.20122167187759L80.68885731823846,117.66493141267608L82.46140998911713,144.49283717997847L84.2339626599958,129.76913496246894L86.00651533087445,126.16570074092716L87.77906800175313,118.19087046571178L89.55162067263178,131.20203368211733L91.32417334351047,132.94269154561627L93.09672601438912,129.31661782915901L94.86927868526779,143.3488928642509L96.64183135614645,128.82617031599077L98.41438402702511,137.90040398710005L100.18693669790379,139.13888544247453L101.95948936878244,126.45191144985822L103.73204203966111,139.26567303200102L105.50459471053978,127.41979398124334L107.27714738141844,144.39816365783204L109.04970005229711,117.74095262239214L110.82225272317578,129.791341242386L112.59480539405443,118.13946228590379L114.36735806493313,128.96662824546618L116.13991073581178,125.08937005494707L117.91246340669045,133.789386192454L119.68501607756912,147.47427895634328L121.45756874844778,141.43654547889318L123.23012141932645,112.81926120577383L125.00267409020513,140.44977798257858L126.77522676108379,132.6243747918051L128.54777943196245,143.73361987281402L130.32033210284112,133.39503218392684L132.09288477371976,143.67250446804226L133.86543744459846,130.10510121621417L135.63799011547712,134.08140519136336L137.4105427863558,138.4934271848852L139.18309545723443,141.40840254899828L140.9556481281131,108.49219748693466L142.72820079899176,135.2647720719437L144.50075346987046,137.3123066042965L146.2733061407491,119.21948332187009L148.04585881162777,125.25923846931263L149.81841148250643,129.60261995309085L151.5909641533851,132.4680644023889L153.36351682426377,140.7226954090593L155.13606949514244,128.52120300212977L156.9086221660211,127.35993008646692L158.68117483689977,132.00787775910763L160.4537275077784,143.6207352757356L162.2262801786571,139.572252868356L163.99883284953577,145.7205684853931L165.7713855204144,122.77606614358686L167.54393819129308,138.6135721444365L169.31649086217175,148.7085726667334L171.08904353305044,148.92057525094162L172.86159620392908,135.63614964055665L174.63414887480775,136.2610221632229L176.40670154568642,136.21644915338933L178.17925421656508,130.97506111296502L179.95180688744375,143.80607909254337L181.72435955832242,144.69546948422166L183.4969122292011,140.6670593717671L185.26946490007975,139.69470028539868L187.0420175709584,143.60046241831134L188.8145702418371,139.5844871808103L190.58712291271576,131.61626744557023L192.35967558359442,32.23891289172755L194.13222825447306,-355.1352960314964L192.35967558359442,145.05063358039519L194.13222825447306,131.45799956616133L195.90478092535173,130.24398673569544L197.67733359623043,134.43957772502566L199.4498862671091,129.9110850769388L201.22243893798773,142.38193292036232L202.9949916088664,146.69299175176127L204.76754427974507,144.37367898792348L206.54009695062376,140.6529718618197L208.3126496215024,152.45510422024077L210.08520229238107,129.1413262048137L211.85775496325974,130.69555721400891L213.6303076341384,176.07215680203512L215.40286030501707,127.82016486474802L217.17541297589574,137.74170289269279L218.9479656467744,144.61008601704054L220.72051831765307,137.50373147608155L222.4930709885317,137.32390713925318L224.2656236594104,151.1208662052239L226.03817633028908,132.66155105666627L227.81072900116774,131.59378840065418L229.58328167204638,136.27745224316152" style="fill: none;" fill="none"></path></g></g></g></g></g></g><g transform="translate(82, 178)" clip-path="url(#clip_1)"><clipPath id="clip_1"><rect width="248" height="22"></rect></clipPath><g><g><line x1="13.331855824849166" y1="0" x2="13.331855824849166" y2="5" style="visibility: inherit;" fill="rgb(0, 0, 0)" stroke="rgb(204, 204, 204)" stroke-width="1px"></line><line x1="31.057382533635817" y1="0" x2="31.057382533635817" y2="5" style="visibility: inherit;" fill="rgb(0, 0, 0)" stroke="rgb(204, 204, 204)" stroke-width="1px"></line><line x1="48.78290924242248" y1="0" x2="48.78290924242248" y2="5" style="visibility: inherit;" fill="rgb(0, 0, 0)" stroke="rgb(204, 204, 204)" stroke-width="1px"></line><line x1="66.50843595120914" y1="0" x2="66.50843595120914" y2="5" style="visibility: inherit;" fill="rgb(0, 0, 0)" stroke="rgb(204, 204, 204)" stroke-width="1px"></line><line x1="84.2339626599958" y1="0" x2="84.2339626599958" y2="5" style="visibility: inherit;" fill="rgb(0, 0, 0)" stroke="rgb(204, 204, 204)" stroke-width="1px"></line><line x1="101.95948936878244" y1="0" x2="101.95948936878244" y2="5" style="visibility: inherit;" fill="rgb(0, 0, 0)" stroke="rgb(204, 204, 204)" stroke-width="1px"></line><line x1="119.68501607756912" y1="0" x2="119.68501607756912" y2="5" style="visibility: inherit;" fill="rgb(0, 0, 0)" stroke="rgb(204, 204, 204)" stroke-width="1px"></line><line x1="137.4105427863558" y1="0" x2="137.4105427863558" y2="5" style="visibility: inherit;" fill="rgb(0, 0, 0)" stroke="rgb(204, 204, 204)" stroke-width="1px"></line><line x1="155.13606949514244" y1="0" x2="155.13606949514244" y2="5" style="visibility: inherit;" fill="rgb(0, 0, 0)" stroke="rgb(204, 204, 204)" stroke-width="1px"></line><line x1="172.86159620392908" y1="0" x2="172.86159620392908" y2="5" style="visibility: inherit;" fill="rgb(0, 0, 0)" stroke="rgb(204, 204, 204)" stroke-width="1px"></line><line x1="190.58712291271576" y1="0" x2="190.58712291271576" y2="5" style="visibility: inherit;" fill="rgb(0, 0, 0)" stroke="rgb(204, 204, 204)" stroke-width="1px"></line><line x1="208.3126496215024" y1="0" x2="208.3126496215024" y2="5" style="visibility: inherit;" fill="rgb(0, 0, 0)" stroke="rgb(204, 204, 204)" stroke-width="1px"></line><line x1="226.03817633028908" y1="0" x2="226.03817633028908" y2="5" style="visibility: inherit;" fill="rgb(0, 0, 0)" stroke="rgb(204, 204, 204)" stroke-width="1px"></line><line x1="243.76370303907572" y1="0" x2="243.76370303907572" y2="5" style="visibility: inherit;" fill="rgb(0, 0, 0)" stroke="rgb(204, 204, 204)" stroke-width="1px"></line></g><g transform="translate(0, 8)"><text x="13.331855824849166" y="0" dx="0em" dy="0.95em" style="text-anchor: middle; visibility: inherit; font-family: &quot;Helvetica Neue&quot;, sans-serif; font-size: 12px; font-weight: 200;" fill="rgb(50, 49, 63)" stroke="none" stroke-width="1px">0</text><text x="31.057382533635817" y="0" dx="0em" dy="0.95em" style="text-anchor: middle; visibility: hidden; font-family: &quot;Helvetica Neue&quot;, sans-serif; font-size: 12px; font-weight: 200;" fill="rgb(50, 49, 63)" stroke="none" stroke-width="1px">10</text><text x="48.78290924242248" y="0" dx="0em" dy="0.95em" style="text-anchor: middle; visibility: inherit; font-family: &quot;Helvetica Neue&quot;, sans-serif; font-size: 12px; font-weight: 200;" fill="rgb(50, 49, 63)" stroke="none" stroke-width="1px">20</text><text x="66.50843595120914" y="0" dx="0em" dy="0.95em" style="text-anchor: middle; visibility: hidden; font-family: &quot;Helvetica Neue&quot;, sans-serif; font-size: 12px; font-weight: 200;" fill="rgb(50, 49, 63)" stroke="none" stroke-width="1px">30</text><text x="84.2339626599958" y="0" dx="0em" dy="0.95em" style="text-anchor: middle; visibility: inherit; font-family: &quot;Helvetica Neue&quot;, sans-serif; font-size: 12px; font-weight: 200;" fill="rgb(50, 49, 63)" stroke="none" stroke-width="1px">40</text><text x="101.95948936878244" y="0" dx="0em" dy="0.95em" style="text-anchor: middle; visibility: hidden; font-family: &quot;Helvetica Neue&quot;, sans-serif; font-size: 12px; font-weight: 200;" fill="rgb(50, 49, 63)" stroke="none" stroke-width="1px">50</text><text x="119.68501607756912" y="0" dx="0em" dy="0.95em" style="text-anchor: middle; visibility: inherit; font-family: &quot;Helvetica Neue&quot;, sans-serif; font-size: 12px; font-weight: 200;" fill="rgb(50, 49, 63)" stroke="none" stroke-width="1px">60</text><text x="137.4105427863558" y="0" dx="0em" dy="0.95em" style="text-anchor: middle; visibility: hidden; font-family: &quot;Helvetica Neue&quot;, sans-serif; font-size: 12px; font-weight: 200;" fill="rgb(50, 49, 63)" stroke="none" stroke-width="1px">70</text><text x="155.13606949514244" y="0" dx="0em" dy="0.95em" style="text-anchor: middle; visibility: inherit; font-family: &quot;Helvetica Neue&quot;, sans-serif; font-size: 12px; font-weight: 200;" fill="rgb(50, 49, 63)" stroke="none" stroke-width="1px">80</text><text x="172.86159620392908" y="0" dx="0em" dy="0.95em" style="text-anchor: middle; visibility: hidden; font-family: &quot;Helvetica Neue&quot;, sans-serif; font-size: 12px; font-weight: 200;" fill="rgb(50, 49, 63)" stroke="none" stroke-width="1px">90</text><text x="190.58712291271576" y="0" dx="0em" dy="0.95em" style="text-anchor: middle; visibility: inherit; font-family: &quot;Helvetica Neue&quot;, sans-serif; font-size: 12px; font-weight: 200;" fill="rgb(50, 49, 63)" stroke="none" stroke-width="1px">100</text><text x="208.3126496215024" y="0" dx="0em" dy="0.95em" style="text-anchor: middle; visibility: hidden; font-family: &quot;Helvetica Neue&quot;, sans-serif; font-size: 12px; font-weight: 200;" fill="rgb(50, 49, 63)" stroke="none" stroke-width="1px">110</text><text x="226.03817633028908" y="0" dx="0em" dy="0.95em" style="text-anchor: middle; visibility: inherit; font-family: &quot;Helvetica Neue&quot;, sans-serif; font-size: 12px; font-weight: 200;" fill="rgb(50, 49, 63)" stroke="none" stroke-width="1px">120</text><text x="243.76370303907572" y="0" dx="0em" dy="0.95em" style="text-anchor: middle; visibility: hidden; font-family: &quot;Helvetica Neue&quot;, sans-serif; font-size: 12px; font-weight: 200;" fill="rgb(50, 49, 63)" stroke="none" stroke-width="1px">130</text></g><line x1="0" y1="0" x2="248" y2="0" fill="rgb(0, 0, 0)" stroke="rgb(204, 204, 204)" stroke-width="1px"></line></g></g></g></g></svg>