<svg viewBox="0 0 330 200" xmlns="http://www.w3.org/2000/svg"><g><g><g><g><g><line x1="70" y1="178" x2="65" y2="178" style="visibility: inherit;" fill="rgb(0, 0, 0)" stroke="rgb(204, 204, 204)" stroke-width="1px"></line><line x1="70" y1="163.166666666665" x2="65" y2="163.166666666665" style="visibility: inherit;" fill="rgb(0, 0, 0)" stroke="rgb(204, 204, 204)" stroke-width="1px"></line><line x1="70" y1="148.33333333333334" x2="65" y2="148.33333333333334" style="visibility: inherit;" fill="rgb(0, 0, 0)" stroke="rgb(204, 204, 204)" stroke-width="1px"></line><line x1="70" y1="133.49999999999835" x2="65" y2="133.49999999999835" style="visibility: inherit;" fill="rgb(0, 0, 0)" stroke="rgb(204, 204, 204)" stroke-width="1px"></line><line x1="70" y1="118.66666666666667" x2="65" y2="118.66666666666667" style="visibility: inherit;" fill="rgb(0, 0, 0)" stroke="rgb(204, 204, 204)" stroke-width="1px"></line><line x1="70" y1="103.8333333333317" x2="65" y2="103.8333333333317" style="visibility: inherit;" fill="rgb(0, 0, 0)" stroke="rgb(204, 204, 204)" stroke-width="1px"></line><line x1="70" y1="89" x2="65" y2="89" style="visibility: inherit;" fill="rgb(0, 0, 0)" stroke="rgb(204, 204, 204)" stroke-width="1px"></line><line x1="70" y1="74.16666666666502" x2="65" y2="74.16666666666502" style="visibility: inherit;" fill="rgb(0, 0, 0)" stroke="rgb(204, 204, 204)" stroke-width="1px"></line><line x1="70" y1="59.33333333333334" x2="65" y2="59.33333333333334" style="visibility: inherit;" fill="rgb(0, 0, 0)" stroke="rgb(204, 204, 204)" stroke-width="1px"></line><line x1="70" y1="44.49999999999835" x2="65" y2="44.49999999999835" style="visibility: inherit;" fill="rgb(0, 0, 0)" stroke="rgb(204, 204, 204)" stroke-width="1px"></line><line x1="70" y1="29.666666666666657" x2="65" y2="29.666666666666657" style="visibility: inherit;" fill="rgb(0, 0, 0)" stroke="rgb(204, 204, 204)" stroke-width="1px"></line><line x1="70" y1="14.833333333331666" x2="65" y2="14.833333333331666" style="visibility: inherit;" fill="rgb(0, 0, 0)" stroke="rgb(204, 204, 204)" stroke-width="1px"></line><line x1="70" y1="0" x2="65" y2="0" style="visibility: inherit;" fill="rgb(0, 0, 0)" stroke="rgb(204, 204, 204)" stroke-width="1px"></line></g><g transform="translate(60, 0)"><text x="0" y="178" dx="0em" dy="0.3em" style="text-anchor: end; visibility: hidden; font-family: &quot;Helvetica Neue&quot;, sans-serif; font-size: 12px; font-weight: 200;" fill="rgb(50, 49, 63)" stroke="none" stroke-width="1px">0.991</text><text x="0" y="163.166666666665" dx="0em" dy="0.3em" style="text-anchor: end; visibility: inherit; font-family: &quot;Helvetica Neue&quot;, sans-serif; font-size: 12px; font-weight: 200;" fill="rgb(50, 49, 63)" stroke="none" stroke-width="1px">0.992</text><text x="0" y="148.33333333333334" dx="0em" dy="0.3em" style="text-anchor: end; visibility: hidden; font-family: &quot;Helvetica Neue&quot;, sans-serif; font-size: 12px; font-weight: 200;" fill="rgb(50, 49, 63)" stroke="none" stroke-width="1px">0.992</text><text x="0" y="133.49999999999835" dx="0em" dy="0.3em" style="text-anchor: end; visibility: inherit; font-family: &quot;Helvetica Neue&quot;, sans-serif; font-size: 12px; font-weight: 200;" fill="rgb(50, 49, 63)" stroke="none" stroke-width="1px">0.993</text><text x="0" y="118.66666666666667" dx="0em" dy="0.3em" style="text-anchor: end; visibility: hidden; font-family: &quot;Helvetica Neue&quot;, sans-serif; font-size: 12px; font-weight: 200;" fill="rgb(50, 49, 63)" stroke="none" stroke-width="1px">0.993</text><text x="0" y="103.8333333333317" dx="0em" dy="0.3em" style="text-anchor: end; visibility: inherit; font-family: &quot;Helvetica Neue&quot;, sans-serif; font-size: 12px; font-weight: 200;" fill="rgb(50, 49, 63)" stroke="none" stroke-width="1px">0.994</text><text x="0" y="89" dx="0em" dy="0.3em" style="text-anchor: end; visibility: hidden; font-family: &quot;Helvetica Neue&quot;, sans-serif; font-size: 12px; font-weight: 200;" fill="rgb(50, 49, 63)" stroke="none" stroke-width="1px">0.994</text><text x="0" y="74.16666666666502" dx="0em" dy="0.3em" style="text-anchor: end; visibility: inherit; font-family: &quot;Helvetica Neue&quot;, sans-serif; font-size: 12px; font-weight: 200;" fill="rgb(50, 49, 63)" stroke="none" stroke-width="1px">0.995</text><text x="0" y="59.33333333333334" dx="0em" dy="0.3em" style="text-anchor: end; visibility: hidden; font-family: &quot;Helvetica Neue&quot;, sans-serif; font-size: 12px; font-weight: 200;" fill="rgb(50, 49, 63)" stroke="none" stroke-width="1px">0.995</text><text x="0" y="44.49999999999835" dx="0em" dy="0.3em" style="text-anchor: end; visibility: inherit; font-family: &quot;Helvetica Neue&quot;, sans-serif; font-size: 12px; font-weight: 200;" fill="rgb(50, 49, 63)" stroke="none" stroke-width="1px">0.996</text><text x="0" y="29.666666666666657" dx="0em" dy="0.3em" style="text-anchor: end; visibility: hidden; font-family: &quot;Helvetica Neue&quot;, sans-serif; font-size: 12px; font-weight: 200;" fill="rgb(50, 49, 63)" stroke="none" stroke-width="1px">0.996</text><text x="0" y="14.833333333331666" dx="0em" dy="0.3em" style="text-anchor: end; visibility: inherit; font-family: &quot;Helvetica Neue&quot;, sans-serif; font-size: 12px; font-weight: 200;" fill="rgb(50, 49, 63)" stroke="none" stroke-width="1px">0.997</text><text x="0" y="0" dx="0em" dy="0.3em" style="text-anchor: end; visibility: hidden; font-family: &quot;Helvetica Neue&quot;, sans-serif; font-size: 12px; font-weight: 200;" fill="rgb(50, 49, 63)" stroke="none" stroke-width="1px">0.997</text></g><line x1="70" y1="0" x2="70" y2="178" fill="rgb(0, 0, 0)" stroke="rgb(204, 204, 204)" stroke-width="1px"></line></g></g><g transform="translate(70, 0)" clip-path="url(#clip_0)"><clipPath id="clip_0"><rect width="260" height="178"></rect></clipPath><g><g><g><line x1="0" y1="0" x2="0" y2="178" fill="rgb(0, 0, 0)" stroke="rgb(60, 60, 60)" stroke-width="1px" opacity="0.25"></line><line x1="21.666666666666664" y1="0" x2="21.666666666666664" y2="178" fill="rgb(0, 0, 0)" stroke="rgb(60, 60, 60)" stroke-width="1px" opacity="0.25"></line><line x1="43.33333333333333" y1="0" x2="43.33333333333333" y2="178" fill="rgb(0, 0, 0)" stroke="rgb(60, 60, 60)" stroke-width="1px" opacity="0.25"></line><line x1="65" y1="0" x2="65" y2="178" fill="rgb(0, 0, 0)" stroke="rgb(60, 60, 60)" stroke-width="1px" opacity="0.25"></line><line x1="86.66666666666666" y1="0" x2="86.66666666666666" y2="178" fill="rgb(0, 0, 0)" stroke="rgb(60, 60, 60)" stroke-width="1px" opacity="0.25"></line><line x1="108.33333333333334" y1="0" x2="108.33333333333334" y2="178" fill="rgb(0, 0, 0)" stroke="rgb(60, 60, 60)" stroke-width="1px" opacity="0.25"></line><line x1="130" y1="0" x2="130" y2="178" fill="rgb(0, 0, 0)" stroke="rgb(60, 60, 60)" stroke-width="1px" opacity="0.25"></line><line x1="151.66666666666669" y1="0" x2="151.66666666666669" y2="178" fill="rgb(0, 0, 0)" stroke="rgb(60, 60, 60)" stroke-width="1px" opacity="0.25"></line><line x1="173.33333333333331" y1="0" x2="173.33333333333331" y2="178" fill="rgb(0, 0, 0)" stroke="rgb(60, 60, 60)" stroke-width="1px" opacity="0.25"></line><line x1="195" y1="0" x2="195" y2="178" fill="rgb(0, 0, 0)" stroke="rgb(60, 60, 60)" stroke-width="1px" opacity="0.25"></line><line x1="216.66666666666669" y1="0" x2="216.66666666666669" y2="178" fill="rgb(0, 0, 0)" stroke="rgb(60, 60, 60)" stroke-width="1px" opacity="0.25"></line><line x1="238.33333333333331" y1="0" x2="238.33333333333331" y2="178" fill="rgb(0, 0, 0)" stroke="rgb(60, 60, 60)" stroke-width="1px" opacity="0.25"></line><line x1="260" y1="0" x2="260" y2="178" fill="rgb(0, 0, 0)" stroke="rgb(60, 60, 60)" stroke-width="1px" opacity="0.25"></line></g><g><line x1="0" y1="178" x2="260" y2="178" fill="rgb(0, 0, 0)" stroke="rgb(60, 60, 60)" stroke-width="1px" opacity="0.25"></line><line x1="0" y1="163.166666666665" x2="260" y2="163.166666666665" fill="rgb(0, 0, 0)" stroke="rgb(60, 60, 60)" stroke-width="1px" opacity="0.25"></line><line x1="0" y1="148.33333333333334" x2="260" y2="148.33333333333334" fill="rgb(0, 0, 0)" stroke="rgb(60, 60, 60)" stroke-width="1px" opacity="0.25"></line><line x1="0" y1="133.49999999999835" x2="260" y2="133.49999999999835" fill="rgb(0, 0, 0)" stroke="rgb(60, 60, 60)" stroke-width="1px" opacity="0.25"></line><line x1="0" y1="118.66666666666667" x2="260" y2="118.66666666666667" fill="rgb(0, 0, 0)" stroke="rgb(60, 60, 60)" stroke-width="1px" opacity="0.25"></line><line x1="0" y1="103.8333333333317" x2="260" y2="103.8333333333317" fill="rgb(0, 0, 0)" stroke="rgb(60, 60, 60)" stroke-width="1px" opacity="0.25"></line><line x1="0" y1="89" x2="260" y2="89" fill="rgb(0, 0, 0)" stroke="rgb(60, 60, 60)" stroke-width="1px" opacity="0.25"></line><line x1="0" y1="74.16666666666502" x2="260" y2="74.16666666666502" fill="rgb(0, 0, 0)" stroke="rgb(60, 60, 60)" stroke-width="1px" opacity="0.25"></line><line x1="0" y1="59.33333333333334" x2="260" y2="59.33333333333334" fill="rgb(0, 0, 0)" stroke="rgb(60, 60, 60)" stroke-width="1px" opacity="0.25"></line><line x1="0" y1="44.49999999999835" x2="260" y2="44.49999999999835" fill="rgb(0, 0, 0)" stroke="rgb(60, 60, 60)" stroke-width="1px" opacity="0.25"></line><line x1="0" y1="29.666666666666657" x2="260" y2="29.666666666666657" fill="rgb(0, 0, 0)" stroke="rgb(60, 60, 60)" stroke-width="1px" opacity="0.25"></line><line x1="0" y1="14.833333333331666" x2="260" y2="14.833333333331666" fill="rgb(0, 0, 0)" stroke="rgb(60, 60, 60)" stroke-width="1px" opacity="0.25"></line><line x1="0" y1="0" x2="260" y2="0" fill="rgb(0, 0, 0)" stroke="rgb(60, 60, 60)" stroke-width="1px" opacity="0.25"></line></g></g></g><g><g><line x1="0" y1="29577.66666666664" x2="260" y2="29577.66666666664" fill="rgb(0, 0, 0)" stroke="rgb(153, 153, 153)" stroke-width="1.5px"></line></g></g><g><g><line x1="21.666666666666664" y1="0" x2="21.666666666666664" y2="178" fill="rgb(0, 0, 0)" stroke="rgb(153, 153, 153)" stroke-width="1.5px"></line></g></g><g><g><g><g><g><path stroke="rgb(255, 112, 67)" stroke-width="2px" d="M21.666666666666664,147.8599176406858L22.75,207.0740129152931L23.833333333333332,88.64405409495019L24.916666666666668,88.64405409495019L26,88.64405409495019L27.083333333333336,207.0740129152931L28.166666666666668,88.64405409495019L29.25,29.429958820342932L30.333333333333332,147.8599176406858L31.416666666666668,29.429958820342932L32.5,29.429958820342932L33.583333333333336,29.429958820342932L34.666666666666664,88.64405409495019L35.75,29.429958820342932L36.833333333333336,147.8599176406858L37.91666666666667,29.429958820342932L39,147.8599176406858L40.083333333333336,88.64405409495019L41.166666666666664,88.64405409495019L42.25,88.64405409495019L43.33333333333333,29.429958820342932L44.416666666666664,29.429958820342932L45.5,29.429958820342932L46.583333333333336,29.429958820342932L47.666666666666664,147.8599176406858L48.75,29.429958820342932L49.833333333333336,29.429958820342932L50.916666666666664,88.64405409495019L52,29.429958820342932L53.083333333333336,88.64405409495019L54.16666666666667,88.64405409495019L55.25,147.8599176406858L56.333333333333336,88.64405409495019L57.416666666666664,147.8599176406858L58.5,29.429958820342932L59.58333333333333,29.429958820342932L60.666666666666664,147.8599176406858L61.75,29.429958820342932L62.833333333333336,29.429958820342932L63.916666666666664,29.429958820342932L65,29.429958820342932L66.08333333333333,88.64405409495019L67.16666666666667,325.503971735636L68.25,29.429958820342932L69.33333333333333,29.429958820342932L70.41666666666666,29.429958820342932L71.5,88.64405409495019L72.58333333333333,88.64405409495019L73.66666666666667,29.429958820342932L74.75,147.8599176406858L75.83333333333334,29.429958820342932L76.91666666666667,88.64405409495019L78,29.429958820342932L79.08333333333333,88.64405409495019L80.16666666666667,88.64405409495019L81.25,29.429958820342932L82.33333333333333,29.429958820342932L83.41666666666667,88.64405409495019L84.5,29.429958820342932L85.58333333333333,88.64405409495019L86.66666666666666,88.64405409495019L87.75,88.64405409495019L88.83333333333333,29.429958820342932L89.91666666666667,88.64405409495019L91,29.429958820342932L92.08333333333334,29.429958820342932L93.16666666666667,88.64405409495019L94.25,29.429958820342932L95.33333333333333,29.429958820342932L96.41666666666667,29.429958820342932L97.5,29.429958820342932L98.58333333333333,29.429958820342932L99.66666666666667,29.429958820342932L100.75,88.64405409495019L101.83333333333333,88.64405409495019L102.91666666666666,29.429958820342932L104,29.429958820342932L105.08333333333333,29.429958820342932L106.16666666666667,147.8599176406858L107.25,29.429958820342932L108.33333333333334,29.429958820342932L109.41666666666667,29.429958820342932L110.5,29.429958820342932L111.58333333333333,88.64405409495019L112.66666666666667,29.429958820342932L113.75,29.429958820342932L114.83333333333333,29.429958820342932L115.91666666666667,29.429958820342932L117,29.429958820342932L118.08333333333333,29.429958820342932L119.16666666666666,88.64405409495019L120.25,147.8599176406858L121.33333333333333,147.8599176406858L122.41666666666667,88.64405409495019L123.5,147.8599176406858L124.58333333333334,147.8599176406858L125.66666666666667,29.429958820342932L126.75,29.429958820342932L127.83333333333333,88.64405409495019L128.91666666666666,147.8599176406858L130,88.64405409495019L131.08333333333334,147.8599176406858L132.16666666666666,29.429958820342932L133.25,147.8599176406858L134.33333333333334,29.429958820342932L135.41666666666669,29.429958820342932L136.5,29.429958820342932L137.58333333333334,88.64405409495019L138.66666666666666,88.64405409495019L139.75,88.64405409495019L140.83333333333331,29.429958820342932L141.91666666666666,29.429958820342932L143,147.8599176406858L144.08333333333334,88.64405409495019L145.16666666666666,147.8599176406858L146.25,147.8599176406858L147.33333333333334,88.64405409495019L148.41666666666666,29.429958820342932L149.5,88.64405409495019L150.58333333333334,29.429958820342932L151.66666666666669,147.8599176406858L152.75,147.8599176406858L153.83333333333334,29.429958820342932L154.91666666666666,29.429958820342932L156,88.64405409495019L157.08333333333331,88.64405409495019L158.16666666666666,29.429958820342932L159.25,147.8599176406858L160.33333333333334,88.64405409495019L161.41666666666666,147.8599176406858L162.5,88.64405409495019L163.58333333333334,88.64405409495019L164.66666666666666,207.0740129152931L165.75,147.8599176406858L166.83333333333334,88.64405409495019L167.91666666666669,207.0740129152931L169,88.64405409495019L170.08333333333334,88.64405409495019L171.16666666666666,88.64405409495019L172.25,88.64405409495019L173.33333333333331,88.64405409495019L174.41666666666666,88.64405409495019L175.5,88.64405409495019L176.58333333333334,88.64405409495019L177.66666666666666,147.8599176406858L178.75,88.64405409495019L179.83333333333334,88.64405409495019L180.91666666666666,88.64405409495019L182,88.64405409495019L183.08333333333334,88.64405409495019L184.16666666666669,88.64405409495019L185.25,88.64405409495019L186.33333333333334,88.64405409495019L187.41666666666666,88.64405409495019L188.5,88.64405409495019L189.58333333333331,88.64405409495019L190.66666666666666,88.64405409495019L191.75,88.64405409495019L192.83333333333334,147.8599176406858L193.91666666666666,207.0740129152931L195,88.64405409495019L196.08333333333334,88.64405409495019L197.16666666666666,88.64405409495019L198.25,88.64405409495019L199.33333333333334,88.64405409495019L200.41666666666669,88.64405409495019L201.5,88.64405409495019L202.58333333333334,88.64405409495019L203.66666666666666,88.64405409495019L204.75,88.64405409495019L205.83333333333331,88.64405409495019L206.91666666666666,88.64405409495019L208,207.0740129152931L209.08333333333334,88.64405409495019L210.16666666666666,88.64405409495019L211.25,88.64405409495019L212.33333333333334,88.64405409495019L213.41666666666666,147.8599176406858L214.5,88.64405409495019L215.58333333333334,88.64405409495019L216.66666666666669,88.64405409495019L217.75,88.64405409495019L218.83333333333334,88.64405409495019L219.91666666666666,29.429958820342932L221,88.64405409495019L222.08333333333331,88.64405409495019L223.16666666666666,207.0740129152931L224.25,88.64405409495019L225.33333333333334,88.64405409495019L226.41666666666666,88.64405409495019L227.5,88.64405409495019L228.58333333333334,88.64405409495019L229.66666666666666,88.64405409495019L230.75,88.64405409495019L231.83333333333334,88.64405409495019L232.91666666666669,88.64405409495019L234,29.429958820342932L235.08333333333334,88.64405409495019L236.16666666666666,88.64405409495019L237.25,88.64405409495019" style="fill: none;" fill="none"></path></g></g></g></g></g></g><g transform="translate(70, 178)" clip-path="url(#clip_1)"><clipPath id="clip_1"><rect width="260" height="22"></rect></clipPath><g><g><line x1="0" y1="0" x2="0" y2="5" style="visibility: inherit;" fill="rgb(0, 0, 0)" stroke="rgb(204, 204, 204)" stroke-width="1px"></line><line x1="21.666666666666664" y1="0" x2="21.666666666666664" y2="5" style="visibility: inherit;" fill="rgb(0, 0, 0)" stroke="rgb(204, 204, 204)" stroke-width="1px"></line><line x1="43.33333333333333" y1="0" x2="43.33333333333333" y2="5" style="visibility: inherit;" fill="rgb(0, 0, 0)" stroke="rgb(204, 204, 204)" stroke-width="1px"></line><line x1="65" y1="0" x2="65" y2="5" style="visibility: inherit;" fill="rgb(0, 0, 0)" stroke="rgb(204, 204, 204)" stroke-width="1px"></line><line x1="86.66666666666666" y1="0" x2="86.66666666666666" y2="5" style="visibility: inherit;" fill="rgb(0, 0, 0)" stroke="rgb(204, 204, 204)" stroke-width="1px"></line><line x1="108.33333333333334" y1="0" x2="108.33333333333334" y2="5" style="visibility: inherit;" fill="rgb(0, 0, 0)" stroke="rgb(204, 204, 204)" stroke-width="1px"></line><line x1="130" y1="0" x2="130" y2="5" style="visibility: inherit;" fill="rgb(0, 0, 0)" stroke="rgb(204, 204, 204)" stroke-width="1px"></line><line x1="151.66666666666669" y1="0" x2="151.66666666666669" y2="5" style="visibility: inherit;" fill="rgb(0, 0, 0)" stroke="rgb(204, 204, 204)" stroke-width="1px"></line><line x1="173.33333333333331" y1="0" x2="173.33333333333331" y2="5" style="visibility: inherit;" fill="rgb(0, 0, 0)" stroke="rgb(204, 204, 204)" stroke-width="1px"></line><line x1="195" y1="0" x2="195" y2="5" style="visibility: inherit;" fill="rgb(0, 0, 0)" stroke="rgb(204, 204, 204)" stroke-width="1px"></line><line x1="216.66666666666669" y1="0" x2="216.66666666666669" y2="5" style="visibility: inherit;" fill="rgb(0, 0, 0)" stroke="rgb(204, 204, 204)" stroke-width="1px"></line><line x1="238.33333333333331" y1="0" x2="238.33333333333331" y2="5" style="visibility: inherit;" fill="rgb(0, 0, 0)" stroke="rgb(204, 204, 204)" stroke-width="1px"></line><line x1="260" y1="0" x2="260" y2="5" style="visibility: inherit;" fill="rgb(0, 0, 0)" stroke="rgb(204, 204, 204)" stroke-width="1px"></line></g><g transform="translate(0, 8)"><text x="0" y="0" dx="0em" dy="0.95em" style="text-anchor: middle; visibility: hidden; font-family: &quot;Helvetica Neue&quot;, sans-serif; font-size: 12px; font-weight: 200;" fill="rgb(50, 49, 63)" stroke="none" stroke-width="1px">-20</text><text x="21.666666666666664" y="0" dx="0em" dy="0.95em" style="text-anchor: middle; visibility: inherit; font-family: &quot;Helvetica Neue&quot;, sans-serif; font-size: 12px; font-weight: 200;" fill="rgb(50, 49, 63)" stroke="none" stroke-width="1px">0</text><text x="43.33333333333333" y="0" dx="0em" dy="0.95em" style="text-anchor: middle; visibility: hidden; font-family: &quot;Helvetica Neue&quot;, sans-serif; font-size: 12px; font-weight: 200;" fill="rgb(50, 49, 63)" stroke="none" stroke-width="1px">20</text><text x="65" y="0" dx="0em" dy="0.95em" style="text-anchor: middle; visibility: inherit; font-family: &quot;Helvetica Neue&quot;, sans-serif; font-size: 12px; font-weight: 200;" fill="rgb(50, 49, 63)" stroke="none" stroke-width="1px">40</text><text x="86.66666666666666" y="0" dx="0em" dy="0.95em" style="text-anchor: middle; visibility: hidden; font-family: &quot;Helvetica Neue&quot;, sans-serif; font-size: 12px; font-weight: 200;" fill="rgb(50, 49, 63)" stroke="none" stroke-width="1px">60</text><text x="108.33333333333334" y="0" dx="0em" dy="0.95em" style="text-anchor: middle; visibility: inherit; font-family: &quot;Helvetica Neue&quot;, sans-serif; font-size: 12px; font-weight: 200;" fill="rgb(50, 49, 63)" stroke="none" stroke-width="1px">80</text><text x="130" y="0" dx="0em" dy="0.95em" style="text-anchor: middle; visibility: hidden; font-family: &quot;Helvetica Neue&quot;, sans-serif; font-size: 12px; font-weight: 200;" fill="rgb(50, 49, 63)" stroke="none" stroke-width="1px">100</text><text x="151.66666666666669" y="0" dx="0em" dy="0.95em" style="text-anchor: middle; visibility: inherit; font-family: &quot;Helvetica Neue&quot;, sans-serif; font-size: 12px; font-weight: 200;" fill="rgb(50, 49, 63)" stroke="none" stroke-width="1px">120</text><text x="173.33333333333331" y="0" dx="0em" dy="0.95em" style="text-anchor: middle; visibility: hidden; font-family: &quot;Helvetica Neue&quot;, sans-serif; font-size: 12px; font-weight: 200;" fill="rgb(50, 49, 63)" stroke="none" stroke-width="1px">140</text><text x="195" y="0" dx="0em" dy="0.95em" style="text-anchor: middle; visibility: inherit; font-family: &quot;Helvetica Neue&quot;, sans-serif; font-size: 12px; font-weight: 200;" fill="rgb(50, 49, 63)" stroke="none" stroke-width="1px">160</text><text x="216.66666666666669" y="0" dx="0em" dy="0.95em" style="text-anchor: middle; visibility: hidden; font-family: &quot;Helvetica Neue&quot;, sans-serif; font-size: 12px; font-weight: 200;" fill="rgb(50, 49, 63)" stroke="none" stroke-width="1px">180</text><text x="238.33333333333331" y="0" dx="0em" dy="0.95em" style="text-anchor: middle; visibility: inherit; font-family: &quot;Helvetica Neue&quot;, sans-serif; font-size: 12px; font-weight: 200;" fill="rgb(50, 49, 63)" stroke="none" stroke-width="1px">200</text><text x="260" y="0" dx="0em" dy="0.95em" style="text-anchor: middle; visibility: hidden; font-family: &quot;Helvetica Neue&quot;, sans-serif; font-size: 12px; font-weight: 200;" fill="rgb(50, 49, 63)" stroke="none" stroke-width="1px">220</text></g><line x1="0" y1="0" x2="260" y2="0" fill="rgb(0, 0, 0)" stroke="rgb(204, 204, 204)" stroke-width="1px"></line></g></g></g></g></svg>