<svg viewBox="0 0 330 200" xmlns="http://www.w3.org/2000/svg"><g><g><g><g><g><line x1="82" y1="178" x2="77" y2="178" style="visibility: inherit;" fill="rgb(0, 0, 0)" stroke="rgb(204, 204, 204)" stroke-width="1px"></line><line x1="82" y1="155.75" x2="77" y2="155.75" style="visibility: inherit;" fill="rgb(0, 0, 0)" stroke="rgb(204, 204, 204)" stroke-width="1px"></line><line x1="82" y1="133.49999999999997" x2="77" y2="133.49999999999997" style="visibility: inherit;" fill="rgb(0, 0, 0)" stroke="rgb(204, 204, 204)" stroke-width="1px"></line><line x1="82" y1="111.24999999999996" x2="77" y2="111.24999999999996" style="visibility: inherit;" fill="rgb(0, 0, 0)" stroke="rgb(204, 204, 204)" stroke-width="1px"></line><line x1="82" y1="89" x2="77" y2="89" style="visibility: inherit;" fill="rgb(0, 0, 0)" stroke="rgb(204, 204, 204)" stroke-width="1px"></line><line x1="82" y1="66.74999999999999" x2="77" y2="66.74999999999999" style="visibility: inherit;" fill="rgb(0, 0, 0)" stroke="rgb(204, 204, 204)" stroke-width="1px"></line><line x1="82" y1="44.49999999999997" x2="77" y2="44.49999999999997" style="visibility: inherit;" fill="rgb(0, 0, 0)" stroke="rgb(204, 204, 204)" stroke-width="1px"></line><line x1="82" y1="22.24999999999997" x2="77" y2="22.24999999999997" style="visibility: inherit;" fill="rgb(0, 0, 0)" stroke="rgb(204, 204, 204)" stroke-width="1px"></line><line x1="82" y1="0" x2="77" y2="0" style="visibility: inherit;" fill="rgb(0, 0, 0)" stroke="rgb(204, 204, 204)" stroke-width="1px"></line></g><g transform="translate(72, 0)"><text x="0" y="178" dx="0em" dy="0.3em" style="text-anchor: end; visibility: hidden; font-family: &quot;Helvetica Neue&quot;, sans-serif; font-size: 12px; font-weight: 200;" fill="rgb(50, 49, 63)" stroke="none" stroke-width="1px">2.6e-3</text><text x="0" y="155.75" dx="0em" dy="0.3em" style="text-anchor: end; visibility: inherit; font-family: &quot;Helvetica Neue&quot;, sans-serif; font-size: 12px; font-weight: 200;" fill="rgb(50, 49, 63)" stroke="none" stroke-width="1px">2.8e-3</text><text x="0" y="133.49999999999997" dx="0em" dy="0.3em" style="text-anchor: end; visibility: hidden; font-family: &quot;Helvetica Neue&quot;, sans-serif; font-size: 12px; font-weight: 200;" fill="rgb(50, 49, 63)" stroke="none" stroke-width="1px">3e-3</text><text x="0" y="111.24999999999996" dx="0em" dy="0.3em" style="text-anchor: end; visibility: inherit; font-family: &quot;Helvetica Neue&quot;, sans-serif; font-size: 12px; font-weight: 200;" fill="rgb(50, 49, 63)" stroke="none" stroke-width="1px">3.2e-3</text><text x="0" y="89" dx="0em" dy="0.3em" style="text-anchor: end; visibility: hidden; font-family: &quot;Helvetica Neue&quot;, sans-serif; font-size: 12px; font-weight: 200;" fill="rgb(50, 49, 63)" stroke="none" stroke-width="1px">3.4e-3</text><text x="0" y="66.74999999999999" dx="0em" dy="0.3em" style="text-anchor: end; visibility: inherit; font-family: &quot;Helvetica Neue&quot;, sans-serif; font-size: 12px; font-weight: 200;" fill="rgb(50, 49, 63)" stroke="none" stroke-width="1px">3.6e-3</text><text x="0" y="44.49999999999997" dx="0em" dy="0.3em" style="text-anchor: end; visibility: hidden; font-family: &quot;Helvetica Neue&quot;, sans-serif; font-size: 12px; font-weight: 200;" fill="rgb(50, 49, 63)" stroke="none" stroke-width="1px">3.8e-3</text><text x="0" y="22.24999999999997" dx="0em" dy="0.3em" style="text-anchor: end; visibility: inherit; font-family: &quot;Helvetica Neue&quot;, sans-serif; font-size: 12px; font-weight: 200;" fill="rgb(50, 49, 63)" stroke="none" stroke-width="1px">4e-3</text><text x="0" y="0" dx="0em" dy="0.3em" style="text-anchor: end; visibility: hidden; font-family: &quot;Helvetica Neue&quot;, sans-serif; font-size: 12px; font-weight: 200;" fill="rgb(50, 49, 63)" stroke="none" stroke-width="1px">4.2e-3</text></g><line x1="82" y1="0" x2="82" y2="178" fill="rgb(0, 0, 0)" stroke="rgb(204, 204, 204)" stroke-width="1px"></line></g></g><g transform="translate(82, 0)" clip-path="url(#clip_0)"><clipPath id="clip_0"><rect width="248" height="178"></rect></clipPath><g><g><g><line x1="0" y1="0" x2="0" y2="178" fill="rgb(0, 0, 0)" stroke="rgb(60, 60, 60)" stroke-width="1px" opacity="0.25"></line><line x1="20.666666666666664" y1="0" x2="20.666666666666664" y2="178" fill="rgb(0, 0, 0)" stroke="rgb(60, 60, 60)" stroke-width="1px" opacity="0.25"></line><line x1="41.33333333333333" y1="0" x2="41.33333333333333" y2="178" fill="rgb(0, 0, 0)" stroke="rgb(60, 60, 60)" stroke-width="1px" opacity="0.25"></line><line x1="62" y1="0" x2="62" y2="178" fill="rgb(0, 0, 0)" stroke="rgb(60, 60, 60)" stroke-width="1px" opacity="0.25"></line><line x1="82.66666666666666" y1="0" x2="82.66666666666666" y2="178" fill="rgb(0, 0, 0)" stroke="rgb(60, 60, 60)" stroke-width="1px" opacity="0.25"></line><line x1="103.33333333333334" y1="0" x2="103.33333333333334" y2="178" fill="rgb(0, 0, 0)" stroke="rgb(60, 60, 60)" stroke-width="1px" opacity="0.25"></line><line x1="124" y1="0" x2="124" y2="178" fill="rgb(0, 0, 0)" stroke="rgb(60, 60, 60)" stroke-width="1px" opacity="0.25"></line><line x1="144.66666666666669" y1="0" x2="144.66666666666669" y2="178" fill="rgb(0, 0, 0)" stroke="rgb(60, 60, 60)" stroke-width="1px" opacity="0.25"></line><line x1="165.33333333333331" y1="0" x2="165.33333333333331" y2="178" fill="rgb(0, 0, 0)" stroke="rgb(60, 60, 60)" stroke-width="1px" opacity="0.25"></line><line x1="186" y1="0" x2="186" y2="178" fill="rgb(0, 0, 0)" stroke="rgb(60, 60, 60)" stroke-width="1px" opacity="0.25"></line><line x1="206.66666666666669" y1="0" x2="206.66666666666669" y2="178" fill="rgb(0, 0, 0)" stroke="rgb(60, 60, 60)" stroke-width="1px" opacity="0.25"></line><line x1="227.33333333333331" y1="0" x2="227.33333333333331" y2="178" fill="rgb(0, 0, 0)" stroke="rgb(60, 60, 60)" stroke-width="1px" opacity="0.25"></line><line x1="248" y1="0" x2="248" y2="178" fill="rgb(0, 0, 0)" stroke="rgb(60, 60, 60)" stroke-width="1px" opacity="0.25"></line></g><g><line x1="0" y1="178" x2="248" y2="178" fill="rgb(0, 0, 0)" stroke="rgb(60, 60, 60)" stroke-width="1px" opacity="0.25"></line><line x1="0" y1="155.75" x2="248" y2="155.75" fill="rgb(0, 0, 0)" stroke="rgb(60, 60, 60)" stroke-width="1px" opacity="0.25"></line><line x1="0" y1="133.49999999999997" x2="248" y2="133.49999999999997" fill="rgb(0, 0, 0)" stroke="rgb(60, 60, 60)" stroke-width="1px" opacity="0.25"></line><line x1="0" y1="111.24999999999996" x2="248" y2="111.24999999999996" fill="rgb(0, 0, 0)" stroke="rgb(60, 60, 60)" stroke-width="1px" opacity="0.25"></line><line x1="0" y1="89" x2="248" y2="89" fill="rgb(0, 0, 0)" stroke="rgb(60, 60, 60)" stroke-width="1px" opacity="0.25"></line><line x1="0" y1="66.74999999999999" x2="248" y2="66.74999999999999" fill="rgb(0, 0, 0)" stroke="rgb(60, 60, 60)" stroke-width="1px" opacity="0.25"></line><line x1="0" y1="44.49999999999997" x2="248" y2="44.49999999999997" fill="rgb(0, 0, 0)" stroke="rgb(60, 60, 60)" stroke-width="1px" opacity="0.25"></line><line x1="0" y1="22.24999999999997" x2="248" y2="22.24999999999997" fill="rgb(0, 0, 0)" stroke="rgb(60, 60, 60)" stroke-width="1px" opacity="0.25"></line><line x1="0" y1="0" x2="248" y2="0" fill="rgb(0, 0, 0)" stroke="rgb(60, 60, 60)" stroke-width="1px" opacity="0.25"></line></g></g></g><g><g><line x1="0" y1="467.25" x2="248" y2="467.25" fill="rgb(0, 0, 0)" stroke="rgb(153, 153, 153)" stroke-width="1.5px"></line></g></g><g><g><line x1="20.666666666666664" y1="0" x2="20.666666666666664" y2="178" fill="rgb(0, 0, 0)" stroke="rgb(153, 153, 153)" stroke-width="1.5px"></line></g></g><g><g><g><g><g><path stroke="rgb(255, 112, 67)" stroke-width="2px" d="M21.7,-4.177264856174617L22.73333333333333,33.012688871473046L23.76666666666667,11.5501599051058L24.8,86.54240031167863L25.833333333333336,6.6178231630474045L26.866666666666667,37.377167098689796L27.900000000000002,17.559726037085028L28.933333333333334,44.15222712699321L29.96666666666667,84.39775854488833L31,102.4782876614481L32.03333333333334,90.07823456916957L33.06666666666666,107.16361903026699L34.1,90.45400081807746L35.13333333333333,107.29201727220787L36.16666666666667,96.39212810574098L37.199999999999996,91.07242083549498L38.233333333333334,99.65176497492938L39.266666666666666,95.66867381939663L40.300000000000004,69.23337445035575L41.33333333333333,85.39792826771735L42.36666666666667,101.85214872611685L43.4,106.95404263818635L44.43333333333334,70.91278304718433L45.46666666666666,90.56121088936924L46.5,71.77800121856852L47.53333333333334,65.94801648892461L48.56666666666666,93.22024859860538L49.6,109.4969857498072L50.63333333333333,92.46576322615145L51.66666666666667,87.17620636010541L52.699999999999996,92.87600558158009L53.733333333333334,117.37116270372641L54.766666666666666,82.32393396459518L55.800000000000004,93.03258564462884L56.83333333333333,102.63528216304256L57.86666666666667,94.4654033067636L58.9,91.75593360699712L59.93333333333334,86.88744630338623L60.96666666666666,109.84620202938093L62,97.48324118694289L63.03333333333333,88.71540521644054L64.06666666666668,118.05876805586738L65.10000000000001,51.964808152057216L66.13333333333333,103.92561067268251L67.16666666666666,76.83500625565647L68.2,92.83264494873582L69.23333333333333,93.16745948884635L70.26666666666667,120.225867211353L71.3,88.00583462137728L72.33333333333334,101.78506148653103L73.36666666666667,87.49936481611802L74.39999999999999,109.36252634413539L75.43333333333332,137.36945438571274L76.46666666666667,67.9510238827206L77.5,124.14355478389186L78.53333333333333,102.74769861856474L79.56666666666668,84.5057197860442L80.60000000000001,32.93995490670201L81.63333333333333,58.799210599623606L82.66666666666666,76.75382810551672L83.7,66.73008792707695L84.73333333333333,93.2295216610655L85.76666666666667,93.05999039346351L86.8,128.98137363512066L87.83333333333334,113.24954546429215L88.86666666666667,111.82102760206907L89.89999999999999,75.32696799747644L90.93333333333332,91.99490923341362L91.96666666666667,126.66541333450002L93,121.64415362197903L94.03333333333333,89.72347517404704L95.06666666666668,65.78413194650783L96.10000000000001,115.0513429441489L97.13333333333333,103.16060892213135L98.16666666666666,90.04717758065088L99.2,112.713184278924L100.23333333333333,142.93606341956183L101.26666666666667,106.566490793135L102.3,84.81999371573328L103.33333333333334,96.39909585379063L104.36666666666667,94.8599488022737L105.39999999999999,50.86405937466769L106.43333333333332,119.2804033765569L107.46666666666667,101.57522607035934L108.5,86.26387170655651L109.53333333333333,61.068831490352736L110.56666666666668,58.882978990674005L111.60000000000001,124.64919571205971L112.63333333333333,130.5480808499269L113.66666666666666,87.91595326177774L114.7,89.7321006762795L115.73333333333333,109.32530458224936L116.76666666666667,107.03097279323264L117.8,99.08028012281282L118.83333333333334,131.71153935976324L119.86666666666667,95.31197174359112L120.89999999999999,145.45206802571192L121.93333333333332,120.96999162016434L122.96666666666667,106.29845266370101L124,87.96799120167269L125.03333333333333,53.49271355802192L126.06666666666666,151.98494052886963L127.1,71.52257756236939L128.13333333333335,113.05411178758366L129.16666666666669,111.19426700891925L130.20000000000002,164.52406365564093L131.23333333333335,146.80052154138684L132.26666666666665,97.66020644595845L133.29999999999998,125.78208937915039L134.33333333333331,133.79176183510572L135.36666666666665,149.59458850929514L136.4,88.27464982308446L137.43333333333334,81.28024819446726L138.46666666666667,118.05711030168456L139.5,135.26545349881053L140.53333333333333,156.39516241056845L141.56666666666666,165.65897771064192L142.6,185.68006351264194L143.63333333333335,188.05129955429584L144.66666666666669,135.7476009419188L145.70000000000002,161.6680381251499L146.73333333333335,148.05235907109454L147.76666666666665,131.10073465062302L148.79999999999998,183.33594729332253L149.83333333333331,114.40797890676183L150.86666666666665,101.48239183612166L151.9,-2.929960248060553L152.93333333333334,91.76699393568559L153.96666666666667,56.29993894975631L155,67.23749021906404L156.03333333333333,66.72620256571098L157.06666666666666,84.11223628930746L158.1,-34.47173825558278L159.13333333333335,89.42287771636619L160.16666666666669,41.20036268280816L161.20000000000002,133.26848136633632L162.23333333333335,-21.56736525800082L163.26666666666665,113.25311999674885L164.29999999999998,91.3517524152994L165.33333333333331,92.78330085938795L166.36666666666665,41.6373363244347L167.4,29.296832870691986L168.43333333333334,64.72632936341687L169.46666666666667,36.27545993216333L170.5,43.81935526756567L171.53333333333333,30.097010092809768L172.56666666666666,67.41696801176293L173.6,70.59291419712825L174.63333333333335,102.66706441901623L175.66666666666669,46.68677785806355L176.70000000000002,30.95375817641613L177.73333333333335,-2.5753562673926638L178.76666666666665,78.90201850235461L179.79999999999998,54.826480407733456L180.83333333333331,56.15664682257919L181.86666666666665,61.30361092649399L182.9,55.00702019920571L183.93333333333334,45.15990854846311L184.96666666666667,43.66241257078943L186,14.41745298355815L187.03333333333333,70.76407731650396L188.06666666666666,65.79576212819664L189.1,77.34947990532963L190.13333333333335,1.1354228612035229L191.16666666666669,12.838960172608466L192.20000000000002,41.30257358914238L193.23333333333335,67.41417055157943L194.26666666666665,67.07873435365035L195.29999999999998,38.73520450573412L196.33333333333331,75.25951812416314L197.36666666666665,31.70565330795941L198.4,48.087994581088395L199.43333333333334,53.64077172847463L200.46666666666667,61.3148266696371L201.5,103.0515338773839L202.53333333333333,51.64853973686694L203.56666666666666,57.369967469945536L204.6,74.40618915855883L205.63333333333335,33.732594527769805L206.66666666666669,20.574455628171535L207.70000000000002,50.13172056199981L208.73333333333335,57.09524651896207L209.76666666666665,63.29843315901233L210.79999999999998,73.34196277800946L211.83333333333331,18.192780915647717L212.86666666666665,33.850631806068094L213.9,92.85142419533803L214.93333333333334,70.35393857071175L215.96666666666667,75.15849872864781L217,74.4451722842641L218.03333333333333,55.973594497423605L219.06666666666666,86.89368878398089L220.1,84.07081833714618L221.13333333333335,61.091366586275385L222.16666666666669,56.58564252220093L223.20000000000002,78.2070568660274L224.23333333333335,79.47052457742392L225.26666666666665,101.551551268436L226.29999999999998,35.94647343410176" style="fill: none;" fill="none"></path></g></g></g></g></g><g><g><span fill="rgb(0, 0, 0)" stroke="none" stroke-width="1px">Alt + Scroll to Zoom</span></g></g></g><g transform="translate(82, 178)" clip-path="url(#clip_1)"><clipPath id="clip_1"><rect width="248" height="22"></rect></clipPath><g><g><line x1="0" y1="0" x2="0" y2="5" style="visibility: inherit;" fill="rgb(0, 0, 0)" stroke="rgb(204, 204, 204)" stroke-width="1px"></line><line x1="20.666666666666664" y1="0" x2="20.666666666666664" y2="5" style="visibility: inherit;" fill="rgb(0, 0, 0)" stroke="rgb(204, 204, 204)" stroke-width="1px"></line><line x1="41.33333333333333" y1="0" x2="41.33333333333333" y2="5" style="visibility: inherit;" fill="rgb(0, 0, 0)" stroke="rgb(204, 204, 204)" stroke-width="1px"></line><line x1="62" y1="0" x2="62" y2="5" style="visibility: inherit;" fill="rgb(0, 0, 0)" stroke="rgb(204, 204, 204)" stroke-width="1px"></line><line x1="82.66666666666666" y1="0" x2="82.66666666666666" y2="5" style="visibility: inherit;" fill="rgb(0, 0, 0)" stroke="rgb(204, 204, 204)" stroke-width="1px"></line><line x1="103.33333333333334" y1="0" x2="103.33333333333334" y2="5" style="visibility: inherit;" fill="rgb(0, 0, 0)" stroke="rgb(204, 204, 204)" stroke-width="1px"></line><line x1="124" y1="0" x2="124" y2="5" style="visibility: inherit;" fill="rgb(0, 0, 0)" stroke="rgb(204, 204, 204)" stroke-width="1px"></line><line x1="144.66666666666669" y1="0" x2="144.66666666666669" y2="5" style="visibility: inherit;" fill="rgb(0, 0, 0)" stroke="rgb(204, 204, 204)" stroke-width="1px"></line><line x1="165.33333333333331" y1="0" x2="165.33333333333331" y2="5" style="visibility: inherit;" fill="rgb(0, 0, 0)" stroke="rgb(204, 204, 204)" stroke-width="1px"></line><line x1="186" y1="0" x2="186" y2="5" style="visibility: inherit;" fill="rgb(0, 0, 0)" stroke="rgb(204, 204, 204)" stroke-width="1px"></line><line x1="206.66666666666669" y1="0" x2="206.66666666666669" y2="5" style="visibility: inherit;" fill="rgb(0, 0, 0)" stroke="rgb(204, 204, 204)" stroke-width="1px"></line><line x1="227.33333333333331" y1="0" x2="227.33333333333331" y2="5" style="visibility: inherit;" fill="rgb(0, 0, 0)" stroke="rgb(204, 204, 204)" stroke-width="1px"></line><line x1="248" y1="0" x2="248" y2="5" style="visibility: inherit;" fill="rgb(0, 0, 0)" stroke="rgb(204, 204, 204)" stroke-width="1px"></line></g><g transform="translate(0, 8)"><text x="0" y="0" dx="0em" dy="0.95em" style="text-anchor: middle; visibility: hidden; font-family: &quot;Helvetica Neue&quot;, sans-serif; font-size: 12px; font-weight: 200;" fill="rgb(50, 49, 63)" stroke="none" stroke-width="1px">-20</text><text x="20.666666666666664" y="0" dx="0em" dy="0.95em" style="text-anchor: middle; visibility: inherit; font-family: &quot;Helvetica Neue&quot;, sans-serif; font-size: 12px; font-weight: 200;" fill="rgb(50, 49, 63)" stroke="none" stroke-width="1px">0</text><text x="41.33333333333333" y="0" dx="0em" dy="0.95em" style="text-anchor: middle; visibility: hidden; font-family: &quot;Helvetica Neue&quot;, sans-serif; font-size: 12px; font-weight: 200;" fill="rgb(50, 49, 63)" stroke="none" stroke-width="1px">20</text><text x="62" y="0" dx="0em" dy="0.95em" style="text-anchor: middle; visibility: inherit; font-family: &quot;Helvetica Neue&quot;, sans-serif; font-size: 12px; font-weight: 200;" fill="rgb(50, 49, 63)" stroke="none" stroke-width="1px">40</text><text x="82.66666666666666" y="0" dx="0em" dy="0.95em" style="text-anchor: middle; visibility: hidden; font-family: &quot;Helvetica Neue&quot;, sans-serif; font-size: 12px; font-weight: 200;" fill="rgb(50, 49, 63)" stroke="none" stroke-width="1px">60</text><text x="103.33333333333334" y="0" dx="0em" dy="0.95em" style="text-anchor: middle; visibility: inherit; font-family: &quot;Helvetica Neue&quot;, sans-serif; font-size: 12px; font-weight: 200;" fill="rgb(50, 49, 63)" stroke="none" stroke-width="1px">80</text><text x="124" y="0" dx="0em" dy="0.95em" style="text-anchor: middle; visibility: hidden; font-family: &quot;Helvetica Neue&quot;, sans-serif; font-size: 12px; font-weight: 200;" fill="rgb(50, 49, 63)" stroke="none" stroke-width="1px">100</text><text x="144.66666666666669" y="0" dx="0em" dy="0.95em" style="text-anchor: middle; visibility: inherit; font-family: &quot;Helvetica Neue&quot;, sans-serif; font-size: 12px; font-weight: 200;" fill="rgb(50, 49, 63)" stroke="none" stroke-width="1px">120</text><text x="165.33333333333331" y="0" dx="0em" dy="0.95em" style="text-anchor: middle; visibility: hidden; font-family: &quot;Helvetica Neue&quot;, sans-serif; font-size: 12px; font-weight: 200;" fill="rgb(50, 49, 63)" stroke="none" stroke-width="1px">140</text><text x="186" y="0" dx="0em" dy="0.95em" style="text-anchor: middle; visibility: inherit; font-family: &quot;Helvetica Neue&quot;, sans-serif; font-size: 12px; font-weight: 200;" fill="rgb(50, 49, 63)" stroke="none" stroke-width="1px">160</text><text x="206.66666666666669" y="0" dx="0em" dy="0.95em" style="text-anchor: middle; visibility: hidden; font-family: &quot;Helvetica Neue&quot;, sans-serif; font-size: 12px; font-weight: 200;" fill="rgb(50, 49, 63)" stroke="none" stroke-width="1px">180</text><text x="227.33333333333331" y="0" dx="0em" dy="0.95em" style="text-anchor: middle; visibility: inherit; font-family: &quot;Helvetica Neue&quot;, sans-serif; font-size: 12px; font-weight: 200;" fill="rgb(50, 49, 63)" stroke="none" stroke-width="1px">200</text><text x="248" y="0" dx="0em" dy="0.95em" style="text-anchor: middle; visibility: hidden; font-family: &quot;Helvetica Neue&quot;, sans-serif; font-size: 12px; font-weight: 200;" fill="rgb(50, 49, 63)" stroke="none" stroke-width="1px">220</text></g><line x1="0" y1="0" x2="248" y2="0" fill="rgb(0, 0, 0)" stroke="rgb(204, 204, 204)" stroke-width="1px"></line></g></g></g></g></svg>