<svg viewBox="0 0 330 200" xmlns="http://www.w3.org/2000/svg"><g><g><g><g><g><line x1="82" y1="178" x2="77" y2="178" style="visibility: inherit;" fill="rgb(0, 0, 0)" stroke="rgb(204, 204, 204)" stroke-width="1px"></line><line x1="82" y1="160.2" x2="77" y2="160.2" style="visibility: inherit;" fill="rgb(0, 0, 0)" stroke="rgb(204, 204, 204)" stroke-width="1px"></line><line x1="82" y1="142.4" x2="77" y2="142.4" style="visibility: inherit;" fill="rgb(0, 0, 0)" stroke="rgb(204, 204, 204)" stroke-width="1px"></line><line x1="82" y1="124.6" x2="77" y2="124.6" style="visibility: inherit;" fill="rgb(0, 0, 0)" stroke="rgb(204, 204, 204)" stroke-width="1px"></line><line x1="82" y1="106.8" x2="77" y2="106.8" style="visibility: inherit;" fill="rgb(0, 0, 0)" stroke="rgb(204, 204, 204)" stroke-width="1px"></line><line x1="82" y1="89" x2="77" y2="89" style="visibility: inherit;" fill="rgb(0, 0, 0)" stroke="rgb(204, 204, 204)" stroke-width="1px"></line><line x1="82" y1="71.2" x2="77" y2="71.2" style="visibility: inherit;" fill="rgb(0, 0, 0)" stroke="rgb(204, 204, 204)" stroke-width="1px"></line><line x1="82" y1="53.39999999999999" x2="77" y2="53.39999999999999" style="visibility: inherit;" fill="rgb(0, 0, 0)" stroke="rgb(204, 204, 204)" stroke-width="1px"></line><line x1="82" y1="35.60000000000002" x2="77" y2="35.60000000000002" style="visibility: inherit;" fill="rgb(0, 0, 0)" stroke="rgb(204, 204, 204)" stroke-width="1px"></line><line x1="82" y1="17.799999999999983" x2="77" y2="17.799999999999983" style="visibility: inherit;" fill="rgb(0, 0, 0)" stroke="rgb(204, 204, 204)" stroke-width="1px"></line><line x1="82" y1="0" x2="77" y2="0" style="visibility: inherit;" fill="rgb(0, 0, 0)" stroke="rgb(204, 204, 204)" stroke-width="1px"></line></g><g transform="translate(72, 0)"><text x="0" y="178" dx="0em" dy="0.3em" style="text-anchor: end; visibility: hidden; font-family: &quot;Helvetica Neue&quot;, sans-serif; font-size: 12px; font-weight: 200;" fill="rgb(50, 49, 63)" stroke="none" stroke-width="1px">-2e-5</text><text x="0" y="160.2" dx="0em" dy="0.3em" style="text-anchor: end; visibility: inherit; font-family: &quot;Helvetica Neue&quot;, sans-serif; font-size: 12px; font-weight: 200;" fill="rgb(50, 49, 63)" stroke="none" stroke-width="1px">0</text><text x="0" y="142.4" dx="0em" dy="0.3em" style="text-anchor: end; visibility: hidden; font-family: &quot;Helvetica Neue&quot;, sans-serif; font-size: 12px; font-weight: 200;" fill="rgb(50, 49, 63)" stroke="none" stroke-width="1px">2e-5</text><text x="0" y="124.6" dx="0em" dy="0.3em" style="text-anchor: end; visibility: inherit; font-family: &quot;Helvetica Neue&quot;, sans-serif; font-size: 12px; font-weight: 200;" fill="rgb(50, 49, 63)" stroke="none" stroke-width="1px">4e-5</text><text x="0" y="106.8" dx="0em" dy="0.3em" style="text-anchor: end; visibility: hidden; font-family: &quot;Helvetica Neue&quot;, sans-serif; font-size: 12px; font-weight: 200;" fill="rgb(50, 49, 63)" stroke="none" stroke-width="1px">6e-5</text><text x="0" y="89" dx="0em" dy="0.3em" style="text-anchor: end; visibility: inherit; font-family: &quot;Helvetica Neue&quot;, sans-serif; font-size: 12px; font-weight: 200;" fill="rgb(50, 49, 63)" stroke="none" stroke-width="1px">8e-5</text><text x="0" y="71.2" dx="0em" dy="0.3em" style="text-anchor: end; visibility: hidden; font-family: &quot;Helvetica Neue&quot;, sans-serif; font-size: 12px; font-weight: 200;" fill="rgb(50, 49, 63)" stroke="none" stroke-width="1px">1e-4</text><text x="0" y="53.39999999999999" dx="0em" dy="0.3em" style="text-anchor: end; visibility: inherit; font-family: &quot;Helvetica Neue&quot;, sans-serif; font-size: 12px; font-weight: 200;" fill="rgb(50, 49, 63)" stroke="none" stroke-width="1px">1.2e-4</text><text x="0" y="35.60000000000002" dx="0em" dy="0.3em" style="text-anchor: end; visibility: hidden; font-family: &quot;Helvetica Neue&quot;, sans-serif; font-size: 12px; font-weight: 200;" fill="rgb(50, 49, 63)" stroke="none" stroke-width="1px">1.4e-4</text><text x="0" y="17.799999999999983" dx="0em" dy="0.3em" style="text-anchor: end; visibility: inherit; font-family: &quot;Helvetica Neue&quot;, sans-serif; font-size: 12px; font-weight: 200;" fill="rgb(50, 49, 63)" stroke="none" stroke-width="1px">1.6e-4</text><text x="0" y="0" dx="0em" dy="0.3em" style="text-anchor: end; visibility: hidden; font-family: &quot;Helvetica Neue&quot;, sans-serif; font-size: 12px; font-weight: 200;" fill="rgb(50, 49, 63)" stroke="none" stroke-width="1px">1.8e-4</text></g><line x1="82" y1="0" x2="82" y2="178" fill="rgb(0, 0, 0)" stroke="rgb(204, 204, 204)" stroke-width="1px"></line></g></g><g transform="translate(82, 0)" clip-path="url(#clip_0)"><clipPath id="clip_0"><rect width="248" height="178"></rect></clipPath><g><g><g><line x1="0" y1="0" x2="0" y2="178" fill="rgb(0, 0, 0)" stroke="rgb(60, 60, 60)" stroke-width="1px" opacity="0.25"></line><line x1="20.666666666666664" y1="0" x2="20.666666666666664" y2="178" fill="rgb(0, 0, 0)" stroke="rgb(60, 60, 60)" stroke-width="1px" opacity="0.25"></line><line x1="41.33333333333333" y1="0" x2="41.33333333333333" y2="178" fill="rgb(0, 0, 0)" stroke="rgb(60, 60, 60)" stroke-width="1px" opacity="0.25"></line><line x1="62" y1="0" x2="62" y2="178" fill="rgb(0, 0, 0)" stroke="rgb(60, 60, 60)" stroke-width="1px" opacity="0.25"></line><line x1="82.66666666666666" y1="0" x2="82.66666666666666" y2="178" fill="rgb(0, 0, 0)" stroke="rgb(60, 60, 60)" stroke-width="1px" opacity="0.25"></line><line x1="103.33333333333334" y1="0" x2="103.33333333333334" y2="178" fill="rgb(0, 0, 0)" stroke="rgb(60, 60, 60)" stroke-width="1px" opacity="0.25"></line><line x1="124" y1="0" x2="124" y2="178" fill="rgb(0, 0, 0)" stroke="rgb(60, 60, 60)" stroke-width="1px" opacity="0.25"></line><line x1="144.66666666666669" y1="0" x2="144.66666666666669" y2="178" fill="rgb(0, 0, 0)" stroke="rgb(60, 60, 60)" stroke-width="1px" opacity="0.25"></line><line x1="165.33333333333331" y1="0" x2="165.33333333333331" y2="178" fill="rgb(0, 0, 0)" stroke="rgb(60, 60, 60)" stroke-width="1px" opacity="0.25"></line><line x1="186" y1="0" x2="186" y2="178" fill="rgb(0, 0, 0)" stroke="rgb(60, 60, 60)" stroke-width="1px" opacity="0.25"></line><line x1="206.66666666666669" y1="0" x2="206.66666666666669" y2="178" fill="rgb(0, 0, 0)" stroke="rgb(60, 60, 60)" stroke-width="1px" opacity="0.25"></line><line x1="227.33333333333331" y1="0" x2="227.33333333333331" y2="178" fill="rgb(0, 0, 0)" stroke="rgb(60, 60, 60)" stroke-width="1px" opacity="0.25"></line><line x1="248" y1="0" x2="248" y2="178" fill="rgb(0, 0, 0)" stroke="rgb(60, 60, 60)" stroke-width="1px" opacity="0.25"></line></g><g><line x1="0" y1="178" x2="248" y2="178" fill="rgb(0, 0, 0)" stroke="rgb(60, 60, 60)" stroke-width="1px" opacity="0.25"></line><line x1="0" y1="160.2" x2="248" y2="160.2" fill="rgb(0, 0, 0)" stroke="rgb(60, 60, 60)" stroke-width="1px" opacity="0.25"></line><line x1="0" y1="142.4" x2="248" y2="142.4" fill="rgb(0, 0, 0)" stroke="rgb(60, 60, 60)" stroke-width="1px" opacity="0.25"></line><line x1="0" y1="124.6" x2="248" y2="124.6" fill="rgb(0, 0, 0)" stroke="rgb(60, 60, 60)" stroke-width="1px" opacity="0.25"></line><line x1="0" y1="106.8" x2="248" y2="106.8" fill="rgb(0, 0, 0)" stroke="rgb(60, 60, 60)" stroke-width="1px" opacity="0.25"></line><line x1="0" y1="89" x2="248" y2="89" fill="rgb(0, 0, 0)" stroke="rgb(60, 60, 60)" stroke-width="1px" opacity="0.25"></line><line x1="0" y1="71.2" x2="248" y2="71.2" fill="rgb(0, 0, 0)" stroke="rgb(60, 60, 60)" stroke-width="1px" opacity="0.25"></line><line x1="0" y1="53.39999999999999" x2="248" y2="53.39999999999999" fill="rgb(0, 0, 0)" stroke="rgb(60, 60, 60)" stroke-width="1px" opacity="0.25"></line><line x1="0" y1="35.60000000000002" x2="248" y2="35.60000000000002" fill="rgb(0, 0, 0)" stroke="rgb(60, 60, 60)" stroke-width="1px" opacity="0.25"></line><line x1="0" y1="17.799999999999983" x2="248" y2="17.799999999999983" fill="rgb(0, 0, 0)" stroke="rgb(60, 60, 60)" stroke-width="1px" opacity="0.25"></line><line x1="0" y1="0" x2="248" y2="0" fill="rgb(0, 0, 0)" stroke="rgb(60, 60, 60)" stroke-width="1px" opacity="0.25"></line></g></g></g><g><g><line x1="0" y1="160.2" x2="248" y2="160.2" fill="rgb(0, 0, 0)" stroke="rgb(153, 153, 153)" stroke-width="1.5px"></line></g></g><g><g><line x1="20.666666666666664" y1="0" x2="20.666666666666664" y2="178" fill="rgb(0, 0, 0)" stroke="rgb(153, 153, 153)" stroke-width="1.5px"></line></g></g><g><g><g><g><g><path stroke="rgb(255, 112, 67)" stroke-width="2px" d="M23.76666666666667,-87.19714717725287L24.8,29.45411911215635L25.833333333333336,51.37039353004657L26.866666666666667,-16.756529903691245L27.900000000000002,44.456211662432196L28.933333333333334,40.27702631875874L29.96666666666667,74.39516154564917L31,63.912346495012756L32.03333333333334,74.8332748932764L33.06666666666666,38.53565915934743L34.1,109.65510410616407L35.13333333333333,101.09154424727895L36.16666666666667,55.904292939626615L37.199999999999996,44.10009239083158L38.233333333333334,25.274843110051023L39.266666666666666,112.85738656598842L40.300000000000004,96.22921524143312L41.33333333333333,104.16244968811516L42.36666666666667,100.75685274361167L43.4,114.98863678727066L44.43333333333334,116.02997191377217L45.46666666666666,133.8408229546214L46.5,113.74631515510846L47.53333333333334,125.62811608378543L48.56666666666666,113.54521856420907L49.6,129.59177719468715L50.63333333333333,133.17989060825784L51.66666666666667,131.73693377185845L52.699999999999996,126.04899461595342L53.733333333333334,140.1989157145319L54.766666666666666,126.29992420417257L55.800000000000004,92.96016932213679L56.83333333333333,121.58469174184138L57.86666666666667,129.48842982015339L58.9,116.66323401160771L59.93333333333334,97.99728778463323L60.96666666666666,137.43716038308338L62,120.6938075208338L63.03333333333333,114.9649425585405L64.06666666666668,143.4712123861711L65.10000000000001,144.2616826804762L66.13333333333333,129.52368623674846L67.16666666666666,123.73215039562201L68.2,132.13011615308932L69.23333333333333,139.9073743866349L70.26666666666667,137.69215664953225L71.3,138.97222618626546L72.33333333333334,133.56256308699375L73.36666666666667,118.90526236103615L74.39999999999999,115.89012156920508L75.43333333333332,136.680452260148L76.46666666666667,136.9798080210923L77.5,134.96572572850272L78.53333333333333,66.4811078329105L79.56666666666668,117.04615256323014L80.60000000000001,119.59071781322127L81.63333333333333,135.1904679811152L82.66666666666666,142.76309070711721L83.7,136.33242425359202L84.73333333333333,135.27049185514915L85.76666666666667,138.78379101671743L86.8,131.68211132298455L87.83333333333334,141.68774571745888L88.86666666666667,137.1717205890629L89.89999999999999,147.12545545964093L90.93333333333332,142.3863919714815L91.96666666666667,137.5158939933637L93,147.19523007417155L94.03333333333333,139.90575062936404L95.06666666666668,143.171897097741L96.10000000000001,132.52864414399954L97.13333333333333,131.41793589030857L98.16666666666666,140.20943533043027L99.2,141.8214490965649L100.23333333333333,144.5347960631945L101.26666666666667,137.86275962931103L102.3,139.07560270100947L103.33333333333334,134.4242342472309L104.36666666666667,149.9225101085496L105.39999999999999,145.01650316534796L106.43333333333332,125.99064943944104L107.46666666666667,141.19525673751485L108.5,145.6449733174988L109.53333333333333,138.61648411849745L110.56666666666668,141.67321932265185L111.60000000000001,138.60156918755382L112.63333333333333,147.8335876615485L113.66666666666666,138.64784384142257L114.7,143.55633094029616L115.73333333333333,147.38267366712097L116.76666666666667,140.74455481906188L117.8,135.53962759916902L118.83333333333334,131.64392793416044L119.86666666666667,146.22431631297803L120.89999999999999,144.59281098399077L121.93333333333332,151.11350206981587L122.96666666666667,146.6292041547742L124,146.12702848327461L125.03333333333333,139.34647228753892L126.06666666666666,149.22925803122342L127.1,139.34348541598882L128.13333333333335,144.96612621743697L129.16666666666669,140.5476981287531L130.20000000000002,144.17074417880502L131.23333333333335,137.76497641603345L132.26666666666665,123.56675380007364L133.29999999999998,143.87597800097427L134.33333333333331,128.65875946746672L135.36666666666665,145.78934363245497L136.4,133.0196404976188L137.43333333333334,125.8159506412223L138.46666666666667,130.44601922021246L139.5,143.3429355617729L140.53333333333333,147.88203730833192L141.56666666666666,146.67566741055924L142.6,144.88616871832636L143.63333333333335,144.84483494899467L144.66666666666669,142.13380786688066L145.70000000000002,146.63662195718206L146.73333333333335,151.09436180838674L147.76666666666665,141.66454849120345L148.79999999999998,147.07194917692976L149.83333333333331,149.34694805534963L150.86666666666665,124.76563061656198L151.9,-70.19796593366189L152.93333333333334,73.97113910857588L153.96666666666667,20.395722867501917L155,104.7572078548139L156.03333333333333,66.25357459571678L157.06666666666666,68.47215478930157L158.1,104.37219444585499L159.13333333333335,98.06019178514835L160.16666666666669,69.2205725224223L161.20000000000002,118.03797199692345L162.23333333333335,120.48831399598858L163.26666666666665,111.56421526694903L164.29999999999998,133.569100207492L165.33333333333331,120.62856582789682L166.36666666666665,106.32543683615513L167.4,93.95026948342566L168.43333333333334,110.55234413080616L169.46666666666667,143.77771235532708L170.5,126.4109678320121L171.53333333333333,120.02426262344234L172.56666666666666,115.32449389934773L173.6,113.05203993262258L174.63333333333335,146.0654730269336L175.66666666666669,125.63268138339045L176.70000000000002,139.5926973507041L177.73333333333335,132.64094403868074L178.76666666666665,89.52598906918429L179.79999999999998,136.9864536079287L180.83333333333331,142.5824230225L181.86666666666665,146.49642435844288L182.9,121.52685166230658L183.93333333333334,146.73438979090423L184.96666666666667,111.10010237618117L186,119.74056972550461L187.03333333333333,144.78789821597746L188.06666666666666,141.75389723251573L189.1,140.33670681757502L190.13333333333335,136.53918699648347L191.16666666666669,124.8970400135615L192.20000000000002,139.13566553102572L193.23333333333335,86.90747567899525L194.26666666666665,131.50703370203263L195.29999999999998,138.63748935338225L196.33333333333331,134.04151805817963L197.36666666666665,130.08523427717154L198.4,131.61325300617608L199.43333333333334,131.25840295262168L200.46666666666667,141.39298925303154L201.5,145.29662800643126L202.53333333333333,139.41454058086964L203.56666666666666,147.5647732692916L204.6,136.43510625999187L205.63333333333335,142.9700817149889L206.66666666666669,143.38819192718364L207.70000000000002,49.78914211252706L208.73333333333335,142.5063023177383L209.76666666666665,133.29991913425619L210.79999999999998,116.86890885331668L211.83333333333331,147.97978490579698L212.86666666666665,150.11362213018873L213.9,126.51154688657262L214.93333333333334,141.6836304722121L215.96666666666667,145.98046779584837L217,134.53613265457096L218.03333333333333,139.6968509377213L219.06666666666666,127.55233482468175L220.1,146.94122214652015L221.13333333333335,142.80094222132465L222.16666666666669,149.11478233417728L223.20000000000002,125.7548824739526L224.23333333333335,130.42953881241846L225.26666666666665,152.98126165336288L226.29999999999998,140.67571431015966" style="fill: none;" fill="none"></path></g></g></g></g></g></g><g transform="translate(82, 178)" clip-path="url(#clip_1)"><clipPath id="clip_1"><rect width="248" height="22"></rect></clipPath><g><g><line x1="0" y1="0" x2="0" y2="5" style="visibility: inherit;" fill="rgb(0, 0, 0)" stroke="rgb(204, 204, 204)" stroke-width="1px"></line><line x1="20.666666666666664" y1="0" x2="20.666666666666664" y2="5" style="visibility: inherit;" fill="rgb(0, 0, 0)" stroke="rgb(204, 204, 204)" stroke-width="1px"></line><line x1="41.33333333333333" y1="0" x2="41.33333333333333" y2="5" style="visibility: inherit;" fill="rgb(0, 0, 0)" stroke="rgb(204, 204, 204)" stroke-width="1px"></line><line x1="62" y1="0" x2="62" y2="5" style="visibility: inherit;" fill="rgb(0, 0, 0)" stroke="rgb(204, 204, 204)" stroke-width="1px"></line><line x1="82.66666666666666" y1="0" x2="82.66666666666666" y2="5" style="visibility: inherit;" fill="rgb(0, 0, 0)" stroke="rgb(204, 204, 204)" stroke-width="1px"></line><line x1="103.33333333333334" y1="0" x2="103.33333333333334" y2="5" style="visibility: inherit;" fill="rgb(0, 0, 0)" stroke="rgb(204, 204, 204)" stroke-width="1px"></line><line x1="124" y1="0" x2="124" y2="5" style="visibility: inherit;" fill="rgb(0, 0, 0)" stroke="rgb(204, 204, 204)" stroke-width="1px"></line><line x1="144.66666666666669" y1="0" x2="144.66666666666669" y2="5" style="visibility: inherit;" fill="rgb(0, 0, 0)" stroke="rgb(204, 204, 204)" stroke-width="1px"></line><line x1="165.33333333333331" y1="0" x2="165.33333333333331" y2="5" style="visibility: inherit;" fill="rgb(0, 0, 0)" stroke="rgb(204, 204, 204)" stroke-width="1px"></line><line x1="186" y1="0" x2="186" y2="5" style="visibility: inherit;" fill="rgb(0, 0, 0)" stroke="rgb(204, 204, 204)" stroke-width="1px"></line><line x1="206.66666666666669" y1="0" x2="206.66666666666669" y2="5" style="visibility: inherit;" fill="rgb(0, 0, 0)" stroke="rgb(204, 204, 204)" stroke-width="1px"></line><line x1="227.33333333333331" y1="0" x2="227.33333333333331" y2="5" style="visibility: inherit;" fill="rgb(0, 0, 0)" stroke="rgb(204, 204, 204)" stroke-width="1px"></line><line x1="248" y1="0" x2="248" y2="5" style="visibility: inherit;" fill="rgb(0, 0, 0)" stroke="rgb(204, 204, 204)" stroke-width="1px"></line></g><g transform="translate(0, 8)"><text x="0" y="0" dx="0em" dy="0.95em" style="text-anchor: middle; visibility: hidden; font-family: &quot;Helvetica Neue&quot;, sans-serif; font-size: 12px; font-weight: 200;" fill="rgb(50, 49, 63)" stroke="none" stroke-width="1px">-20</text><text x="20.666666666666664" y="0" dx="0em" dy="0.95em" style="text-anchor: middle; visibility: inherit; font-family: &quot;Helvetica Neue&quot;, sans-serif; font-size: 12px; font-weight: 200;" fill="rgb(50, 49, 63)" stroke="none" stroke-width="1px">0</text><text x="41.33333333333333" y="0" dx="0em" dy="0.95em" style="text-anchor: middle; visibility: hidden; font-family: &quot;Helvetica Neue&quot;, sans-serif; font-size: 12px; font-weight: 200;" fill="rgb(50, 49, 63)" stroke="none" stroke-width="1px">20</text><text x="62" y="0" dx="0em" dy="0.95em" style="text-anchor: middle; visibility: inherit; font-family: &quot;Helvetica Neue&quot;, sans-serif; font-size: 12px; font-weight: 200;" fill="rgb(50, 49, 63)" stroke="none" stroke-width="1px">40</text><text x="82.66666666666666" y="0" dx="0em" dy="0.95em" style="text-anchor: middle; visibility: hidden; font-family: &quot;Helvetica Neue&quot;, sans-serif; font-size: 12px; font-weight: 200;" fill="rgb(50, 49, 63)" stroke="none" stroke-width="1px">60</text><text x="103.33333333333334" y="0" dx="0em" dy="0.95em" style="text-anchor: middle; visibility: inherit; font-family: &quot;Helvetica Neue&quot;, sans-serif; font-size: 12px; font-weight: 200;" fill="rgb(50, 49, 63)" stroke="none" stroke-width="1px">80</text><text x="124" y="0" dx="0em" dy="0.95em" style="text-anchor: middle; visibility: hidden; font-family: &quot;Helvetica Neue&quot;, sans-serif; font-size: 12px; font-weight: 200;" fill="rgb(50, 49, 63)" stroke="none" stroke-width="1px">100</text><text x="144.66666666666669" y="0" dx="0em" dy="0.95em" style="text-anchor: middle; visibility: inherit; font-family: &quot;Helvetica Neue&quot;, sans-serif; font-size: 12px; font-weight: 200;" fill="rgb(50, 49, 63)" stroke="none" stroke-width="1px">120</text><text x="165.33333333333331" y="0" dx="0em" dy="0.95em" style="text-anchor: middle; visibility: hidden; font-family: &quot;Helvetica Neue&quot;, sans-serif; font-size: 12px; font-weight: 200;" fill="rgb(50, 49, 63)" stroke="none" stroke-width="1px">140</text><text x="186" y="0" dx="0em" dy="0.95em" style="text-anchor: middle; visibility: inherit; font-family: &quot;Helvetica Neue&quot;, sans-serif; font-size: 12px; font-weight: 200;" fill="rgb(50, 49, 63)" stroke="none" stroke-width="1px">160</text><text x="206.66666666666669" y="0" dx="0em" dy="0.95em" style="text-anchor: middle; visibility: hidden; font-family: &quot;Helvetica Neue&quot;, sans-serif; font-size: 12px; font-weight: 200;" fill="rgb(50, 49, 63)" stroke="none" stroke-width="1px">180</text><text x="227.33333333333331" y="0" dx="0em" dy="0.95em" style="text-anchor: middle; visibility: inherit; font-family: &quot;Helvetica Neue&quot;, sans-serif; font-size: 12px; font-weight: 200;" fill="rgb(50, 49, 63)" stroke="none" stroke-width="1px">200</text><text x="248" y="0" dx="0em" dy="0.95em" style="text-anchor: middle; visibility: hidden; font-family: &quot;Helvetica Neue&quot;, sans-serif; font-size: 12px; font-weight: 200;" fill="rgb(50, 49, 63)" stroke="none" stroke-width="1px">220</text></g><line x1="0" y1="0" x2="248" y2="0" fill="rgb(0, 0, 0)" stroke="rgb(204, 204, 204)" stroke-width="1px"></line></g></g></g></g></svg>