<svg viewBox="0 0 1498 400" xmlns="http://www.w3.org/2000/svg"><g><g><g><g><g><line x1="58" y1="378" x2="53" y2="378" style="visibility: inherit;" fill="rgb(0, 0, 0)" stroke="rgb(204, 204, 204)" stroke-width="1px"></line><line x1="58" y1="351" x2="53" y2="351" style="visibility: inherit;" fill="rgb(0, 0, 0)" stroke="rgb(204, 204, 204)" stroke-width="1px"></line><line x1="58" y1="324.0000000000001" x2="53" y2="324.0000000000001" style="visibility: inherit;" fill="rgb(0, 0, 0)" stroke="rgb(204, 204, 204)" stroke-width="1px"></line><line x1="58" y1="297.00000000000006" x2="53" y2="297.00000000000006" style="visibility: inherit;" fill="rgb(0, 0, 0)" stroke="rgb(204, 204, 204)" stroke-width="1px"></line><line x1="58" y1="270" x2="53" y2="270" style="visibility: inherit;" fill="rgb(0, 0, 0)" stroke="rgb(204, 204, 204)" stroke-width="1px"></line><line x1="58" y1="243" x2="53" y2="243" style="visibility: inherit;" fill="rgb(0, 0, 0)" stroke="rgb(204, 204, 204)" stroke-width="1px"></line><line x1="58" y1="215.99999999999997" x2="53" y2="215.99999999999997" style="visibility: inherit;" fill="rgb(0, 0, 0)" stroke="rgb(204, 204, 204)" stroke-width="1px"></line><line x1="58" y1="188.99999999999991" x2="53" y2="188.99999999999991" style="visibility: inherit;" fill="rgb(0, 0, 0)" stroke="rgb(204, 204, 204)" stroke-width="1px"></line><line x1="58" y1="162.00000000000006" x2="53" y2="162.00000000000006" style="visibility: inherit;" fill="rgb(0, 0, 0)" stroke="rgb(204, 204, 204)" stroke-width="1px"></line><line x1="58" y1="135.00000000000003" x2="53" y2="135.00000000000003" style="visibility: inherit;" fill="rgb(0, 0, 0)" stroke="rgb(204, 204, 204)" stroke-width="1px"></line><line x1="58" y1="108" x2="53" y2="108" style="visibility: inherit;" fill="rgb(0, 0, 0)" stroke="rgb(204, 204, 204)" stroke-width="1px"></line><line x1="58" y1="80.99999999999994" x2="53" y2="80.99999999999994" style="visibility: inherit;" fill="rgb(0, 0, 0)" stroke="rgb(204, 204, 204)" stroke-width="1px"></line><line x1="58" y1="53.99999999999994" x2="53" y2="53.99999999999994" style="visibility: inherit;" fill="rgb(0, 0, 0)" stroke="rgb(204, 204, 204)" stroke-width="1px"></line><line x1="58" y1="26.999999999999886" x2="53" y2="26.999999999999886" style="visibility: inherit;" fill="rgb(0, 0, 0)" stroke="rgb(204, 204, 204)" stroke-width="1px"></line><line x1="58" y1="0" x2="53" y2="0" style="visibility: inherit;" fill="rgb(0, 0, 0)" stroke="rgb(204, 204, 204)" stroke-width="1px"></line></g><g transform="translate(48, 0)"><text x="0" y="378" dx="0em" dy="0.3em" style="text-anchor: end; visibility: hidden; font-family: &quot;Helvetica Neue&quot;, sans-serif; font-size: 12px; font-weight: 200;" fill="rgb(50, 49, 63)" stroke="none" stroke-width="1px">0.54</text><text x="0" y="351" dx="0em" dy="0.3em" style="text-anchor: end; visibility: inherit; font-family: &quot;Helvetica Neue&quot;, sans-serif; font-size: 12px; font-weight: 200;" fill="rgb(50, 49, 63)" stroke="none" stroke-width="1px">0.56</text><text x="0" y="324.0000000000001" dx="0em" dy="0.3em" style="text-anchor: end; visibility: inherit; font-family: &quot;Helvetica Neue&quot;, sans-serif; font-size: 12px; font-weight: 200;" fill="rgb(50, 49, 63)" stroke="none" stroke-width="1px">0.58</text><text x="0" y="297.00000000000006" dx="0em" dy="0.3em" style="text-anchor: end; visibility: inherit; font-family: &quot;Helvetica Neue&quot;, sans-serif; font-size: 12px; font-weight: 200;" fill="rgb(50, 49, 63)" stroke="none" stroke-width="1px">0.6</text><text x="0" y="270" dx="0em" dy="0.3em" style="text-anchor: end; visibility: inherit; font-family: &quot;Helvetica Neue&quot;, sans-serif; font-size: 12px; font-weight: 200;" fill="rgb(50, 49, 63)" stroke="none" stroke-width="1px">0.62</text><text x="0" y="243" dx="0em" dy="0.3em" style="text-anchor: end; visibility: inherit; font-family: &quot;Helvetica Neue&quot;, sans-serif; font-size: 12px; font-weight: 200;" fill="rgb(50, 49, 63)" stroke="none" stroke-width="1px">0.64</text><text x="0" y="215.99999999999997" dx="0em" dy="0.3em" style="text-anchor: end; visibility: inherit; font-family: &quot;Helvetica Neue&quot;, sans-serif; font-size: 12px; font-weight: 200;" fill="rgb(50, 49, 63)" stroke="none" stroke-width="1px">0.66</text><text x="0" y="188.99999999999991" dx="0em" dy="0.3em" style="text-anchor: end; visibility: inherit; font-family: &quot;Helvetica Neue&quot;, sans-serif; font-size: 12px; font-weight: 200;" fill="rgb(50, 49, 63)" stroke="none" stroke-width="1px">0.68</text><text x="0" y="162.00000000000006" dx="0em" dy="0.3em" style="text-anchor: end; visibility: inherit; font-family: &quot;Helvetica Neue&quot;, sans-serif; font-size: 12px; font-weight: 200;" fill="rgb(50, 49, 63)" stroke="none" stroke-width="1px">0.7</text><text x="0" y="135.00000000000003" dx="0em" dy="0.3em" style="text-anchor: end; visibility: inherit; font-family: &quot;Helvetica Neue&quot;, sans-serif; font-size: 12px; font-weight: 200;" fill="rgb(50, 49, 63)" stroke="none" stroke-width="1px">0.72</text><text x="0" y="108" dx="0em" dy="0.3em" style="text-anchor: end; visibility: inherit; font-family: &quot;Helvetica Neue&quot;, sans-serif; font-size: 12px; font-weight: 200;" fill="rgb(50, 49, 63)" stroke="none" stroke-width="1px">0.74</text><text x="0" y="80.99999999999994" dx="0em" dy="0.3em" style="text-anchor: end; visibility: inherit; font-family: &quot;Helvetica Neue&quot;, sans-serif; font-size: 12px; font-weight: 200;" fill="rgb(50, 49, 63)" stroke="none" stroke-width="1px">0.76</text><text x="0" y="53.99999999999994" dx="0em" dy="0.3em" style="text-anchor: end; visibility: inherit; font-family: &quot;Helvetica Neue&quot;, sans-serif; font-size: 12px; font-weight: 200;" fill="rgb(50, 49, 63)" stroke="none" stroke-width="1px">0.78</text><text x="0" y="26.999999999999886" dx="0em" dy="0.3em" style="text-anchor: end; visibility: inherit; font-family: &quot;Helvetica Neue&quot;, sans-serif; font-size: 12px; font-weight: 200;" fill="rgb(50, 49, 63)" stroke="none" stroke-width="1px">0.8</text><text x="0" y="0" dx="0em" dy="0.3em" style="text-anchor: end; visibility: hidden; font-family: &quot;Helvetica Neue&quot;, sans-serif; font-size: 12px; font-weight: 200;" fill="rgb(50, 49, 63)" stroke="none" stroke-width="1px">0.82</text></g><line x1="58" y1="0" x2="58" y2="378" fill="rgb(0, 0, 0)" stroke="rgb(204, 204, 204)" stroke-width="1px"></line></g></g><g transform="translate(58, 0)" clip-path="url(#clip_0)"><clipPath id="clip_0"><rect width="1373" height="378"></rect></clipPath><g><g><g><line x1="0" y1="0" x2="0" y2="378" fill="rgb(0, 0, 0)" stroke="rgb(60, 60, 60)" stroke-width="1px" opacity="0.25"></line><line x1="114.41666666666666" y1="0" x2="114.41666666666666" y2="378" fill="rgb(0, 0, 0)" stroke="rgb(60, 60, 60)" stroke-width="1px" opacity="0.25"></line><line x1="228.83333333333331" y1="0" x2="228.83333333333331" y2="378" fill="rgb(0, 0, 0)" stroke="rgb(60, 60, 60)" stroke-width="1px" opacity="0.25"></line><line x1="343.25" y1="0" x2="343.25" y2="378" fill="rgb(0, 0, 0)" stroke="rgb(60, 60, 60)" stroke-width="1px" opacity="0.25"></line><line x1="457.66666666666663" y1="0" x2="457.66666666666663" y2="378" fill="rgb(0, 0, 0)" stroke="rgb(60, 60, 60)" stroke-width="1px" opacity="0.25"></line><line x1="572.0833333333334" y1="0" x2="572.0833333333334" y2="378" fill="rgb(0, 0, 0)" stroke="rgb(60, 60, 60)" stroke-width="1px" opacity="0.25"></line><line x1="686.5" y1="0" x2="686.5" y2="378" fill="rgb(0, 0, 0)" stroke="rgb(60, 60, 60)" stroke-width="1px" opacity="0.25"></line><line x1="800.9166666666667" y1="0" x2="800.9166666666667" y2="378" fill="rgb(0, 0, 0)" stroke="rgb(60, 60, 60)" stroke-width="1px" opacity="0.25"></line><line x1="915.3333333333333" y1="0" x2="915.3333333333333" y2="378" fill="rgb(0, 0, 0)" stroke="rgb(60, 60, 60)" stroke-width="1px" opacity="0.25"></line><line x1="1029.75" y1="0" x2="1029.75" y2="378" fill="rgb(0, 0, 0)" stroke="rgb(60, 60, 60)" stroke-width="1px" opacity="0.25"></line><line x1="1144.1666666666667" y1="0" x2="1144.1666666666667" y2="378" fill="rgb(0, 0, 0)" stroke="rgb(60, 60, 60)" stroke-width="1px" opacity="0.25"></line><line x1="1258.5833333333333" y1="0" x2="1258.5833333333333" y2="378" fill="rgb(0, 0, 0)" stroke="rgb(60, 60, 60)" stroke-width="1px" opacity="0.25"></line><line x1="1373" y1="0" x2="1373" y2="378" fill="rgb(0, 0, 0)" stroke="rgb(60, 60, 60)" stroke-width="1px" opacity="0.25"></line></g><g><line x1="0" y1="378" x2="1373" y2="378" fill="rgb(0, 0, 0)" stroke="rgb(60, 60, 60)" stroke-width="1px" opacity="0.25"></line><line x1="0" y1="351" x2="1373" y2="351" fill="rgb(0, 0, 0)" stroke="rgb(60, 60, 60)" stroke-width="1px" opacity="0.25"></line><line x1="0" y1="324.0000000000001" x2="1373" y2="324.0000000000001" fill="rgb(0, 0, 0)" stroke="rgb(60, 60, 60)" stroke-width="1px" opacity="0.25"></line><line x1="0" y1="297.00000000000006" x2="1373" y2="297.00000000000006" fill="rgb(0, 0, 0)" stroke="rgb(60, 60, 60)" stroke-width="1px" opacity="0.25"></line><line x1="0" y1="270" x2="1373" y2="270" fill="rgb(0, 0, 0)" stroke="rgb(60, 60, 60)" stroke-width="1px" opacity="0.25"></line><line x1="0" y1="243" x2="1373" y2="243" fill="rgb(0, 0, 0)" stroke="rgb(60, 60, 60)" stroke-width="1px" opacity="0.25"></line><line x1="0" y1="215.99999999999997" x2="1373" y2="215.99999999999997" fill="rgb(0, 0, 0)" stroke="rgb(60, 60, 60)" stroke-width="1px" opacity="0.25"></line><line x1="0" y1="188.99999999999991" x2="1373" y2="188.99999999999991" fill="rgb(0, 0, 0)" stroke="rgb(60, 60, 60)" stroke-width="1px" opacity="0.25"></line><line x1="0" y1="162.00000000000006" x2="1373" y2="162.00000000000006" fill="rgb(0, 0, 0)" stroke="rgb(60, 60, 60)" stroke-width="1px" opacity="0.25"></line><line x1="0" y1="135.00000000000003" x2="1373" y2="135.00000000000003" fill="rgb(0, 0, 0)" stroke="rgb(60, 60, 60)" stroke-width="1px" opacity="0.25"></line><line x1="0" y1="108" x2="1373" y2="108" fill="rgb(0, 0, 0)" stroke="rgb(60, 60, 60)" stroke-width="1px" opacity="0.25"></line><line x1="0" y1="80.99999999999994" x2="1373" y2="80.99999999999994" fill="rgb(0, 0, 0)" stroke="rgb(60, 60, 60)" stroke-width="1px" opacity="0.25"></line><line x1="0" y1="53.99999999999994" x2="1373" y2="53.99999999999994" fill="rgb(0, 0, 0)" stroke="rgb(60, 60, 60)" stroke-width="1px" opacity="0.25"></line><line x1="0" y1="26.999999999999886" x2="1373" y2="26.999999999999886" fill="rgb(0, 0, 0)" stroke="rgb(60, 60, 60)" stroke-width="1px" opacity="0.25"></line><line x1="0" y1="0" x2="1373" y2="0" fill="rgb(0, 0, 0)" stroke="rgb(60, 60, 60)" stroke-width="1px" opacity="0.25"></line></g></g></g><g><g><line x1="0" y1="1107.0000000000002" x2="1373" y2="1107.0000000000002" fill="rgb(0, 0, 0)" stroke="rgb(153, 153, 153)" stroke-width="1.5px"></line></g></g><g><g><line x1="114.41666666666666" y1="0" x2="114.41666666666666" y2="378" fill="rgb(0, 0, 0)" stroke="rgb(153, 153, 153)" stroke-width="1.5px"></line></g></g><g><g><g><g><g><path stroke="rgb(255, 112, 67)" stroke-width="2px" d="M114.41666666666666,374.0658946037293L120.13749999999999,576.161680340767L125.85833333333332,562.6886091828347L131.57916666666668,282.4490911960602L137.3,347.11975228786474L143.02083333333334,325.56283843517303L148.74166666666667,312.089807510376L154.4625,352.50898075103765L160.18333333333334,298.6167765855789L165.90416666666667,551.9101924896241L171.625,263.5868318080902L177.34583333333336,242.02991795539856L183.06666666666666,433.3472869992257L188.78750000000002,290.5329741239548L194.50833333333333,309.39523351192474L200.22916666666669,50.71258914470667L205.95,233.9461154937744L211.67083333333335,242.02991795539856L217.39166666666665,239.33534395694733L223.1125,72.26942253112787L228.83333333333331,166.5807999372482L234.55416666666667,212.38920164108276L240.27499999999998,131.55093562602994L245.99583333333334,263.5868318080902L251.71666666666664,101.91021931171412L257.4375,93.82633638381952L263.15833333333336,215.08385610580444L268.87916666666666,196.22159671783447L274.6,274.36528873443604L280.3208333333333,150.4131950139999L286.0416666666667,411.79041337966925L291.7625,228.5568870306015L297.48333333333335,198.9161707162857L303.20416666666665,438.7365154623986L308.925,206.99997317790985L314.6458333333333,29.15567529201502L320.3666666666667,101.91021931171412L326.0875,174.6646828651428L331.80833333333334,196.22159671783447L337.52916666666664,74.96407699584955L343.25,263.5868318080902L348.9708333333333,220.47308456897736L354.6916666666667,93.82633638381952L360.4125,196.22159671783447L366.1333333333333,384.84435153007513L371.85416666666663,58.796391606330815L377.57500000000005,242.02991795539856L383.29583333333335,53.4071631431579L389.01666666666665,169.27545440196988L394.73749999999995,177.35925686359406L400.45833333333337,107.29936730861658L406.1791666666667,109.99402177333826L411.9,174.6646828651428L417.6208333333333,145.02396655082703L423.3416666666667,53.4071631431579L429.0625,69.57484853267664L434.7833333333333,147.71854054927823L440.5041666666667,74.96407699584955L446.225,99.21556484699244L451.9458333333333,107.29936730861658L457.66666666666663,161.19165194034576L463.38750000000005,101.91021931171412L469.10833333333335,139.63473808765409L474.82916666666665,196.22159671783447L480.54999999999995,118.07782423496246L486.27083333333337,109.99402177333826L491.9916666666667,198.9161707162857L497.7125,158.49699747562408L503.4333333333333,161.19165194034576L509.1541666666667,153.10776901245114L514.875,96.5209908485412L520.5958333333333,93.82633638381952L526.3166666666667,104.6047933101654L532.0375,325.56283843517303L537.7583333333333,128.85628116130826L543.4791666666666,215.08385610580444L549.2,134.24550962448117L554.9208333333333,64.18562006950373L560.6416666666667,158.49699747562408L566.3625,134.24550962448117L572.0833333333334,163.886225938797L577.8041666666667,61.491046071052494L583.525,64.18562006950373L589.2458333333333,118.07782423496246L594.9666666666667,120.77247869968414L600.6875,209.69462764263153L606.4083333333333,96.5209908485412L612.1291666666667,271.67063426971436L617.85,185.44313979148865L623.5708333333333,118.07782423496246L629.2916666666666,120.77247869968414L635.0125,142.32931208610535L640.7333333333333,77.65865099430079L646.4541666666667,112.6885957717895L652.175,88.43710792064661L657.8958333333334,228.5568870306015L663.6166666666667,115.38325023651117L669.3375,74.96407699584955L675.0583333333333,99.21556484699244L680.7791666666667,66.8802745342254L686.5,96.5209908485412L692.2208333333333,145.02396655082703L697.9416666666666,147.71854054927823L703.6624999999999,50.71258914470667L709.3833333333334,282.4490911960602L715.1041666666667,112.6885957717895L720.825,45.32336068153376L726.5458333333333,182.74848532676697L732.2666666666667,142.32931208610535L737.9875,150.4131950139999L743.7083333333333,109.99402177333826L749.4291666666666,107.29936730861658L755.1500000000001,53.4071631431579L760.8708333333334,136.9400836229324L766.5916666666667,155.80242347717282L772.3125,66.8802745342254L778.0333333333333,107.29936730861658L783.7541666666666,118.07782423496246L789.4749999999999,115.38325023651117L795.1958333333334,118.07782423496246L800.9166666666667,155.80242347717282L806.6375,139.63473808765409L812.3583333333333,180.05391132831573L818.0791666666667,123.46705269813538L823.8,91.13176238536829L829.5208333333333,126.16170716285706L835.2416666666666,101.91021931171412L840.9625000000001,96.5209908485412L846.6833333333334,120.77247869968414L852.4041666666667,180.05391132831573L858.125,120.77247869968414L863.8458333333333,126.16170716285706L869.5666666666666,126.16170716285706L875.2874999999999,145.02396655082703L881.0083333333334,118.07782423496246L886.7291666666667,112.6885957717895L892.45,83.04787945747375L898.1708333333333,142.32931208610535L903.8916666666667,107.29936730861658L909.6125,109.99402177333826L915.3333333333333,139.63473808765409L921.0541666666666,93.82633638381952L926.7750000000001,120.77247869968414L932.4958333333334,80.35330545902247L938.2166666666667,126.16170716285706L943.9375,118.07782423496246L949.6583333333333,115.38325023651117L955.3791666666666,166.5807999372482L961.0999999999999,145.02396655082703L966.8208333333334,80.35330545902247L972.5416666666667,104.6047933101654L978.2625,109.99402177333826L983.9833333333333,83.04787945747375L989.7041666666667,112.6885957717895L995.425,112.6885957717895L1001.1458333333333,115.38325023651117L1006.8666666666666,66.8802745342254L1012.5875000000001,53.4071631431579L1018.3083333333334,142.32931208610535L1024.0291666666667,109.99402177333826L1029.75,77.65865099430079L1035.4708333333333,104.6047933101654L1041.1916666666666,126.16170716285706L1046.9125,128.85628116130826L1052.6333333333334,153.10776901245114L1058.3541666666667,93.82633638381952L1064.075,93.82633638381952L1069.7958333333333,139.63473808765409L1075.5166666666667,150.4131950139999L1081.2375,107.29936730861658L1086.9583333333333,91.13176238536829L1092.6791666666666,99.21556484699244L1098.4,182.74848532676697L1104.1208333333334,145.02396655082703L1109.8416666666667,120.77247869968414L1115.5625,74.96407699584955L1121.2833333333333,209.69462764263153L1127.0041666666666,85.74253392219543L1132.725,128.85628116130826L1138.4458333333334,104.6047933101654L1144.1666666666667,163.886225938797L1149.8875,109.99402177333826L1155.6083333333333,112.6885957717895L1161.3291666666667,85.74253392219543L1167.05,72.26942253112787L1172.7708333333333,131.55093562602994L1178.4916666666666,123.46705269813538L1184.2125,112.6885957717895L1189.9333333333334,204.30539917945862L1195.6541666666667,109.99402177333826L1201.375,134.24550962448117L1207.0958333333333,128.85628116130826L1212.8166666666666,136.9400836229324L1218.5375,153.10776901245114L1224.2583333333334,139.63473808765409L1229.9791666666667,115.38325023651117L1235.7,131.55093562602994L1241.4208333333333,145.02396655082703L1247.1416666666667,109.99402177333826L1252.8625,139.63473808765409" style="fill: none;" fill="none"></path></g></g></g></g></g></g><g transform="translate(58, 378)" clip-path="url(#clip_1)"><clipPath id="clip_1"><rect width="1373" height="22"></rect></clipPath><g><g><line x1="0" y1="0" x2="0" y2="5" style="visibility: inherit;" fill="rgb(0, 0, 0)" stroke="rgb(204, 204, 204)" stroke-width="1px"></line><line x1="114.41666666666666" y1="0" x2="114.41666666666666" y2="5" style="visibility: inherit;" fill="rgb(0, 0, 0)" stroke="rgb(204, 204, 204)" stroke-width="1px"></line><line x1="228.83333333333331" y1="0" x2="228.83333333333331" y2="5" style="visibility: inherit;" fill="rgb(0, 0, 0)" stroke="rgb(204, 204, 204)" stroke-width="1px"></line><line x1="343.25" y1="0" x2="343.25" y2="5" style="visibility: inherit;" fill="rgb(0, 0, 0)" stroke="rgb(204, 204, 204)" stroke-width="1px"></line><line x1="457.66666666666663" y1="0" x2="457.66666666666663" y2="5" style="visibility: inherit;" fill="rgb(0, 0, 0)" stroke="rgb(204, 204, 204)" stroke-width="1px"></line><line x1="572.0833333333334" y1="0" x2="572.0833333333334" y2="5" style="visibility: inherit;" fill="rgb(0, 0, 0)" stroke="rgb(204, 204, 204)" stroke-width="1px"></line><line x1="686.5" y1="0" x2="686.5" y2="5" style="visibility: inherit;" fill="rgb(0, 0, 0)" stroke="rgb(204, 204, 204)" stroke-width="1px"></line><line x1="800.9166666666667" y1="0" x2="800.9166666666667" y2="5" style="visibility: inherit;" fill="rgb(0, 0, 0)" stroke="rgb(204, 204, 204)" stroke-width="1px"></line><line x1="915.3333333333333" y1="0" x2="915.3333333333333" y2="5" style="visibility: inherit;" fill="rgb(0, 0, 0)" stroke="rgb(204, 204, 204)" stroke-width="1px"></line><line x1="1029.75" y1="0" x2="1029.75" y2="5" style="visibility: inherit;" fill="rgb(0, 0, 0)" stroke="rgb(204, 204, 204)" stroke-width="1px"></line><line x1="1144.1666666666667" y1="0" x2="1144.1666666666667" y2="5" style="visibility: inherit;" fill="rgb(0, 0, 0)" stroke="rgb(204, 204, 204)" stroke-width="1px"></line><line x1="1258.5833333333333" y1="0" x2="1258.5833333333333" y2="5" style="visibility: inherit;" fill="rgb(0, 0, 0)" stroke="rgb(204, 204, 204)" stroke-width="1px"></line><line x1="1373" y1="0" x2="1373" y2="5" style="visibility: inherit;" fill="rgb(0, 0, 0)" stroke="rgb(204, 204, 204)" stroke-width="1px"></line></g><g transform="translate(0, 8)"><text x="0" y="0" dx="0em" dy="0.95em" style="text-anchor: middle; visibility: hidden; font-family: &quot;Helvetica Neue&quot;, sans-serif; font-size: 12px; font-weight: 200;" fill="rgb(50, 49, 63)" stroke="none" stroke-width="1px">-20</text><text x="114.41666666666666" y="0" dx="0em" dy="0.95em" style="text-anchor: middle; visibility: inherit; font-family: &quot;Helvetica Neue&quot;, sans-serif; font-size: 12px; font-weight: 200;" fill="rgb(50, 49, 63)" stroke="none" stroke-width="1px">0</text><text x="228.83333333333331" y="0" dx="0em" dy="0.95em" style="text-anchor: middle; visibility: inherit; font-family: &quot;Helvetica Neue&quot;, sans-serif; font-size: 12px; font-weight: 200;" fill="rgb(50, 49, 63)" stroke="none" stroke-width="1px">20</text><text x="343.25" y="0" dx="0em" dy="0.95em" style="text-anchor: middle; visibility: inherit; font-family: &quot;Helvetica Neue&quot;, sans-serif; font-size: 12px; font-weight: 200;" fill="rgb(50, 49, 63)" stroke="none" stroke-width="1px">40</text><text x="457.66666666666663" y="0" dx="0em" dy="0.95em" style="text-anchor: middle; visibility: inherit; font-family: &quot;Helvetica Neue&quot;, sans-serif; font-size: 12px; font-weight: 200;" fill="rgb(50, 49, 63)" stroke="none" stroke-width="1px">60</text><text x="572.0833333333334" y="0" dx="0em" dy="0.95em" style="text-anchor: middle; visibility: inherit; font-family: &quot;Helvetica Neue&quot;, sans-serif; font-size: 12px; font-weight: 200;" fill="rgb(50, 49, 63)" stroke="none" stroke-width="1px">80</text><text x="686.5" y="0" dx="0em" dy="0.95em" style="text-anchor: middle; visibility: inherit; font-family: &quot;Helvetica Neue&quot;, sans-serif; font-size: 12px; font-weight: 200;" fill="rgb(50, 49, 63)" stroke="none" stroke-width="1px">100</text><text x="800.9166666666667" y="0" dx="0em" dy="0.95em" style="text-anchor: middle; visibility: inherit; font-family: &quot;Helvetica Neue&quot;, sans-serif; font-size: 12px; font-weight: 200;" fill="rgb(50, 49, 63)" stroke="none" stroke-width="1px">120</text><text x="915.3333333333333" y="0" dx="0em" dy="0.95em" style="text-anchor: middle; visibility: inherit; font-family: &quot;Helvetica Neue&quot;, sans-serif; font-size: 12px; font-weight: 200;" fill="rgb(50, 49, 63)" stroke="none" stroke-width="1px">140</text><text x="1029.75" y="0" dx="0em" dy="0.95em" style="text-anchor: middle; visibility: inherit; font-family: &quot;Helvetica Neue&quot;, sans-serif; font-size: 12px; font-weight: 200;" fill="rgb(50, 49, 63)" stroke="none" stroke-width="1px">160</text><text x="1144.1666666666667" y="0" dx="0em" dy="0.95em" style="text-anchor: middle; visibility: inherit; font-family: &quot;Helvetica Neue&quot;, sans-serif; font-size: 12px; font-weight: 200;" fill="rgb(50, 49, 63)" stroke="none" stroke-width="1px">180</text><text x="1258.5833333333333" y="0" dx="0em" dy="0.95em" style="text-anchor: middle; visibility: inherit; font-family: &quot;Helvetica Neue&quot;, sans-serif; font-size: 12px; font-weight: 200;" fill="rgb(50, 49, 63)" stroke="none" stroke-width="1px">200</text><text x="1373" y="0" dx="0em" dy="0.95em" style="text-anchor: middle; visibility: hidden; font-family: &quot;Helvetica Neue&quot;, sans-serif; font-size: 12px; font-weight: 200;" fill="rgb(50, 49, 63)" stroke="none" stroke-width="1px">220</text></g><line x1="0" y1="0" x2="1373" y2="0" fill="rgb(0, 0, 0)" stroke="rgb(204, 204, 204)" stroke-width="1px"></line></g></g></g></g></svg>