<svg viewBox="0 0 1498 400" xmlns="http://www.w3.org/2000/svg"><g><g><g><g><g><line x1="82" y1="378" x2="77" y2="378" style="visibility: inherit;" fill="rgb(0, 0, 0)" stroke="rgb(204, 204, 204)" stroke-width="1px"></line><line x1="82" y1="346.5" x2="77" y2="346.5" style="visibility: inherit;" fill="rgb(0, 0, 0)" stroke="rgb(204, 204, 204)" stroke-width="1px"></line><line x1="82" y1="315" x2="77" y2="315" style="visibility: inherit;" fill="rgb(0, 0, 0)" stroke="rgb(204, 204, 204)" stroke-width="1px"></line><line x1="82" y1="283.5" x2="77" y2="283.5" style="visibility: inherit;" fill="rgb(0, 0, 0)" stroke="rgb(204, 204, 204)" stroke-width="1px"></line><line x1="82" y1="252.00000000000003" x2="77" y2="252.00000000000003" style="visibility: inherit;" fill="rgb(0, 0, 0)" stroke="rgb(204, 204, 204)" stroke-width="1px"></line><line x1="82" y1="220.5" x2="77" y2="220.5" style="visibility: inherit;" fill="rgb(0, 0, 0)" stroke="rgb(204, 204, 204)" stroke-width="1px"></line><line x1="82" y1="189" x2="77" y2="189" style="visibility: inherit;" fill="rgb(0, 0, 0)" stroke="rgb(204, 204, 204)" stroke-width="1px"></line><line x1="82" y1="157.50000000000003" x2="77" y2="157.50000000000003" style="visibility: inherit;" fill="rgb(0, 0, 0)" stroke="rgb(204, 204, 204)" stroke-width="1px"></line><line x1="82" y1="126" x2="77" y2="126" style="visibility: inherit;" fill="rgb(0, 0, 0)" stroke="rgb(204, 204, 204)" stroke-width="1px"></line><line x1="82" y1="94.5" x2="77" y2="94.5" style="visibility: inherit;" fill="rgb(0, 0, 0)" stroke="rgb(204, 204, 204)" stroke-width="1px"></line><line x1="82" y1="63" x2="77" y2="63" style="visibility: inherit;" fill="rgb(0, 0, 0)" stroke="rgb(204, 204, 204)" stroke-width="1px"></line><line x1="82" y1="31.5" x2="77" y2="31.5" style="visibility: inherit;" fill="rgb(0, 0, 0)" stroke="rgb(204, 204, 204)" stroke-width="1px"></line><line x1="82" y1="0" x2="77" y2="0" style="visibility: inherit;" fill="rgb(0, 0, 0)" stroke="rgb(204, 204, 204)" stroke-width="1px"></line></g><g transform="translate(72, 0)"><text x="0" y="378" dx="0em" dy="0.3em" style="text-anchor: end; visibility: hidden; font-family: &quot;Helvetica Neue&quot;, sans-serif; font-size: 12px; font-weight: 200;" fill="rgb(50, 49, 63)" stroke="none" stroke-width="1px">-1e-4</text><text x="0" y="346.5" dx="0em" dy="0.3em" style="text-anchor: end; visibility: inherit; font-family: &quot;Helvetica Neue&quot;, sans-serif; font-size: 12px; font-weight: 200;" fill="rgb(50, 49, 63)" stroke="none" stroke-width="1px">0</text><text x="0" y="315" dx="0em" dy="0.3em" style="text-anchor: end; visibility: inherit; font-family: &quot;Helvetica Neue&quot;, sans-serif; font-size: 12px; font-weight: 200;" fill="rgb(50, 49, 63)" stroke="none" stroke-width="1px">1e-4</text><text x="0" y="283.5" dx="0em" dy="0.3em" style="text-anchor: end; visibility: inherit; font-family: &quot;Helvetica Neue&quot;, sans-serif; font-size: 12px; font-weight: 200;" fill="rgb(50, 49, 63)" stroke="none" stroke-width="1px">2e-4</text><text x="0" y="252.00000000000003" dx="0em" dy="0.3em" style="text-anchor: end; visibility: inherit; font-family: &quot;Helvetica Neue&quot;, sans-serif; font-size: 12px; font-weight: 200;" fill="rgb(50, 49, 63)" stroke="none" stroke-width="1px">3e-4</text><text x="0" y="220.5" dx="0em" dy="0.3em" style="text-anchor: end; visibility: inherit; font-family: &quot;Helvetica Neue&quot;, sans-serif; font-size: 12px; font-weight: 200;" fill="rgb(50, 49, 63)" stroke="none" stroke-width="1px">4e-4</text><text x="0" y="189" dx="0em" dy="0.3em" style="text-anchor: end; visibility: inherit; font-family: &quot;Helvetica Neue&quot;, sans-serif; font-size: 12px; font-weight: 200;" fill="rgb(50, 49, 63)" stroke="none" stroke-width="1px">5e-4</text><text x="0" y="157.50000000000003" dx="0em" dy="0.3em" style="text-anchor: end; visibility: inherit; font-family: &quot;Helvetica Neue&quot;, sans-serif; font-size: 12px; font-weight: 200;" fill="rgb(50, 49, 63)" stroke="none" stroke-width="1px">6e-4</text><text x="0" y="126" dx="0em" dy="0.3em" style="text-anchor: end; visibility: inherit; font-family: &quot;Helvetica Neue&quot;, sans-serif; font-size: 12px; font-weight: 200;" fill="rgb(50, 49, 63)" stroke="none" stroke-width="1px">7e-4</text><text x="0" y="94.5" dx="0em" dy="0.3em" style="text-anchor: end; visibility: inherit; font-family: &quot;Helvetica Neue&quot;, sans-serif; font-size: 12px; font-weight: 200;" fill="rgb(50, 49, 63)" stroke="none" stroke-width="1px">8e-4</text><text x="0" y="63" dx="0em" dy="0.3em" style="text-anchor: end; visibility: inherit; font-family: &quot;Helvetica Neue&quot;, sans-serif; font-size: 12px; font-weight: 200;" fill="rgb(50, 49, 63)" stroke="none" stroke-width="1px">9e-4</text><text x="0" y="31.5" dx="0em" dy="0.3em" style="text-anchor: end; visibility: inherit; font-family: &quot;Helvetica Neue&quot;, sans-serif; font-size: 12px; font-weight: 200;" fill="rgb(50, 49, 63)" stroke="none" stroke-width="1px">1e-3</text><text x="0" y="0" dx="0em" dy="0.3em" style="text-anchor: end; visibility: hidden; font-family: &quot;Helvetica Neue&quot;, sans-serif; font-size: 12px; font-weight: 200;" fill="rgb(50, 49, 63)" stroke="none" stroke-width="1px">1.1e-3</text></g><line x1="82" y1="0" x2="82" y2="378" fill="rgb(0, 0, 0)" stroke="rgb(204, 204, 204)" stroke-width="1px"></line></g></g><g transform="translate(82, 0)" clip-path="url(#clip_0)"><clipPath id="clip_0"><rect width="1416" height="378"></rect></clipPath><g><g><g><line x1="0" y1="0" x2="0" y2="378" fill="rgb(0, 0, 0)" stroke="rgb(60, 60, 60)" stroke-width="1px" opacity="0.25"></line><line x1="118" y1="0" x2="118" y2="378" fill="rgb(0, 0, 0)" stroke="rgb(60, 60, 60)" stroke-width="1px" opacity="0.25"></line><line x1="236" y1="0" x2="236" y2="378" fill="rgb(0, 0, 0)" stroke="rgb(60, 60, 60)" stroke-width="1px" opacity="0.25"></line><line x1="354" y1="0" x2="354" y2="378" fill="rgb(0, 0, 0)" stroke="rgb(60, 60, 60)" stroke-width="1px" opacity="0.25"></line><line x1="472" y1="0" x2="472" y2="378" fill="rgb(0, 0, 0)" stroke="rgb(60, 60, 60)" stroke-width="1px" opacity="0.25"></line><line x1="590" y1="0" x2="590" y2="378" fill="rgb(0, 0, 0)" stroke="rgb(60, 60, 60)" stroke-width="1px" opacity="0.25"></line><line x1="708" y1="0" x2="708" y2="378" fill="rgb(0, 0, 0)" stroke="rgb(60, 60, 60)" stroke-width="1px" opacity="0.25"></line><line x1="826" y1="0" x2="826" y2="378" fill="rgb(0, 0, 0)" stroke="rgb(60, 60, 60)" stroke-width="1px" opacity="0.25"></line><line x1="944" y1="0" x2="944" y2="378" fill="rgb(0, 0, 0)" stroke="rgb(60, 60, 60)" stroke-width="1px" opacity="0.25"></line><line x1="1062" y1="0" x2="1062" y2="378" fill="rgb(0, 0, 0)" stroke="rgb(60, 60, 60)" stroke-width="1px" opacity="0.25"></line><line x1="1180" y1="0" x2="1180" y2="378" fill="rgb(0, 0, 0)" stroke="rgb(60, 60, 60)" stroke-width="1px" opacity="0.25"></line><line x1="1298" y1="0" x2="1298" y2="378" fill="rgb(0, 0, 0)" stroke="rgb(60, 60, 60)" stroke-width="1px" opacity="0.25"></line><line x1="1416" y1="0" x2="1416" y2="378" fill="rgb(0, 0, 0)" stroke="rgb(60, 60, 60)" stroke-width="1px" opacity="0.25"></line></g><g><line x1="0" y1="378" x2="1416" y2="378" fill="rgb(0, 0, 0)" stroke="rgb(60, 60, 60)" stroke-width="1px" opacity="0.25"></line><line x1="0" y1="346.5" x2="1416" y2="346.5" fill="rgb(0, 0, 0)" stroke="rgb(60, 60, 60)" stroke-width="1px" opacity="0.25"></line><line x1="0" y1="315" x2="1416" y2="315" fill="rgb(0, 0, 0)" stroke="rgb(60, 60, 60)" stroke-width="1px" opacity="0.25"></line><line x1="0" y1="283.5" x2="1416" y2="283.5" fill="rgb(0, 0, 0)" stroke="rgb(60, 60, 60)" stroke-width="1px" opacity="0.25"></line><line x1="0" y1="252.00000000000003" x2="1416" y2="252.00000000000003" fill="rgb(0, 0, 0)" stroke="rgb(60, 60, 60)" stroke-width="1px" opacity="0.25"></line><line x1="0" y1="220.5" x2="1416" y2="220.5" fill="rgb(0, 0, 0)" stroke="rgb(60, 60, 60)" stroke-width="1px" opacity="0.25"></line><line x1="0" y1="189" x2="1416" y2="189" fill="rgb(0, 0, 0)" stroke="rgb(60, 60, 60)" stroke-width="1px" opacity="0.25"></line><line x1="0" y1="157.50000000000003" x2="1416" y2="157.50000000000003" fill="rgb(0, 0, 0)" stroke="rgb(60, 60, 60)" stroke-width="1px" opacity="0.25"></line><line x1="0" y1="126" x2="1416" y2="126" fill="rgb(0, 0, 0)" stroke="rgb(60, 60, 60)" stroke-width="1px" opacity="0.25"></line><line x1="0" y1="94.5" x2="1416" y2="94.5" fill="rgb(0, 0, 0)" stroke="rgb(60, 60, 60)" stroke-width="1px" opacity="0.25"></line><line x1="0" y1="63" x2="1416" y2="63" fill="rgb(0, 0, 0)" stroke="rgb(60, 60, 60)" stroke-width="1px" opacity="0.25"></line><line x1="0" y1="31.5" x2="1416" y2="31.5" fill="rgb(0, 0, 0)" stroke="rgb(60, 60, 60)" stroke-width="1px" opacity="0.25"></line><line x1="0" y1="0" x2="1416" y2="0" fill="rgb(0, 0, 0)" stroke="rgb(60, 60, 60)" stroke-width="1px" opacity="0.25"></line></g></g></g><g><g><line x1="0" y1="346.5" x2="1416" y2="346.5" fill="rgb(0, 0, 0)" stroke="rgb(153, 153, 153)" stroke-width="1.5px"></line></g></g><g><g><line x1="118" y1="0" x2="118" y2="378" fill="rgb(0, 0, 0)" stroke="rgb(153, 153, 153)" stroke-width="1.5px"></line></g></g><g><g><g><g><g><path stroke="rgb(255, 112, 67)" stroke-width="2px" d="M118,31.49998503830284L123.89999999999999,31.49998503830284L129.79999999999998,31.49998503830284L135.70000000000002,31.49998503830284L141.6,31.49998503830284L147.5,31.49998503830284L153.4,31.49998503830284L159.3,31.49998503830284L165.2,31.49998503830284L171.1,78.749996450264L177,78.749996450264L182.9,78.749996450264L188.8,78.749996450264L194.70000000000002,78.749996450264L200.6,78.749996450264L206.5,78.749996450264L212.4,78.749996450264L218.3,78.749996450264L224.2,78.749996450264L230.1,118.91250890074298L236,118.91250890074298L241.9,118.91250890074298L247.79999999999998,118.91250890074298L253.7,118.91250890074298L259.59999999999997,118.91250890074298L265.5,118.91250890074298L271.40000000000003,118.91250890074298L277.3,118.91250890074298L283.2,118.91250890074298L289.1,153.05062798177823L295,153.05062798177823L300.9,153.05062798177823L306.8,153.05062798177823L312.7,153.05062798177823L318.6,153.05062798177823L324.5,153.05062798177823L330.4,153.05062798177823L336.3,153.05062798177823L342.2,153.05062798177823L348.09999999999997,182.06803286774084L354,182.06803286774084L359.9,182.06803286774084L365.8,182.06803286774084L371.7,182.06803286774084L377.6,182.06803286774084L383.5,182.06803286774084L389.40000000000003,182.06803286774084L395.3,182.06803286774084L401.2,182.06803286774084L407.09999999999997,206.7328306878917L413,206.7328306878917L418.9,206.7328306878917L424.8,206.7328306878917L430.7,206.7328306878917L436.6,206.7328306878917L442.5,206.7328306878917L448.4,206.7328306878917L454.3,206.7328306878917L460.2,206.7328306878917L466.1,227.69789966731335L472,227.69789966731335L477.90000000000003,227.69789966731335L483.8,227.69789966731335L489.7,227.69789966731335L495.59999999999997,227.69789966731335L501.5,227.69789966731335L507.4,227.69789966731335L513.3,227.69789966731335L519.1999999999999,227.69789966731335L525.1,245.51821609237234L531,245.51821609237234L536.9,245.51821609237234L542.8000000000001,245.51821609237234L548.7,245.51821609237234L554.6,245.51821609237234L560.5,245.51821609237234L566.4,245.51821609237234L572.3,245.51821609237234L578.2,245.51821609237234L584.1,260.6654859704431L590,260.6654859704431L595.9,260.6654859704431L601.8,260.6654859704431L607.6999999999999,260.6654859704431L613.6,260.6654859704431L619.5,260.6654859704431L625.4,260.6654859704431L631.3000000000001,260.6654859704431L637.2,260.6654859704431L643.1,273.540663533262L649,273.540663533262L654.9,273.540663533262L660.8,273.540663533262L666.7,273.540663533262L672.6,273.540663533262L678.5,273.540663533262L684.4,273.540663533262L690.3,273.540663533262L696.1999999999999,273.540663533262L702.1,284.48456285730936L708,284.48456285730936L713.9,284.48456285730936L719.8,284.48456285730936L725.6999999999999,284.48456285730936L731.6,284.48456285730936L737.5,284.48456285730936L743.4,284.48456285730936L749.3,284.48456285730936L755.2,284.48456285730936L761.1,293.7868788870983L767,293.7868788870983L772.9,293.7868788870983L778.8000000000001,293.7868788870983L784.7,293.7868788870983L790.6,293.7868788870983L796.5,293.7868788870983L802.4,293.7868788870983L808.3,293.7868788870983L814.1999999999999,293.7868788870983L820.1,301.69384705403354L826,301.69384705403354L831.9,301.69384705403354L837.8,301.69384705403354L843.7,301.69384705403354L849.6,301.69384705403354L855.5,301.69384705403354L861.4,301.69384705403354L867.3000000000001,301.69384705403354L873.2,301.69384705403354L879.1,308.41476839157986L885,308.41476839157986L890.9,308.41476839157986L896.8,308.41476839157986L902.6999999999999,308.41476839157986L908.6,308.41476839157986L914.5,308.41476839157986L920.4,308.41476839157986L926.3,308.41476839157986L932.2,308.41476839157986L938.1,314.12755370582454L944,314.12755370582454L949.9,314.12755370582454L955.8000000000001,314.12755370582454L961.7,314.12755370582454L967.6,314.12755370582454L973.5,314.12755370582454L979.4,314.12755370582454L985.3,314.12755370582454L991.1999999999999,314.12755370582454L997.1,318.98342202510685L1003,318.98342202510685L1008.9,318.98342202510685L1014.8,318.98342202510685L1020.7,318.98342202510685L1026.6,318.98342202510685L1032.5,318.98342202510685L1038.3999999999999,318.98342202510685L1044.3,318.98342202510685L1050.2,318.98342202510685L1056.1,323.1109068877995L1062,323.1109068877995L1067.9,323.1109068877995L1073.8,323.1109068877995L1079.7,323.1109068877995L1085.6000000000001,323.1109068877995L1091.5,323.1109068877995L1097.4,323.1109068877995L1103.3,323.1109068877995L1109.2,323.1109068877995L1115.1,326.6192713130149L1121,326.6192713130149L1126.8999999999999,326.6192713130149L1132.8,326.6192713130149L1138.7,326.6192713130149L1144.6,326.6192713130149L1150.5,326.6192713130149L1156.4,326.6192713130149L1162.3,326.6192713130149L1168.2,326.6192713130149L1174.1000000000001,329.601380730659L1180,329.601380730659L1185.9,329.601380730659L1191.8,329.601380730659L1197.7,329.601380730659L1203.6,329.601380730659L1209.5,329.601380730659L1215.3999999999999,329.601380730659L1221.3,329.601380730659L1227.2,329.601380730659L1233.1,332.1361736783583L1239,332.1361736783583L1244.9,332.1361736783583L1250.8,332.1361736783583L1256.7,332.1361736783583L1262.6000000000001,332.1361736783583L1268.5,332.1361736783583L1274.4,332.1361736783583L1280.3,332.1361736783583L1286.2,332.1361736783583L1292.1,334.2907474547101" style="fill: none;" fill="none"></path></g></g></g></g></g><g><g opacity="0.950241"><span fill="rgb(0, 0, 0)" stroke="none" stroke-width="1px">Alt + Scroll to Zoom</span></g></g></g><g transform="translate(82, 378)" clip-path="url(#clip_1)"><clipPath id="clip_1"><rect width="1416" height="22"></rect></clipPath><g><g><line x1="0" y1="0" x2="0" y2="5" style="visibility: inherit;" fill="rgb(0, 0, 0)" stroke="rgb(204, 204, 204)" stroke-width="1px"></line><line x1="118" y1="0" x2="118" y2="5" style="visibility: inherit;" fill="rgb(0, 0, 0)" stroke="rgb(204, 204, 204)" stroke-width="1px"></line><line x1="236" y1="0" x2="236" y2="5" style="visibility: inherit;" fill="rgb(0, 0, 0)" stroke="rgb(204, 204, 204)" stroke-width="1px"></line><line x1="354" y1="0" x2="354" y2="5" style="visibility: inherit;" fill="rgb(0, 0, 0)" stroke="rgb(204, 204, 204)" stroke-width="1px"></line><line x1="472" y1="0" x2="472" y2="5" style="visibility: inherit;" fill="rgb(0, 0, 0)" stroke="rgb(204, 204, 204)" stroke-width="1px"></line><line x1="590" y1="0" x2="590" y2="5" style="visibility: inherit;" fill="rgb(0, 0, 0)" stroke="rgb(204, 204, 204)" stroke-width="1px"></line><line x1="708" y1="0" x2="708" y2="5" style="visibility: inherit;" fill="rgb(0, 0, 0)" stroke="rgb(204, 204, 204)" stroke-width="1px"></line><line x1="826" y1="0" x2="826" y2="5" style="visibility: inherit;" fill="rgb(0, 0, 0)" stroke="rgb(204, 204, 204)" stroke-width="1px"></line><line x1="944" y1="0" x2="944" y2="5" style="visibility: inherit;" fill="rgb(0, 0, 0)" stroke="rgb(204, 204, 204)" stroke-width="1px"></line><line x1="1062" y1="0" x2="1062" y2="5" style="visibility: inherit;" fill="rgb(0, 0, 0)" stroke="rgb(204, 204, 204)" stroke-width="1px"></line><line x1="1180" y1="0" x2="1180" y2="5" style="visibility: inherit;" fill="rgb(0, 0, 0)" stroke="rgb(204, 204, 204)" stroke-width="1px"></line><line x1="1298" y1="0" x2="1298" y2="5" style="visibility: inherit;" fill="rgb(0, 0, 0)" stroke="rgb(204, 204, 204)" stroke-width="1px"></line><line x1="1416" y1="0" x2="1416" y2="5" style="visibility: inherit;" fill="rgb(0, 0, 0)" stroke="rgb(204, 204, 204)" stroke-width="1px"></line></g><g transform="translate(0, 8)"><text x="0" y="0" dx="0em" dy="0.95em" style="text-anchor: middle; visibility: hidden; font-family: &quot;Helvetica Neue&quot;, sans-serif; font-size: 12px; font-weight: 200;" fill="rgb(50, 49, 63)" stroke="none" stroke-width="1px">-20</text><text x="118" y="0" dx="0em" dy="0.95em" style="text-anchor: middle; visibility: inherit; font-family: &quot;Helvetica Neue&quot;, sans-serif; font-size: 12px; font-weight: 200;" fill="rgb(50, 49, 63)" stroke="none" stroke-width="1px">0</text><text x="236" y="0" dx="0em" dy="0.95em" style="text-anchor: middle; visibility: inherit; font-family: &quot;Helvetica Neue&quot;, sans-serif; font-size: 12px; font-weight: 200;" fill="rgb(50, 49, 63)" stroke="none" stroke-width="1px">20</text><text x="354" y="0" dx="0em" dy="0.95em" style="text-anchor: middle; visibility: inherit; font-family: &quot;Helvetica Neue&quot;, sans-serif; font-size: 12px; font-weight: 200;" fill="rgb(50, 49, 63)" stroke="none" stroke-width="1px">40</text><text x="472" y="0" dx="0em" dy="0.95em" style="text-anchor: middle; visibility: inherit; font-family: &quot;Helvetica Neue&quot;, sans-serif; font-size: 12px; font-weight: 200;" fill="rgb(50, 49, 63)" stroke="none" stroke-width="1px">60</text><text x="590" y="0" dx="0em" dy="0.95em" style="text-anchor: middle; visibility: inherit; font-family: &quot;Helvetica Neue&quot;, sans-serif; font-size: 12px; font-weight: 200;" fill="rgb(50, 49, 63)" stroke="none" stroke-width="1px">80</text><text x="708" y="0" dx="0em" dy="0.95em" style="text-anchor: middle; visibility: inherit; font-family: &quot;Helvetica Neue&quot;, sans-serif; font-size: 12px; font-weight: 200;" fill="rgb(50, 49, 63)" stroke="none" stroke-width="1px">100</text><text x="826" y="0" dx="0em" dy="0.95em" style="text-anchor: middle; visibility: inherit; font-family: &quot;Helvetica Neue&quot;, sans-serif; font-size: 12px; font-weight: 200;" fill="rgb(50, 49, 63)" stroke="none" stroke-width="1px">120</text><text x="944" y="0" dx="0em" dy="0.95em" style="text-anchor: middle; visibility: inherit; font-family: &quot;Helvetica Neue&quot;, sans-serif; font-size: 12px; font-weight: 200;" fill="rgb(50, 49, 63)" stroke="none" stroke-width="1px">140</text><text x="1062" y="0" dx="0em" dy="0.95em" style="text-anchor: middle; visibility: inherit; font-family: &quot;Helvetica Neue&quot;, sans-serif; font-size: 12px; font-weight: 200;" fill="rgb(50, 49, 63)" stroke="none" stroke-width="1px">160</text><text x="1180" y="0" dx="0em" dy="0.95em" style="text-anchor: middle; visibility: inherit; font-family: &quot;Helvetica Neue&quot;, sans-serif; font-size: 12px; font-weight: 200;" fill="rgb(50, 49, 63)" stroke="none" stroke-width="1px">180</text><text x="1298" y="0" dx="0em" dy="0.95em" style="text-anchor: middle; visibility: inherit; font-family: &quot;Helvetica Neue&quot;, sans-serif; font-size: 12px; font-weight: 200;" fill="rgb(50, 49, 63)" stroke="none" stroke-width="1px">200</text><text x="1416" y="0" dx="0em" dy="0.95em" style="text-anchor: middle; visibility: hidden; font-family: &quot;Helvetica Neue&quot;, sans-serif; font-size: 12px; font-weight: 200;" fill="rgb(50, 49, 63)" stroke="none" stroke-width="1px">220</text></g><line x1="0" y1="0" x2="1416" y2="0" fill="rgb(0, 0, 0)" stroke="rgb(204, 204, 204)" stroke-width="1px"></line></g></g></g></g></svg>