<svg viewBox="0 0 1498 400" xmlns="http://www.w3.org/2000/svg"><g><g><g><g><g><line x1="82" y1="378" x2="77" y2="378" style="visibility: inherit;" fill="rgb(0, 0, 0)" stroke="rgb(204, 204, 204)" stroke-width="1px"></line><line x1="82" y1="324" x2="77" y2="324" style="visibility: inherit;" fill="rgb(0, 0, 0)" stroke="rgb(204, 204, 204)" stroke-width="1px"></line><line x1="82" y1="270" x2="77" y2="270" style="visibility: inherit;" fill="rgb(0, 0, 0)" stroke="rgb(204, 204, 204)" stroke-width="1px"></line><line x1="82" y1="216" x2="77" y2="216" style="visibility: inherit;" fill="rgb(0, 0, 0)" stroke="rgb(204, 204, 204)" stroke-width="1px"></line><line x1="82" y1="162.00000000000006" x2="77" y2="162.00000000000006" style="visibility: inherit;" fill="rgb(0, 0, 0)" stroke="rgb(204, 204, 204)" stroke-width="1px"></line><line x1="82" y1="108" x2="77" y2="108" style="visibility: inherit;" fill="rgb(0, 0, 0)" stroke="rgb(204, 204, 204)" stroke-width="1px"></line><line x1="82" y1="54.00000000000006" x2="77" y2="54.00000000000006" style="visibility: inherit;" fill="rgb(0, 0, 0)" stroke="rgb(204, 204, 204)" stroke-width="1px"></line><line x1="82" y1="0" x2="77" y2="0" style="visibility: inherit;" fill="rgb(0, 0, 0)" stroke="rgb(204, 204, 204)" stroke-width="1px"></line></g><g transform="translate(72, 0)"><text x="0" y="378" dx="0em" dy="0.3em" style="text-anchor: end; visibility: hidden; font-family: &quot;Helvetica Neue&quot;, sans-serif; font-size: 12px; font-weight: 200;" fill="rgb(50, 49, 63)" stroke="none" stroke-width="1px">2.5e-3</text><text x="0" y="324" dx="0em" dy="0.3em" style="text-anchor: end; visibility: inherit; font-family: &quot;Helvetica Neue&quot;, sans-serif; font-size: 12px; font-weight: 200;" fill="rgb(50, 49, 63)" stroke="none" stroke-width="1px">3e-3</text><text x="0" y="270" dx="0em" dy="0.3em" style="text-anchor: end; visibility: inherit; font-family: &quot;Helvetica Neue&quot;, sans-serif; font-size: 12px; font-weight: 200;" fill="rgb(50, 49, 63)" stroke="none" stroke-width="1px">3.5e-3</text><text x="0" y="216" dx="0em" dy="0.3em" style="text-anchor: end; visibility: inherit; font-family: &quot;Helvetica Neue&quot;, sans-serif; font-size: 12px; font-weight: 200;" fill="rgb(50, 49, 63)" stroke="none" stroke-width="1px">4e-3</text><text x="0" y="162.00000000000006" dx="0em" dy="0.3em" style="text-anchor: end; visibility: inherit; font-family: &quot;Helvetica Neue&quot;, sans-serif; font-size: 12px; font-weight: 200;" fill="rgb(50, 49, 63)" stroke="none" stroke-width="1px">4.5e-3</text><text x="0" y="108" dx="0em" dy="0.3em" style="text-anchor: end; visibility: inherit; font-family: &quot;Helvetica Neue&quot;, sans-serif; font-size: 12px; font-weight: 200;" fill="rgb(50, 49, 63)" stroke="none" stroke-width="1px">5e-3</text><text x="0" y="54.00000000000006" dx="0em" dy="0.3em" style="text-anchor: end; visibility: inherit; font-family: &quot;Helvetica Neue&quot;, sans-serif; font-size: 12px; font-weight: 200;" fill="rgb(50, 49, 63)" stroke="none" stroke-width="1px">5.5e-3</text><text x="0" y="0" dx="0em" dy="0.3em" style="text-anchor: end; visibility: hidden; font-family: &quot;Helvetica Neue&quot;, sans-serif; font-size: 12px; font-weight: 200;" fill="rgb(50, 49, 63)" stroke="none" stroke-width="1px">6e-3</text></g><line x1="82" y1="0" x2="82" y2="378" fill="rgb(0, 0, 0)" stroke="rgb(204, 204, 204)" stroke-width="1px"></line></g></g><g transform="translate(82, 0)" clip-path="url(#clip_0)"><clipPath id="clip_0"><rect width="1416" height="378"></rect></clipPath><g><g><g><line x1="0" y1="0" x2="0" y2="378" fill="rgb(0, 0, 0)" stroke="rgb(60, 60, 60)" stroke-width="1px" opacity="0.25"></line><line x1="118" y1="0" x2="118" y2="378" fill="rgb(0, 0, 0)" stroke="rgb(60, 60, 60)" stroke-width="1px" opacity="0.25"></line><line x1="236" y1="0" x2="236" y2="378" fill="rgb(0, 0, 0)" stroke="rgb(60, 60, 60)" stroke-width="1px" opacity="0.25"></line><line x1="354" y1="0" x2="354" y2="378" fill="rgb(0, 0, 0)" stroke="rgb(60, 60, 60)" stroke-width="1px" opacity="0.25"></line><line x1="472" y1="0" x2="472" y2="378" fill="rgb(0, 0, 0)" stroke="rgb(60, 60, 60)" stroke-width="1px" opacity="0.25"></line><line x1="590" y1="0" x2="590" y2="378" fill="rgb(0, 0, 0)" stroke="rgb(60, 60, 60)" stroke-width="1px" opacity="0.25"></line><line x1="708" y1="0" x2="708" y2="378" fill="rgb(0, 0, 0)" stroke="rgb(60, 60, 60)" stroke-width="1px" opacity="0.25"></line><line x1="826" y1="0" x2="826" y2="378" fill="rgb(0, 0, 0)" stroke="rgb(60, 60, 60)" stroke-width="1px" opacity="0.25"></line><line x1="944" y1="0" x2="944" y2="378" fill="rgb(0, 0, 0)" stroke="rgb(60, 60, 60)" stroke-width="1px" opacity="0.25"></line><line x1="1062" y1="0" x2="1062" y2="378" fill="rgb(0, 0, 0)" stroke="rgb(60, 60, 60)" stroke-width="1px" opacity="0.25"></line><line x1="1180" y1="0" x2="1180" y2="378" fill="rgb(0, 0, 0)" stroke="rgb(60, 60, 60)" stroke-width="1px" opacity="0.25"></line><line x1="1298" y1="0" x2="1298" y2="378" fill="rgb(0, 0, 0)" stroke="rgb(60, 60, 60)" stroke-width="1px" opacity="0.25"></line><line x1="1416" y1="0" x2="1416" y2="378" fill="rgb(0, 0, 0)" stroke="rgb(60, 60, 60)" stroke-width="1px" opacity="0.25"></line></g><g><line x1="0" y1="378" x2="1416" y2="378" fill="rgb(0, 0, 0)" stroke="rgb(60, 60, 60)" stroke-width="1px" opacity="0.25"></line><line x1="0" y1="324" x2="1416" y2="324" fill="rgb(0, 0, 0)" stroke="rgb(60, 60, 60)" stroke-width="1px" opacity="0.25"></line><line x1="0" y1="270" x2="1416" y2="270" fill="rgb(0, 0, 0)" stroke="rgb(60, 60, 60)" stroke-width="1px" opacity="0.25"></line><line x1="0" y1="216" x2="1416" y2="216" fill="rgb(0, 0, 0)" stroke="rgb(60, 60, 60)" stroke-width="1px" opacity="0.25"></line><line x1="0" y1="162.00000000000006" x2="1416" y2="162.00000000000006" fill="rgb(0, 0, 0)" stroke="rgb(60, 60, 60)" stroke-width="1px" opacity="0.25"></line><line x1="0" y1="108" x2="1416" y2="108" fill="rgb(0, 0, 0)" stroke="rgb(60, 60, 60)" stroke-width="1px" opacity="0.25"></line><line x1="0" y1="54.00000000000006" x2="1416" y2="54.00000000000006" fill="rgb(0, 0, 0)" stroke="rgb(60, 60, 60)" stroke-width="1px" opacity="0.25"></line><line x1="0" y1="0" x2="1416" y2="0" fill="rgb(0, 0, 0)" stroke="rgb(60, 60, 60)" stroke-width="1px" opacity="0.25"></line></g></g></g><g><g><line x1="0" y1="648" x2="1416" y2="648" fill="rgb(0, 0, 0)" stroke="rgb(153, 153, 153)" stroke-width="1.5px"></line></g></g><g><g><line x1="118" y1="0" x2="118" y2="378" fill="rgb(0, 0, 0)" stroke="rgb(153, 153, 153)" stroke-width="1.5px"></line></g></g><g><g><g><g><g><path stroke="rgb(255, 112, 67)" stroke-width="2px" d="M129.79999999999998,-147.8294693380593L135.70000000000002,103.51115088164812L141.6,-38.98033131659031L159.3,-3.7818700522183804L165.2,153.84561936557296L171.1,-525.0808429419994L177,210.11663782596588L182.9,125.92653925716877L188.8,53.346717685461044L194.70000000000002,157.5491297543049L200.6,55.26085938513279L206.5,123.32375715672973L212.4,107.39726941287518L218.3,161.9278527349234L224.2,137.2332069575787L230.1,156.1926193088293L236,101.56854423880577L241.9,94.48907147347933L247.79999999999998,76.32476645708084L253.7,92.04158927500248L259.59999999999997,162.96340334415436L265.5,184.81774064898494L271.40000000000003,-41.92771022021765L277.3,60.72648051381111L283.2,55.08388388156891L289.1,202.35179360210898L295,176.2610580325127L300.9,210.38107010722163L306.8,182.12926197052002L312.7,214.8428745120764L318.6,165.15233735740185L324.5,167.52563971281054L330.4,170.14270457625392L336.3,171.61770160496235L342.2,183.42698174715042L348.09999999999997,70.4441908299923L354,110.90232986211777L359.9,112.57633003592491L365.8,131.59795287251475L371.7,94.43460586667061L377.6,138.6077217310667L383.5,206.90080332756045L389.40000000000003,204.98304064571857L395.3,185.77453489601612L401.2,199.64495855569842L407.09999999999997,209.25393882393837L413,166.3299109339714L418.9,152.5646969228983L424.8,181.9410211890936L430.7,252.31282315403223L436.6,218.57852111756802L442.5,232.79841984808445L448.4,221.89106601476672L454.3,184.45171970129016L460.2,211.14615346491337L466.1,224.45909674465656L472,210.4555516988039L477.90000000000003,159.53674721717834L483.8,183.68271361291409L489.7,191.33782196044925L495.59999999999997,191.56443509459496L501.5,214.42118096351624L507.4,229.7965753376484L513.3,210.1778927743435L519.1999999999999,211.88387829065323L525.1,240.6485834643245L531,201.47843281924725L536.9,225.34090648591518L542.8000000000001,169.19300141930583L548.7,225.97211408615112L554.6,227.35394626110792L560.5,237.87113926559687L566.4,268.3908137977123L572.3,249.19191370904446L578.2,244.54621873050928L584.1,251.31016313284636L590,238.81556182354691L595.9,228.42414765805006L601.8,237.51728884130716L607.6999999999999,247.5649863034487L613.6,221.50100576877597L619.5,214.76628068089485L625.4,222.87210072577L631.3000000000001,244.54066152870655L637.2,230.88661669939756L643.1,262.8381633684039L649,236.07915542274716L654.9,287.70714434981346L660.8,263.12997932732105L666.7,285.229235842824L672.6,266.8811659812927L678.5,272.3458818644285L684.4,249.7016423866153L690.3,262.73984364420176L696.1999999999999,267.41186618059874L702.1,266.23668144643307L708,246.9103429019451L713.9,233.12765262275937L719.8,258.968716442585L725.6999999999999,249.15665942430496L731.6,241.0030876770616L737.5,254.8567642942071L743.4,255.5591342523694L749.3,240.10385195910933L755.2,284.4044565707445L761.1,266.5410199686885L767,243.02774477005005L772.9,305.56567753851414L778.8000000000001,259.9996653869748L784.7,275.0632026717067L790.6,286.21690902113914L796.5,263.1382774114609L802.4,286.5751599445939L808.3,281.7035307660699L814.1999999999999,317.07089576125145L820.1,272.8636320233345L826,284.88531797379255L831.9,287.90876264870167L837.8,307.3414172530174L843.7,291.0485565215349L849.6,298.91026201844215L855.5,294.40382397919893L861.4,271.9006519317627L867.3000000000001,316.5292571783066L873.2,293.37015929818153L879.1,286.3945383131504L885,251.84973976761103L890.9,286.42006120830774L896.8,286.4193319827318L902.6999999999999,277.0996531024575L908.6,297.3060663342476L914.5,275.0975014194846L920.4,296.12270924448967L926.3,288.3903281316161L932.2,262.1029028221965L938.1,268.7843441516161L944,265.5632541999221L949.9,294.6721538454294L955.8000000000001,288.5974281951785L961.7,302.8054330050945L967.6,301.91524974256754L973.5,267.26604621112347L979.4,273.1455657184124L985.3,290.29891262948513L991.1999999999999,281.5234120488167L997.1,259.3748447969556L1003,296.8667204976082L1008.9,269.66723515838385L1014.8,284.18365209549665L1020.7,284.65204122662544L1026.6,294.36753872036934L1032.5,276.4132758155465L1038.3999999999999,275.3731738328934L1044.3,305.06205926835537L1050.2,314.0201931372285L1056.1,311.1427947431803L1062,293.80507948994637L1067.9,301.885904699564L1073.8,309.096160300076L1079.7,312.436818100512L1085.6000000000001,325.55266930907965L1091.5,326.8927847519517L1097.4,301.04980985820293L1103.3,306.7459668517113L1109.2,298.3029679879546L1115.1,303.7930810377002L1121,299.1417534202337L1126.8999999999999,292.02466267347336L1132.8,293.176587626338L1138.7,284.8998773396015L1144.6,278.24966698139906L1150.5,292.3902812898159L1156.4,295.65359088778496L1162.3,290.2364506870508L1168.2,281.08318611234426L1174.1000000000001,303.4702101275325L1180,254.65846522897482L1185.9,285.4532338231802L1191.8,291.43977347016335L1197.7,292.37951892614365L1203.6,298.9366147220135L1209.5,292.86530888825655L1215.3999999999999,303.98793514072895L1221.3,308.801955498755L1227.2,293.19969653338194L1233.1,298.1816399395466L1239,313.2573477476835L1244.9,304.7046130076051L1250.8,298.2453340217471L1256.7,279.95555191487074L1262.6000000000001,306.6154354736209L1268.5,280.3444051668048L1274.4,299.36590227484703L1280.3,299.3568749651313L1286.2,309.5045266225934L1292.1,307.7831267863512" style="fill: none;" fill="none"></path></g></g></g></g></g></g><g transform="translate(82, 378)" clip-path="url(#clip_1)"><clipPath id="clip_1"><rect width="1416" height="22"></rect></clipPath><g><g><line x1="0" y1="0" x2="0" y2="5" style="visibility: inherit;" fill="rgb(0, 0, 0)" stroke="rgb(204, 204, 204)" stroke-width="1px"></line><line x1="118" y1="0" x2="118" y2="5" style="visibility: inherit;" fill="rgb(0, 0, 0)" stroke="rgb(204, 204, 204)" stroke-width="1px"></line><line x1="236" y1="0" x2="236" y2="5" style="visibility: inherit;" fill="rgb(0, 0, 0)" stroke="rgb(204, 204, 204)" stroke-width="1px"></line><line x1="354" y1="0" x2="354" y2="5" style="visibility: inherit;" fill="rgb(0, 0, 0)" stroke="rgb(204, 204, 204)" stroke-width="1px"></line><line x1="472" y1="0" x2="472" y2="5" style="visibility: inherit;" fill="rgb(0, 0, 0)" stroke="rgb(204, 204, 204)" stroke-width="1px"></line><line x1="590" y1="0" x2="590" y2="5" style="visibility: inherit;" fill="rgb(0, 0, 0)" stroke="rgb(204, 204, 204)" stroke-width="1px"></line><line x1="708" y1="0" x2="708" y2="5" style="visibility: inherit;" fill="rgb(0, 0, 0)" stroke="rgb(204, 204, 204)" stroke-width="1px"></line><line x1="826" y1="0" x2="826" y2="5" style="visibility: inherit;" fill="rgb(0, 0, 0)" stroke="rgb(204, 204, 204)" stroke-width="1px"></line><line x1="944" y1="0" x2="944" y2="5" style="visibility: inherit;" fill="rgb(0, 0, 0)" stroke="rgb(204, 204, 204)" stroke-width="1px"></line><line x1="1062" y1="0" x2="1062" y2="5" style="visibility: inherit;" fill="rgb(0, 0, 0)" stroke="rgb(204, 204, 204)" stroke-width="1px"></line><line x1="1180" y1="0" x2="1180" y2="5" style="visibility: inherit;" fill="rgb(0, 0, 0)" stroke="rgb(204, 204, 204)" stroke-width="1px"></line><line x1="1298" y1="0" x2="1298" y2="5" style="visibility: inherit;" fill="rgb(0, 0, 0)" stroke="rgb(204, 204, 204)" stroke-width="1px"></line><line x1="1416" y1="0" x2="1416" y2="5" style="visibility: inherit;" fill="rgb(0, 0, 0)" stroke="rgb(204, 204, 204)" stroke-width="1px"></line></g><g transform="translate(0, 8)"><text x="0" y="0" dx="0em" dy="0.95em" style="text-anchor: middle; visibility: hidden; font-family: &quot;Helvetica Neue&quot;, sans-serif; font-size: 12px; font-weight: 200;" fill="rgb(50, 49, 63)" stroke="none" stroke-width="1px">-20</text><text x="118" y="0" dx="0em" dy="0.95em" style="text-anchor: middle; visibility: inherit; font-family: &quot;Helvetica Neue&quot;, sans-serif; font-size: 12px; font-weight: 200;" fill="rgb(50, 49, 63)" stroke="none" stroke-width="1px">0</text><text x="236" y="0" dx="0em" dy="0.95em" style="text-anchor: middle; visibility: inherit; font-family: &quot;Helvetica Neue&quot;, sans-serif; font-size: 12px; font-weight: 200;" fill="rgb(50, 49, 63)" stroke="none" stroke-width="1px">20</text><text x="354" y="0" dx="0em" dy="0.95em" style="text-anchor: middle; visibility: inherit; font-family: &quot;Helvetica Neue&quot;, sans-serif; font-size: 12px; font-weight: 200;" fill="rgb(50, 49, 63)" stroke="none" stroke-width="1px">40</text><text x="472" y="0" dx="0em" dy="0.95em" style="text-anchor: middle; visibility: inherit; font-family: &quot;Helvetica Neue&quot;, sans-serif; font-size: 12px; font-weight: 200;" fill="rgb(50, 49, 63)" stroke="none" stroke-width="1px">60</text><text x="590" y="0" dx="0em" dy="0.95em" style="text-anchor: middle; visibility: inherit; font-family: &quot;Helvetica Neue&quot;, sans-serif; font-size: 12px; font-weight: 200;" fill="rgb(50, 49, 63)" stroke="none" stroke-width="1px">80</text><text x="708" y="0" dx="0em" dy="0.95em" style="text-anchor: middle; visibility: inherit; font-family: &quot;Helvetica Neue&quot;, sans-serif; font-size: 12px; font-weight: 200;" fill="rgb(50, 49, 63)" stroke="none" stroke-width="1px">100</text><text x="826" y="0" dx="0em" dy="0.95em" style="text-anchor: middle; visibility: inherit; font-family: &quot;Helvetica Neue&quot;, sans-serif; font-size: 12px; font-weight: 200;" fill="rgb(50, 49, 63)" stroke="none" stroke-width="1px">120</text><text x="944" y="0" dx="0em" dy="0.95em" style="text-anchor: middle; visibility: inherit; font-family: &quot;Helvetica Neue&quot;, sans-serif; font-size: 12px; font-weight: 200;" fill="rgb(50, 49, 63)" stroke="none" stroke-width="1px">140</text><text x="1062" y="0" dx="0em" dy="0.95em" style="text-anchor: middle; visibility: inherit; font-family: &quot;Helvetica Neue&quot;, sans-serif; font-size: 12px; font-weight: 200;" fill="rgb(50, 49, 63)" stroke="none" stroke-width="1px">160</text><text x="1180" y="0" dx="0em" dy="0.95em" style="text-anchor: middle; visibility: inherit; font-family: &quot;Helvetica Neue&quot;, sans-serif; font-size: 12px; font-weight: 200;" fill="rgb(50, 49, 63)" stroke="none" stroke-width="1px">180</text><text x="1298" y="0" dx="0em" dy="0.95em" style="text-anchor: middle; visibility: inherit; font-family: &quot;Helvetica Neue&quot;, sans-serif; font-size: 12px; font-weight: 200;" fill="rgb(50, 49, 63)" stroke="none" stroke-width="1px">200</text><text x="1416" y="0" dx="0em" dy="0.95em" style="text-anchor: middle; visibility: hidden; font-family: &quot;Helvetica Neue&quot;, sans-serif; font-size: 12px; font-weight: 200;" fill="rgb(50, 49, 63)" stroke="none" stroke-width="1px">220</text></g><line x1="0" y1="0" x2="1416" y2="0" fill="rgb(0, 0, 0)" stroke="rgb(204, 204, 204)" stroke-width="1px"></line></g></g></g></g></svg>