<svg viewBox="0 0 1498 400" xmlns="http://www.w3.org/2000/svg"><g><g><g><g><g><line x1="58" y1="378" x2="53" y2="378" style="visibility: inherit;" fill="rgb(0, 0, 0)" stroke="rgb(204, 204, 204)" stroke-width="1px"></line><line x1="58" y1="330.75" x2="53" y2="330.75" style="visibility: inherit;" fill="rgb(0, 0, 0)" stroke="rgb(204, 204, 204)" stroke-width="1px"></line><line x1="58" y1="283.5" x2="53" y2="283.5" style="visibility: inherit;" fill="rgb(0, 0, 0)" stroke="rgb(204, 204, 204)" stroke-width="1px"></line><line x1="58" y1="236.24999999999997" x2="53" y2="236.24999999999997" style="visibility: inherit;" fill="rgb(0, 0, 0)" stroke="rgb(204, 204, 204)" stroke-width="1px"></line><line x1="58" y1="189.00000000000003" x2="53" y2="189.00000000000003" style="visibility: inherit;" fill="rgb(0, 0, 0)" stroke="rgb(204, 204, 204)" stroke-width="1px"></line><line x1="58" y1="141.75" x2="53" y2="141.75" style="visibility: inherit;" fill="rgb(0, 0, 0)" stroke="rgb(204, 204, 204)" stroke-width="1px"></line><line x1="58" y1="94.50000000000006" x2="53" y2="94.50000000000006" style="visibility: inherit;" fill="rgb(0, 0, 0)" stroke="rgb(204, 204, 204)" stroke-width="1px"></line><line x1="58" y1="47.25000000000006" x2="53" y2="47.25000000000006" style="visibility: inherit;" fill="rgb(0, 0, 0)" stroke="rgb(204, 204, 204)" stroke-width="1px"></line><line x1="58" y1="0" x2="53" y2="0" style="visibility: inherit;" fill="rgb(0, 0, 0)" stroke="rgb(204, 204, 204)" stroke-width="1px"></line></g><g transform="translate(48, 0)"><text x="0" y="378" dx="0em" dy="0.3em" style="text-anchor: end; visibility: hidden; font-family: &quot;Helvetica Neue&quot;, sans-serif; font-size: 12px; font-weight: 200;" fill="rgb(50, 49, 63)" stroke="none" stroke-width="1px">0.4</text><text x="0" y="330.75" dx="0em" dy="0.3em" style="text-anchor: end; visibility: inherit; font-family: &quot;Helvetica Neue&quot;, sans-serif; font-size: 12px; font-weight: 200;" fill="rgb(50, 49, 63)" stroke="none" stroke-width="1px">0.45</text><text x="0" y="283.5" dx="0em" dy="0.3em" style="text-anchor: end; visibility: inherit; font-family: &quot;Helvetica Neue&quot;, sans-serif; font-size: 12px; font-weight: 200;" fill="rgb(50, 49, 63)" stroke="none" stroke-width="1px">0.5</text><text x="0" y="236.24999999999997" dx="0em" dy="0.3em" style="text-anchor: end; visibility: inherit; font-family: &quot;Helvetica Neue&quot;, sans-serif; font-size: 12px; font-weight: 200;" fill="rgb(50, 49, 63)" stroke="none" stroke-width="1px">0.55</text><text x="0" y="189.00000000000003" dx="0em" dy="0.3em" style="text-anchor: end; visibility: inherit; font-family: &quot;Helvetica Neue&quot;, sans-serif; font-size: 12px; font-weight: 200;" fill="rgb(50, 49, 63)" stroke="none" stroke-width="1px">0.6</text><text x="0" y="141.75" dx="0em" dy="0.3em" style="text-anchor: end; visibility: inherit; font-family: &quot;Helvetica Neue&quot;, sans-serif; font-size: 12px; font-weight: 200;" fill="rgb(50, 49, 63)" stroke="none" stroke-width="1px">0.65</text><text x="0" y="94.50000000000006" dx="0em" dy="0.3em" style="text-anchor: end; visibility: inherit; font-family: &quot;Helvetica Neue&quot;, sans-serif; font-size: 12px; font-weight: 200;" fill="rgb(50, 49, 63)" stroke="none" stroke-width="1px">0.7</text><text x="0" y="47.25000000000006" dx="0em" dy="0.3em" style="text-anchor: end; visibility: inherit; font-family: &quot;Helvetica Neue&quot;, sans-serif; font-size: 12px; font-weight: 200;" fill="rgb(50, 49, 63)" stroke="none" stroke-width="1px">0.75</text><text x="0" y="0" dx="0em" dy="0.3em" style="text-anchor: end; visibility: hidden; font-family: &quot;Helvetica Neue&quot;, sans-serif; font-size: 12px; font-weight: 200;" fill="rgb(50, 49, 63)" stroke="none" stroke-width="1px">0.8</text></g><line x1="58" y1="0" x2="58" y2="378" fill="rgb(0, 0, 0)" stroke="rgb(204, 204, 204)" stroke-width="1px"></line></g></g><g transform="translate(58, 0)" clip-path="url(#clip_0)"><clipPath id="clip_0"><rect width="1440" height="378"></rect></clipPath><g><g><g><line x1="0" y1="0" x2="0" y2="378" fill="rgb(0, 0, 0)" stroke="rgb(60, 60, 60)" stroke-width="1px" opacity="0.25"></line><line x1="120" y1="0" x2="120" y2="378" fill="rgb(0, 0, 0)" stroke="rgb(60, 60, 60)" stroke-width="1px" opacity="0.25"></line><line x1="240" y1="0" x2="240" y2="378" fill="rgb(0, 0, 0)" stroke="rgb(60, 60, 60)" stroke-width="1px" opacity="0.25"></line><line x1="360" y1="0" x2="360" y2="378" fill="rgb(0, 0, 0)" stroke="rgb(60, 60, 60)" stroke-width="1px" opacity="0.25"></line><line x1="480" y1="0" x2="480" y2="378" fill="rgb(0, 0, 0)" stroke="rgb(60, 60, 60)" stroke-width="1px" opacity="0.25"></line><line x1="600" y1="0" x2="600" y2="378" fill="rgb(0, 0, 0)" stroke="rgb(60, 60, 60)" stroke-width="1px" opacity="0.25"></line><line x1="720" y1="0" x2="720" y2="378" fill="rgb(0, 0, 0)" stroke="rgb(60, 60, 60)" stroke-width="1px" opacity="0.25"></line><line x1="840" y1="0" x2="840" y2="378" fill="rgb(0, 0, 0)" stroke="rgb(60, 60, 60)" stroke-width="1px" opacity="0.25"></line><line x1="960" y1="0" x2="960" y2="378" fill="rgb(0, 0, 0)" stroke="rgb(60, 60, 60)" stroke-width="1px" opacity="0.25"></line><line x1="1080" y1="0" x2="1080" y2="378" fill="rgb(0, 0, 0)" stroke="rgb(60, 60, 60)" stroke-width="1px" opacity="0.25"></line><line x1="1200" y1="0" x2="1200" y2="378" fill="rgb(0, 0, 0)" stroke="rgb(60, 60, 60)" stroke-width="1px" opacity="0.25"></line><line x1="1320" y1="0" x2="1320" y2="378" fill="rgb(0, 0, 0)" stroke="rgb(60, 60, 60)" stroke-width="1px" opacity="0.25"></line><line x1="1440" y1="0" x2="1440" y2="378" fill="rgb(0, 0, 0)" stroke="rgb(60, 60, 60)" stroke-width="1px" opacity="0.25"></line></g><g><line x1="0" y1="378" x2="1440" y2="378" fill="rgb(0, 0, 0)" stroke="rgb(60, 60, 60)" stroke-width="1px" opacity="0.25"></line><line x1="0" y1="330.75" x2="1440" y2="330.75" fill="rgb(0, 0, 0)" stroke="rgb(60, 60, 60)" stroke-width="1px" opacity="0.25"></line><line x1="0" y1="283.5" x2="1440" y2="283.5" fill="rgb(0, 0, 0)" stroke="rgb(60, 60, 60)" stroke-width="1px" opacity="0.25"></line><line x1="0" y1="236.24999999999997" x2="1440" y2="236.24999999999997" fill="rgb(0, 0, 0)" stroke="rgb(60, 60, 60)" stroke-width="1px" opacity="0.25"></line><line x1="0" y1="189.00000000000003" x2="1440" y2="189.00000000000003" fill="rgb(0, 0, 0)" stroke="rgb(60, 60, 60)" stroke-width="1px" opacity="0.25"></line><line x1="0" y1="141.75" x2="1440" y2="141.75" fill="rgb(0, 0, 0)" stroke="rgb(60, 60, 60)" stroke-width="1px" opacity="0.25"></line><line x1="0" y1="94.50000000000006" x2="1440" y2="94.50000000000006" fill="rgb(0, 0, 0)" stroke="rgb(60, 60, 60)" stroke-width="1px" opacity="0.25"></line><line x1="0" y1="47.25000000000006" x2="1440" y2="47.25000000000006" fill="rgb(0, 0, 0)" stroke="rgb(60, 60, 60)" stroke-width="1px" opacity="0.25"></line><line x1="0" y1="0" x2="1440" y2="0" fill="rgb(0, 0, 0)" stroke="rgb(60, 60, 60)" stroke-width="1px" opacity="0.25"></line></g></g></g><g><g><line x1="0" y1="756" x2="1440" y2="756" fill="rgb(0, 0, 0)" stroke="rgb(153, 153, 153)" stroke-width="1.5px"></line></g></g><g><g><line x1="120" y1="0" x2="120" y2="378" fill="rgb(0, 0, 0)" stroke="rgb(153, 153, 153)" stroke-width="1.5px"></line></g></g><g><g><g><g><g><path stroke="rgb(255, 112, 67)" stroke-width="2px" d="M132,401.42771509715493L138,312.1262766819667L144,264.12265363399734L150,316.1764694774958L156,227.04798168312865L162,334.0426539649717L168,368.8772404285477L174,335.65720776759565L180,366.5891839623546L186.00000000000003,295.09607964462816L192,315.76008974717246L198.00000000000003,314.5497142148036L204,293.44325239438723L210,317.7662232172143L216,268.967636092889L222,264.59450135760136L228,310.2612781049635L234,295.4065234656083L240,318.1833317514252L246,266.96202231121504L251.99999999999997,263.3915490268646L258,277.8481741556584L264,223.89916020292918L270,211.14665253183813L276,221.6029654902721L282,190.15216906854573L288,248.23982426392448L294,226.5055711671287L300,222.5189048726937L306,189.19278792030565L312,172.969568285438L318,188.8883201588908L324,193.91264153473344L330,193.90926633445576L336,264.82939810635685L342,290.0281724380263L348,288.5486358041469L354,251.4453435661072L360,248.80013734615318L366,267.58427468557977L372.00000000000006,275.08229715814025L378,254.6829089319522L384,250.74267656737226L390,249.88752111866907L396.00000000000006,251.63789253882058L402,215.71806445906276L408,222.08233725550227L413.99999999999994,185.15837881250607L420,198.4650932389155L426,213.99401921262825L432,193.13174046411726L437.99999999999994,159.48862016992987L444,178.53628614425207L450,200.52775098610482L456,174.48911427097076L462.00000000000006,194.32699920318728L468,192.6488969658743L474,165.98933066933802L480,149.99359089141706L486.00000000000006,146.43208290341857L492,145.80416208030795L498,161.27173000289216L503.99999999999994,183.37860070296063L510,157.40920750277007L516,164.46228606687046L522,163.41270057669917L528,180.89073438830175L534,200.43143596283787L540,154.81455618162283L546,156.86958192598416L552,156.5936134029125L558,139.0747279029308L564,122.52746072418799L570,134.47935671214648L576,118.26127657058481L582,119.09329374291087L588,101.48471894060128L594,127.13514427062609L600,122.15414967368088L606,110.11164909738329L612,125.52088576637516L618,131.74845982839358L624,137.7484689548594L630,125.50417654484409L636,112.12166522008118L642,138.79874466694557L648,127.64332594178427L654,125.47700408519691L660,111.35088102472656L666,108.15663981707604L672,113.78499241037201L678,101.31770608045474L684,122.50798464547279L690,103.53353348213847L696,117.04706448816302L702,123.64619912208934L708,119.3062793344368L714,120.47477612078836L720,116.64894481408987L726,101.5270935529972L732,104.5258320232931L737.9999999999999,105.57059438590426L744.0000000000001,101.67049989440568L750,112.15679567658032L756,106.37670138837768L762,124.03439786053826L768,121.04818254719459L774,109.44806882149146L780,85.13471873048633L785.9999999999999,97.70837506916337L792.0000000000001,89.40824845591914L798,90.46410836672624L804,101.66051210102933L810,102.34241846285755L816,105.01502696920926L822,107.37309532314248L827.9999999999999,104.26098442643706L834.0000000000001,105.41168582779062L840,105.34760341848067L846,112.09957057121483L852,113.88728617360044L858,104.3970502777687L864,100.21189270995808L870,84.11994244207597L875.9999999999999,98.60849326580563L882.0000000000001,99.75670391160133L888,101.20013354920081L894,105.83863999070377L900,105.60377591622859L906,90.37304030521506L912,103.8693359533774L917.9999999999999,95.36831220625805L924.0000000000001,108.37548306369172L930,96.56301650275822L936,104.56535373252655L942,110.12125932050958L948,109.68233148380051L954,111.68246200158558L960,120.42743763014289L965.9999999999999,115.86603846958047L972.0000000000001,104.82979840523461L978,89.15417307905233L984,106.91046427662297L990,100.2109571395822L996,105.99963739505466L1002,106.45487760896117L1007.9999999999999,105.21903776761673L1014.0000000000001,92.40568463585839L1020,83.96316950668142L1026,87.95156424730561L1032,77.51824861460659L1038,75.78521114405231L1044,83.04478922972828L1050,84.38256814175702L1056,98.01158796604795L1062,84.3087435654183L1068,89.66787012168044L1074,89.86540064661676L1080,85.45696705251322L1086,91.11130746405962L1092,89.97695980192208L1098,90.05085445476175L1104,91.60417521615386L1110,87.2547125138019L1116,88.4175060818896L1122,89.11518222274225L1128,90.28826862682007L1134,84.20170387094674L1140,83.5677329567996L1146,78.66039849924607L1152,80.9974304533456L1158,86.1721208153042L1164,96.06735163079935L1170,94.45957027165434L1176,107.07573465280745L1182,100.31011936529296L1188,100.77767957129373L1194,92.75881512688574L1200,96.24689702824935L1206,96.07628147981285L1212,98.2373768400056L1218,89.72564951842446L1224,83.86413240590946L1230,95.43703930472878L1236,100.87179947433202L1242,100.36020691715078L1248,94.77181875421053L1254,93.68225054570115L1260,86.99257374184185L1266,82.22428693995988L1272,92.94414805547075L1278,99.37606472477722L1284,94.1813334387864L1290,100.11837595476658L1296,98.39916883572312L1302,105.66704513230547L1308,98.71040240286959L1314,108.11724996184807" style="fill: none;" fill="none"></path></g></g></g></g><g opacity="0.2"><g><g><g><path stroke="rgb(255, 112, 67)" stroke-width="2px" d="M120,512.6766446828842L125.99999999999999,303.3054005205631L132,420.2514891922474L138,207.1077851057053L144,201.4491233825684L150,388.1856361627579L156,99.592818081379L162,490.04191330075264L168,420.2514891922474L174,286.32933086156845L180,412.70659750699997L186.00000000000003,188.2454854846001L192,346.68863332271576L198.00000000000003,312.73652216792107L204,261.80836951732635L210,354.2335250079632L216,195.79040533304217L222,258.0359095931053L228,378.7544863522053L234,273.12574928998947L240,352.34729504585266L246,190.13174360990527L251.99999999999997,258.0359095931053L258,299.5329405963421L264,142.97602272033694L270,192.01794540882113L276,237.2874081730843L282,142.97602272033694L288,335.37125355005264L294,193.9042035341263L300,216.53890675306323L306,139.20361912250522L312,148.63474076986316L318,212.7664468288422L324,201.4491233825684L330,193.9042035341263L336,371.20959466695786L342,327.82633370161057L348,286.32933086156845L354,195.79040533304217L360,244.83232802152637L366,295.76048067212105L372.00000000000006,286.32933086156845L378,224.0838266015053L384,244.83232802152637L390,248.6047879457474L396.00000000000006,254.26344966888428L402,161.83832234144214L408,231.62874644994739L413.99999999999994,129.77244114875796L420,218.4251648783684L426,237.2874081730843L432,161.83832234144214L437.99999999999994,109.02393972873693L444,207.1077851057053L450,233.51494824886325L456,135.43115919828418L462.00000000000006,224.0838266015053L468,190.13174360990527L474,125.99998122453692L480,125.99998122453692L486.00000000000006,141.08982092142108L492,144.86228084564212L498,184.47308188676837L503.99999999999994,216.53890675306323L510,118.45511770248419L516,175.04190391302112L522,161.83832234144214L528,207.1077851057053L534,229.7424883246422L540,86.38923650980001L546,159.95212054252627L552,156.17966061830523L558,112.79639965295797L564,97.70655995607382L570,152.4072006940842L576,93.93415635824209L582,120.34131950140005L588,75.0718567371369L594,165.61078226566318L600,114.68265777826315L606,92.04789823293692L612,148.63474076986316L618,141.08982092142108L624,146.74848264455798L630,107.13773792982107L636,92.04789823293692L642,178.81436383724215L648,110.91019785404211L654,122.22752130031589L660,90.16169643402105L666,103.36527800560003L672,122.22752130031589L678,82.61677658557898L684,154.29340249300006L690,75.0718567371369L696,137.31736099720004L702,133.544901072979L708,112.79639965295797L714,122.22752130031589L720,110.91019785404211L726,78.84431666135794L732,109.02393972873693L737.9999999999999,107.13773792982107L744.0000000000001,95.82035815715795L750,127.8862393498421L756,97.70655995607382L762,150.52094256877902L768,116.56885957717901L774,92.04789823293692L780,48.66469359397894L785.9999999999999,116.56885957717901L792.0000000000001,76.95805853605276L798,92.04789823293692L804,118.45511770248419L810,103.36527800560003L816,109.02393972873693L822,110.91019785404211L827.9999999999999,99.592818081379L834.0000000000001,107.13773792982107L840,105.2514798045159L846,122.22752130031589L852,116.56885957717901L858,90.16169643402105L864,93.93415635824209L870,59.98201704025274L875.9999999999999,120.34131950140005L882.0000000000001,101.47901988029486L888,103.36527800560003L894,112.79639965295797L900,105.2514798045159L906,67.52693688869482L912,124.11377942562106L917.9999999999999,82.61677658557898L924.0000000000001,127.8862393498421L930,78.84431666135794L936,116.56885957717901L942,118.45511770248419L948,109.02393972873693L954,114.68265777826315L960,133.544901072979L965.9999999999999,109.02393972873693L972.0000000000001,88.27543830871588L978,65.64073508977896L984,133.544901072979L990,90.16169643402105L996,114.68265777826315L1002,107.13773792982107L1007.9999999999999,103.36527800560003L1014.0000000000001,73.18565493822103L1020,71.29939681291586L1026,93.93415635824209L1032,61.86827516555792L1038,73.18565493822103L1044,93.93415635824209L1050,86.38923650980001L1056,118.45511770248419L1062,63.75447696447378L1068,97.70655995607382L1074,90.16169643402105L1080,78.84431666135794L1086,99.592818081379L1092,88.27543830871588L1098,90.16169643402105L1104,93.93415635824209L1110,80.7305184602738L1116,90.16169643402105L1122,90.16169643402105L1128,92.04789823293692L1134,75.0718567371369L1140,82.61677658557898L1146,71.29939681291586L1152,84.50297838449484L1158,93.93415635824209L1164,110.91019785404211L1170,92.04789823293692L1176,125.99998122453692L1182,90.16169643402105L1188,101.47901988029486L1194,80.7305184602738L1200,101.47901988029486L1206,95.82035815715795L1212,101.47901988029486L1218,76.95805853605276L1224,75.0718567371369L1230,112.79639965295797L1236,109.02393972873693L1242,99.592818081379L1248,86.38923650980001L1254,92.04789823293692L1260,76.95805853605276L1266,75.0718567371369L1272,109.02393972873693L1278,109.02393972873693L1284,86.38923650980001L1290,109.02393972873693L1296,95.82035815715795L1302,116.56885957717901L1308,88.27543830871588L1314,122.22752130031589" style="fill: none;" fill="none"></path></g></g></g></g></g></g><g transform="translate(58, 378)" clip-path="url(#clip_1)"><clipPath id="clip_1"><rect width="1440" height="22"></rect></clipPath><g><g><line x1="0" y1="0" x2="0" y2="5" style="visibility: inherit;" fill="rgb(0, 0, 0)" stroke="rgb(204, 204, 204)" stroke-width="1px"></line><line x1="120" y1="0" x2="120" y2="5" style="visibility: inherit;" fill="rgb(0, 0, 0)" stroke="rgb(204, 204, 204)" stroke-width="1px"></line><line x1="240" y1="0" x2="240" y2="5" style="visibility: inherit;" fill="rgb(0, 0, 0)" stroke="rgb(204, 204, 204)" stroke-width="1px"></line><line x1="360" y1="0" x2="360" y2="5" style="visibility: inherit;" fill="rgb(0, 0, 0)" stroke="rgb(204, 204, 204)" stroke-width="1px"></line><line x1="480" y1="0" x2="480" y2="5" style="visibility: inherit;" fill="rgb(0, 0, 0)" stroke="rgb(204, 204, 204)" stroke-width="1px"></line><line x1="600" y1="0" x2="600" y2="5" style="visibility: inherit;" fill="rgb(0, 0, 0)" stroke="rgb(204, 204, 204)" stroke-width="1px"></line><line x1="720" y1="0" x2="720" y2="5" style="visibility: inherit;" fill="rgb(0, 0, 0)" stroke="rgb(204, 204, 204)" stroke-width="1px"></line><line x1="840" y1="0" x2="840" y2="5" style="visibility: inherit;" fill="rgb(0, 0, 0)" stroke="rgb(204, 204, 204)" stroke-width="1px"></line><line x1="960" y1="0" x2="960" y2="5" style="visibility: inherit;" fill="rgb(0, 0, 0)" stroke="rgb(204, 204, 204)" stroke-width="1px"></line><line x1="1080" y1="0" x2="1080" y2="5" style="visibility: inherit;" fill="rgb(0, 0, 0)" stroke="rgb(204, 204, 204)" stroke-width="1px"></line><line x1="1200" y1="0" x2="1200" y2="5" style="visibility: inherit;" fill="rgb(0, 0, 0)" stroke="rgb(204, 204, 204)" stroke-width="1px"></line><line x1="1320" y1="0" x2="1320" y2="5" style="visibility: inherit;" fill="rgb(0, 0, 0)" stroke="rgb(204, 204, 204)" stroke-width="1px"></line><line x1="1440" y1="0" x2="1440" y2="5" style="visibility: inherit;" fill="rgb(0, 0, 0)" stroke="rgb(204, 204, 204)" stroke-width="1px"></line></g><g transform="translate(0, 8)"><text x="0" y="0" dx="0em" dy="0.95em" style="text-anchor: middle; visibility: hidden; font-family: &quot;Helvetica Neue&quot;, sans-serif; font-size: 12px; font-weight: 200;" fill="rgb(50, 49, 63)" stroke="none" stroke-width="1px">-20</text><text x="120" y="0" dx="0em" dy="0.95em" style="text-anchor: middle; visibility: inherit; font-family: &quot;Helvetica Neue&quot;, sans-serif; font-size: 12px; font-weight: 200;" fill="rgb(50, 49, 63)" stroke="none" stroke-width="1px">0</text><text x="240" y="0" dx="0em" dy="0.95em" style="text-anchor: middle; visibility: inherit; font-family: &quot;Helvetica Neue&quot;, sans-serif; font-size: 12px; font-weight: 200;" fill="rgb(50, 49, 63)" stroke="none" stroke-width="1px">20</text><text x="360" y="0" dx="0em" dy="0.95em" style="text-anchor: middle; visibility: inherit; font-family: &quot;Helvetica Neue&quot;, sans-serif; font-size: 12px; font-weight: 200;" fill="rgb(50, 49, 63)" stroke="none" stroke-width="1px">40</text><text x="480" y="0" dx="0em" dy="0.95em" style="text-anchor: middle; visibility: inherit; font-family: &quot;Helvetica Neue&quot;, sans-serif; font-size: 12px; font-weight: 200;" fill="rgb(50, 49, 63)" stroke="none" stroke-width="1px">60</text><text x="600" y="0" dx="0em" dy="0.95em" style="text-anchor: middle; visibility: inherit; font-family: &quot;Helvetica Neue&quot;, sans-serif; font-size: 12px; font-weight: 200;" fill="rgb(50, 49, 63)" stroke="none" stroke-width="1px">80</text><text x="720" y="0" dx="0em" dy="0.95em" style="text-anchor: middle; visibility: inherit; font-family: &quot;Helvetica Neue&quot;, sans-serif; font-size: 12px; font-weight: 200;" fill="rgb(50, 49, 63)" stroke="none" stroke-width="1px">100</text><text x="840" y="0" dx="0em" dy="0.95em" style="text-anchor: middle; visibility: inherit; font-family: &quot;Helvetica Neue&quot;, sans-serif; font-size: 12px; font-weight: 200;" fill="rgb(50, 49, 63)" stroke="none" stroke-width="1px">120</text><text x="960" y="0" dx="0em" dy="0.95em" style="text-anchor: middle; visibility: inherit; font-family: &quot;Helvetica Neue&quot;, sans-serif; font-size: 12px; font-weight: 200;" fill="rgb(50, 49, 63)" stroke="none" stroke-width="1px">140</text><text x="1080" y="0" dx="0em" dy="0.95em" style="text-anchor: middle; visibility: inherit; font-family: &quot;Helvetica Neue&quot;, sans-serif; font-size: 12px; font-weight: 200;" fill="rgb(50, 49, 63)" stroke="none" stroke-width="1px">160</text><text x="1200" y="0" dx="0em" dy="0.95em" style="text-anchor: middle; visibility: inherit; font-family: &quot;Helvetica Neue&quot;, sans-serif; font-size: 12px; font-weight: 200;" fill="rgb(50, 49, 63)" stroke="none" stroke-width="1px">180</text><text x="1320" y="0" dx="0em" dy="0.95em" style="text-anchor: middle; visibility: inherit; font-family: &quot;Helvetica Neue&quot;, sans-serif; font-size: 12px; font-weight: 200;" fill="rgb(50, 49, 63)" stroke="none" stroke-width="1px">200</text><text x="1440" y="0" dx="0em" dy="0.95em" style="text-anchor: middle; visibility: hidden; font-family: &quot;Helvetica Neue&quot;, sans-serif; font-size: 12px; font-weight: 200;" fill="rgb(50, 49, 63)" stroke="none" stroke-width="1px">220</text></g><line x1="0" y1="0" x2="1440" y2="0" fill="rgb(0, 0, 0)" stroke="rgb(204, 204, 204)" stroke-width="1px"></line></g></g></g></g></svg>