<svg viewBox="0 0 1498 400" xmlns="http://www.w3.org/2000/svg"><g><g><g><g><g><line x1="94" y1="378" x2="89" y2="378" style="visibility: inherit;" fill="rgb(0, 0, 0)" stroke="rgb(204, 204, 204)" stroke-width="1px"></line><line x1="94" y1="323.9999999999999" x2="89" y2="323.9999999999999" style="visibility: inherit;" fill="rgb(0, 0, 0)" stroke="rgb(204, 204, 204)" stroke-width="1px"></line><line x1="94" y1="269.9999999999997" x2="89" y2="269.9999999999997" style="visibility: inherit;" fill="rgb(0, 0, 0)" stroke="rgb(204, 204, 204)" stroke-width="1px"></line><line x1="94" y1="216.00000000000009" x2="89" y2="216.00000000000009" style="visibility: inherit;" fill="rgb(0, 0, 0)" stroke="rgb(204, 204, 204)" stroke-width="1px"></line><line x1="94" y1="161.99999999999991" x2="89" y2="161.99999999999991" style="visibility: inherit;" fill="rgb(0, 0, 0)" stroke="rgb(204, 204, 204)" stroke-width="1px"></line><line x1="94" y1="107.99999999999977" x2="89" y2="107.99999999999977" style="visibility: inherit;" fill="rgb(0, 0, 0)" stroke="rgb(204, 204, 204)" stroke-width="1px"></line><line x1="94" y1="54.00000000000017" x2="89" y2="54.00000000000017" style="visibility: inherit;" fill="rgb(0, 0, 0)" stroke="rgb(204, 204, 204)" stroke-width="1px"></line><line x1="94" y1="0" x2="89" y2="0" style="visibility: inherit;" fill="rgb(0, 0, 0)" stroke="rgb(204, 204, 204)" stroke-width="1px"></line></g><g transform="translate(84, 0)"><text x="0" y="378" dx="0em" dy="0.3em" style="text-anchor: end; visibility: hidden; font-family: &quot;Helvetica Neue&quot;, sans-serif; font-size: 12px; font-weight: 200;" fill="rgb(50, 49, 63)" stroke="none" stroke-width="1px">2.1e-3</text><text x="0" y="323.9999999999999" dx="0em" dy="0.3em" style="text-anchor: end; visibility: inherit; font-family: &quot;Helvetica Neue&quot;, sans-serif; font-size: 12px; font-weight: 200;" fill="rgb(50, 49, 63)" stroke="none" stroke-width="1px">2.15e-3</text><text x="0" y="269.9999999999997" dx="0em" dy="0.3em" style="text-anchor: end; visibility: inherit; font-family: &quot;Helvetica Neue&quot;, sans-serif; font-size: 12px; font-weight: 200;" fill="rgb(50, 49, 63)" stroke="none" stroke-width="1px">2.2e-3</text><text x="0" y="216.00000000000009" dx="0em" dy="0.3em" style="text-anchor: end; visibility: inherit; font-family: &quot;Helvetica Neue&quot;, sans-serif; font-size: 12px; font-weight: 200;" fill="rgb(50, 49, 63)" stroke="none" stroke-width="1px">2.25e-3</text><text x="0" y="161.99999999999991" dx="0em" dy="0.3em" style="text-anchor: end; visibility: inherit; font-family: &quot;Helvetica Neue&quot;, sans-serif; font-size: 12px; font-weight: 200;" fill="rgb(50, 49, 63)" stroke="none" stroke-width="1px">2.3e-3</text><text x="0" y="107.99999999999977" dx="0em" dy="0.3em" style="text-anchor: end; visibility: inherit; font-family: &quot;Helvetica Neue&quot;, sans-serif; font-size: 12px; font-weight: 200;" fill="rgb(50, 49, 63)" stroke="none" stroke-width="1px">2.35e-3</text><text x="0" y="54.00000000000017" dx="0em" dy="0.3em" style="text-anchor: end; visibility: inherit; font-family: &quot;Helvetica Neue&quot;, sans-serif; font-size: 12px; font-weight: 200;" fill="rgb(50, 49, 63)" stroke="none" stroke-width="1px">2.4e-3</text><text x="0" y="0" dx="0em" dy="0.3em" style="text-anchor: end; visibility: hidden; font-family: &quot;Helvetica Neue&quot;, sans-serif; font-size: 12px; font-weight: 200;" fill="rgb(50, 49, 63)" stroke="none" stroke-width="1px">2.45e-3</text></g><line x1="94" y1="0" x2="94" y2="378" fill="rgb(0, 0, 0)" stroke="rgb(204, 204, 204)" stroke-width="1px"></line></g></g><g transform="translate(94, 0)" clip-path="url(#clip_0)"><clipPath id="clip_0"><rect width="1404" height="378"></rect></clipPath><g><g><g><line x1="0" y1="0" x2="0" y2="378" fill="rgb(0, 0, 0)" stroke="rgb(60, 60, 60)" stroke-width="1px" opacity="0.25"></line><line x1="117" y1="0" x2="117" y2="378" fill="rgb(0, 0, 0)" stroke="rgb(60, 60, 60)" stroke-width="1px" opacity="0.25"></line><line x1="234" y1="0" x2="234" y2="378" fill="rgb(0, 0, 0)" stroke="rgb(60, 60, 60)" stroke-width="1px" opacity="0.25"></line><line x1="351" y1="0" x2="351" y2="378" fill="rgb(0, 0, 0)" stroke="rgb(60, 60, 60)" stroke-width="1px" opacity="0.25"></line><line x1="468" y1="0" x2="468" y2="378" fill="rgb(0, 0, 0)" stroke="rgb(60, 60, 60)" stroke-width="1px" opacity="0.25"></line><line x1="585" y1="0" x2="585" y2="378" fill="rgb(0, 0, 0)" stroke="rgb(60, 60, 60)" stroke-width="1px" opacity="0.25"></line><line x1="702" y1="0" x2="702" y2="378" fill="rgb(0, 0, 0)" stroke="rgb(60, 60, 60)" stroke-width="1px" opacity="0.25"></line><line x1="819" y1="0" x2="819" y2="378" fill="rgb(0, 0, 0)" stroke="rgb(60, 60, 60)" stroke-width="1px" opacity="0.25"></line><line x1="936" y1="0" x2="936" y2="378" fill="rgb(0, 0, 0)" stroke="rgb(60, 60, 60)" stroke-width="1px" opacity="0.25"></line><line x1="1053" y1="0" x2="1053" y2="378" fill="rgb(0, 0, 0)" stroke="rgb(60, 60, 60)" stroke-width="1px" opacity="0.25"></line><line x1="1170" y1="0" x2="1170" y2="378" fill="rgb(0, 0, 0)" stroke="rgb(60, 60, 60)" stroke-width="1px" opacity="0.25"></line><line x1="1287" y1="0" x2="1287" y2="378" fill="rgb(0, 0, 0)" stroke="rgb(60, 60, 60)" stroke-width="1px" opacity="0.25"></line><line x1="1404" y1="0" x2="1404" y2="378" fill="rgb(0, 0, 0)" stroke="rgb(60, 60, 60)" stroke-width="1px" opacity="0.25"></line></g><g><line x1="0" y1="378" x2="1404" y2="378" fill="rgb(0, 0, 0)" stroke="rgb(60, 60, 60)" stroke-width="1px" opacity="0.25"></line><line x1="0" y1="323.9999999999999" x2="1404" y2="323.9999999999999" fill="rgb(0, 0, 0)" stroke="rgb(60, 60, 60)" stroke-width="1px" opacity="0.25"></line><line x1="0" y1="269.9999999999997" x2="1404" y2="269.9999999999997" fill="rgb(0, 0, 0)" stroke="rgb(60, 60, 60)" stroke-width="1px" opacity="0.25"></line><line x1="0" y1="216.00000000000009" x2="1404" y2="216.00000000000009" fill="rgb(0, 0, 0)" stroke="rgb(60, 60, 60)" stroke-width="1px" opacity="0.25"></line><line x1="0" y1="161.99999999999991" x2="1404" y2="161.99999999999991" fill="rgb(0, 0, 0)" stroke="rgb(60, 60, 60)" stroke-width="1px" opacity="0.25"></line><line x1="0" y1="107.99999999999977" x2="1404" y2="107.99999999999977" fill="rgb(0, 0, 0)" stroke="rgb(60, 60, 60)" stroke-width="1px" opacity="0.25"></line><line x1="0" y1="54.00000000000017" x2="1404" y2="54.00000000000017" fill="rgb(0, 0, 0)" stroke="rgb(60, 60, 60)" stroke-width="1px" opacity="0.25"></line><line x1="0" y1="0" x2="1404" y2="0" fill="rgb(0, 0, 0)" stroke="rgb(60, 60, 60)" stroke-width="1px" opacity="0.25"></line></g></g></g><g><g><line x1="0" y1="2645.9999999999995" x2="1404" y2="2645.9999999999995" fill="rgb(0, 0, 0)" stroke="rgb(153, 153, 153)" stroke-width="1.5px"></line></g></g><g><g><line x1="117" y1="0" x2="117" y2="378" fill="rgb(0, 0, 0)" stroke="rgb(153, 153, 153)" stroke-width="1.5px"></line></g></g><g><g><g><g><g><path stroke="rgb(255, 112, 67)" stroke-width="2px" d="M117,96.05205273628223L122.85,35.0493158251046L128.7,292.4938558638095L134.55,-39.38877367973333L140.4,283.7434004098176L146.25,206.19855849444855L152.1,64.11524145305145L157.95000000000002,206.02530455589283L163.8,198.10591480135906L169.65,202.38948641717423L175.5,209.13306279480446L181.35000000000002,99.41830886900414L187.2,-97.94885636866098L193.05,308.1747203171252L198.9,-3.026820436120147L204.75,-302.76267202198517L210.6,172.04490146040908L216.45000000000002,72.65950208902348L222.29999999999998,175.41870130598534L228.15,267.10800482332695L234,225.25221696495998L239.85,247.90925560891617L245.7,275.6054944396018L251.55,240.80031207203854L257.4,22.901926472782975L263.25,199.11978980898846L269.1,112.46868064999569L274.95,-161.6575230807067L280.8,199.9656914770602L286.65,-22.323386460542736L292.5,211.64009003341187L298.34999999999997,55.657482057809716L304.2,208.7254508435725L310.05,264.6643447726964L315.90000000000003,228.9164497554301L321.75,150.42939810454834L327.6,261.01846835017193L333.45,201.03262393176544L339.3,80.36515331268299L345.15,193.0893457531928L351,167.12514339387408L356.84999999999997,129.89742337167252L362.70000000000005,207.48249842226494L368.55,149.6021042615174L374.4,202.45763128995884L380.25,203.97316320240486L386.1,102.37418702244753L391.95,90.55746375024307L397.8,33.85263150930399L403.65,176.44238314032543L409.5,175.6510476619004L415.35,230.93539877235878L421.2,312.48368909955013L427.04999999999995,215.01539862155903L432.90000000000003,209.94979543983925L438.75,296.2931211143731L444.59999999999997,268.96199798583973L450.45000000000005,205.5829915255307L456.3,194.01521077752102L462.15,291.4176194965838L468,322.0144159197806L473.85,223.8174027800559L479.7,230.41966027021397L485.55,255.3508768826722L491.4,217.10827602446068L497.25,230.26778018474565L503.1,317.71273939311493L508.95,254.13432745635498L514.8,194.023760318756L520.65,317.3144313544034L526.5,244.21560233831391L532.35,291.43019235134113L538.2,219.57607595622528L544.0500000000001,227.96418173611153L549.9,343.6761873811482L555.75,232.81604638695705L561.6,247.5619933605193L567.45,257.8023321032523L573.3,260.2140571027993L579.15,297.8438570201396L585,299.9218984544276L590.85,316.8985213190316L596.6999999999999,269.73371981084335L602.55,314.7508262693881L608.4,314.5760635882615L614.25,226.52836172282684L620.1,232.66416630148876L625.95,276.4845884442328L631.8000000000001,295.5978422462939L637.65,292.94723300635803L643.5,340.1535249352454L649.35,282.9181182235478L655.2,230.27959866821755L661.05,285.8528739809989L666.9,305.11373309791077L672.75,279.1716589629649L678.6,298.55548059940327L684.4499999999999,277.20224699378L690.3,292.21549285948265L696.15,268.79176153242577L702,318.07332886755455L707.85,324.777677938342L713.6999999999999,325.9195446074008L719.55,304.711653202772L725.4000000000001,298.6967994868754L731.25,269.1397781521081L737.1,325.6768885105847L742.95,289.81256885826576L748.8,278.8678987920283L754.65,325.71963621675957L760.5,272.16983614861954L766.3499999999999,261.8699020743369L772.2,313.53201372921455L778.0500000000001,316.5228444188832L783.9,267.51813134551037L789.75,299.63247133791435L795.6,271.0254549086093L801.4499999999999,289.75850558280933L807.3,298.8295688331126L813.1500000000001,279.25036503374565L819,309.54491002857674L824.85,328.8095410019158L830.7,286.76163992285717L836.55,275.7895610332488L842.4,298.6781916618346L848.25,289.449967727065L854.0999999999999,292.6982904821633L859.95,277.4003951847552L865.8000000000001,276.48307970166195L871.65,308.6419275999068L877.5,290.53500509262074L883.35,319.6280880868434L889.1999999999999,318.2206827253102L895.05,297.45434997975815L900.9000000000001,284.7650705873965L906.75,299.8411807268857L912.6,298.0352158695458L918.45,271.06065890192974L924.3,287.3613650947808L930.15,295.6456190943717L936,291.49557119607914L941.8499999999999,303.25194476544846L947.7,289.3798111975192L953.5500000000001,284.1288841366767L959.4,281.1478602737187L965.25,306.00338830053795L971.1,346.85636526346195L976.9499999999999,307.2750068306922L982.8,290.26544308662403L988.6500000000001,323.761036902666L994.5,319.102794215083L1000.35,295.01546761393536L1006.2,308.6507285982369L1012.05,295.3539288640021L1017.9,312.2483252584933L1023.75,279.3637721836566L1029.6,276.24746440351L1035.45,279.6454041302203L1041.3,299.39509584009636L1047.15,282.8952356278895L1053,317.33278772234905L1058.85,290.2136429250239L1064.7,286.0603260844945L1070.55,284.06501403450955L1076.4,296.5707297474145L1082.25,311.68279825150955L1088.1000000000001,286.28060249984253L1093.95,298.27233991026867L1099.8,287.20093546807755L1105.6499999999999,304.8481944054364L1111.5,320.97614957392204L1117.35,304.43027271330345L1123.2,295.97427351772774L1129.05,313.111326009035L1134.9,313.72085800766934L1140.75,304.8215399533509L1146.6,294.307867348194L1152.45,312.90689139068115L1158.3,299.61235477030266L1164.15,326.65505661070335L1170,303.07165002822865L1175.8500000000001,300.15952540934074L1181.7,305.7303058952092L1187.55,285.41483572125424L1193.3999999999999,321.91760493814934L1199.25,288.0043408870696L1205.1,301.06879426538933L1210.95,281.1310126483439L1216.8,291.26146464049805L1222.65,311.2012579143046L1228.5,267.76355347037304L1234.35,265.79841627180565L1240.2,293.5761272013186L1246.05,286.2182411402463L1251.9,303.15337358415115L1257.75,305.57037918269623L1263.6000000000001,285.83200304210175L1269.45,270.0580994635819L1275.3,294.80751259624947L1281.1499999999999,296.8747413754462" style="fill: none;" fill="none"></path></g></g></g></g></g></g><g transform="translate(94, 378)" clip-path="url(#clip_1)"><clipPath id="clip_1"><rect width="1404" height="22"></rect></clipPath><g><g><line x1="0" y1="0" x2="0" y2="5" style="visibility: inherit;" fill="rgb(0, 0, 0)" stroke="rgb(204, 204, 204)" stroke-width="1px"></line><line x1="117" y1="0" x2="117" y2="5" style="visibility: inherit;" fill="rgb(0, 0, 0)" stroke="rgb(204, 204, 204)" stroke-width="1px"></line><line x1="234" y1="0" x2="234" y2="5" style="visibility: inherit;" fill="rgb(0, 0, 0)" stroke="rgb(204, 204, 204)" stroke-width="1px"></line><line x1="351" y1="0" x2="351" y2="5" style="visibility: inherit;" fill="rgb(0, 0, 0)" stroke="rgb(204, 204, 204)" stroke-width="1px"></line><line x1="468" y1="0" x2="468" y2="5" style="visibility: inherit;" fill="rgb(0, 0, 0)" stroke="rgb(204, 204, 204)" stroke-width="1px"></line><line x1="585" y1="0" x2="585" y2="5" style="visibility: inherit;" fill="rgb(0, 0, 0)" stroke="rgb(204, 204, 204)" stroke-width="1px"></line><line x1="702" y1="0" x2="702" y2="5" style="visibility: inherit;" fill="rgb(0, 0, 0)" stroke="rgb(204, 204, 204)" stroke-width="1px"></line><line x1="819" y1="0" x2="819" y2="5" style="visibility: inherit;" fill="rgb(0, 0, 0)" stroke="rgb(204, 204, 204)" stroke-width="1px"></line><line x1="936" y1="0" x2="936" y2="5" style="visibility: inherit;" fill="rgb(0, 0, 0)" stroke="rgb(204, 204, 204)" stroke-width="1px"></line><line x1="1053" y1="0" x2="1053" y2="5" style="visibility: inherit;" fill="rgb(0, 0, 0)" stroke="rgb(204, 204, 204)" stroke-width="1px"></line><line x1="1170" y1="0" x2="1170" y2="5" style="visibility: inherit;" fill="rgb(0, 0, 0)" stroke="rgb(204, 204, 204)" stroke-width="1px"></line><line x1="1287" y1="0" x2="1287" y2="5" style="visibility: inherit;" fill="rgb(0, 0, 0)" stroke="rgb(204, 204, 204)" stroke-width="1px"></line><line x1="1404" y1="0" x2="1404" y2="5" style="visibility: inherit;" fill="rgb(0, 0, 0)" stroke="rgb(204, 204, 204)" stroke-width="1px"></line></g><g transform="translate(0, 8)"><text x="0" y="0" dx="0em" dy="0.95em" style="text-anchor: middle; visibility: hidden; font-family: &quot;Helvetica Neue&quot;, sans-serif; font-size: 12px; font-weight: 200;" fill="rgb(50, 49, 63)" stroke="none" stroke-width="1px">-20</text><text x="117" y="0" dx="0em" dy="0.95em" style="text-anchor: middle; visibility: inherit; font-family: &quot;Helvetica Neue&quot;, sans-serif; font-size: 12px; font-weight: 200;" fill="rgb(50, 49, 63)" stroke="none" stroke-width="1px">0</text><text x="234" y="0" dx="0em" dy="0.95em" style="text-anchor: middle; visibility: inherit; font-family: &quot;Helvetica Neue&quot;, sans-serif; font-size: 12px; font-weight: 200;" fill="rgb(50, 49, 63)" stroke="none" stroke-width="1px">20</text><text x="351" y="0" dx="0em" dy="0.95em" style="text-anchor: middle; visibility: inherit; font-family: &quot;Helvetica Neue&quot;, sans-serif; font-size: 12px; font-weight: 200;" fill="rgb(50, 49, 63)" stroke="none" stroke-width="1px">40</text><text x="468" y="0" dx="0em" dy="0.95em" style="text-anchor: middle; visibility: inherit; font-family: &quot;Helvetica Neue&quot;, sans-serif; font-size: 12px; font-weight: 200;" fill="rgb(50, 49, 63)" stroke="none" stroke-width="1px">60</text><text x="585" y="0" dx="0em" dy="0.95em" style="text-anchor: middle; visibility: inherit; font-family: &quot;Helvetica Neue&quot;, sans-serif; font-size: 12px; font-weight: 200;" fill="rgb(50, 49, 63)" stroke="none" stroke-width="1px">80</text><text x="702" y="0" dx="0em" dy="0.95em" style="text-anchor: middle; visibility: inherit; font-family: &quot;Helvetica Neue&quot;, sans-serif; font-size: 12px; font-weight: 200;" fill="rgb(50, 49, 63)" stroke="none" stroke-width="1px">100</text><text x="819" y="0" dx="0em" dy="0.95em" style="text-anchor: middle; visibility: inherit; font-family: &quot;Helvetica Neue&quot;, sans-serif; font-size: 12px; font-weight: 200;" fill="rgb(50, 49, 63)" stroke="none" stroke-width="1px">120</text><text x="936" y="0" dx="0em" dy="0.95em" style="text-anchor: middle; visibility: inherit; font-family: &quot;Helvetica Neue&quot;, sans-serif; font-size: 12px; font-weight: 200;" fill="rgb(50, 49, 63)" stroke="none" stroke-width="1px">140</text><text x="1053" y="0" dx="0em" dy="0.95em" style="text-anchor: middle; visibility: inherit; font-family: &quot;Helvetica Neue&quot;, sans-serif; font-size: 12px; font-weight: 200;" fill="rgb(50, 49, 63)" stroke="none" stroke-width="1px">160</text><text x="1170" y="0" dx="0em" dy="0.95em" style="text-anchor: middle; visibility: inherit; font-family: &quot;Helvetica Neue&quot;, sans-serif; font-size: 12px; font-weight: 200;" fill="rgb(50, 49, 63)" stroke="none" stroke-width="1px">180</text><text x="1287" y="0" dx="0em" dy="0.95em" style="text-anchor: middle; visibility: inherit; font-family: &quot;Helvetica Neue&quot;, sans-serif; font-size: 12px; font-weight: 200;" fill="rgb(50, 49, 63)" stroke="none" stroke-width="1px">200</text><text x="1404" y="0" dx="0em" dy="0.95em" style="text-anchor: middle; visibility: hidden; font-family: &quot;Helvetica Neue&quot;, sans-serif; font-size: 12px; font-weight: 200;" fill="rgb(50, 49, 63)" stroke="none" stroke-width="1px">220</text></g><line x1="0" y1="0" x2="1404" y2="0" fill="rgb(0, 0, 0)" stroke="rgb(204, 204, 204)" stroke-width="1px"></line></g></g></g></g></svg>