<svg viewBox="0 0 1498 400" xmlns="http://www.w3.org/2000/svg"><g><g><g><g><g><line x1="70" y1="378" x2="65" y2="378" style="visibility: inherit;" fill="rgb(0, 0, 0)" stroke="rgb(204, 204, 204)" stroke-width="1px"></line><line x1="70" y1="340.2" x2="65" y2="340.2" style="visibility: inherit;" fill="rgb(0, 0, 0)" stroke="rgb(204, 204, 204)" stroke-width="1px"></line><line x1="70" y1="302.4" x2="65" y2="302.4" style="visibility: inherit;" fill="rgb(0, 0, 0)" stroke="rgb(204, 204, 204)" stroke-width="1px"></line><line x1="70" y1="264.6" x2="65" y2="264.6" style="visibility: inherit;" fill="rgb(0, 0, 0)" stroke="rgb(204, 204, 204)" stroke-width="1px"></line><line x1="70" y1="226.79999999999998" x2="65" y2="226.79999999999998" style="visibility: inherit;" fill="rgb(0, 0, 0)" stroke="rgb(204, 204, 204)" stroke-width="1px"></line><line x1="70" y1="188.99999999999997" x2="65" y2="188.99999999999997" style="visibility: inherit;" fill="rgb(0, 0, 0)" stroke="rgb(204, 204, 204)" stroke-width="1px"></line><line x1="70" y1="151.19999999999996" x2="65" y2="151.19999999999996" style="visibility: inherit;" fill="rgb(0, 0, 0)" stroke="rgb(204, 204, 204)" stroke-width="1px"></line><line x1="70" y1="113.40000000000003" x2="65" y2="113.40000000000003" style="visibility: inherit;" fill="rgb(0, 0, 0)" stroke="rgb(204, 204, 204)" stroke-width="1px"></line><line x1="70" y1="75.59999999999997" x2="65" y2="75.59999999999997" style="visibility: inherit;" fill="rgb(0, 0, 0)" stroke="rgb(204, 204, 204)" stroke-width="1px"></line><line x1="70" y1="37.80000000000001" x2="65" y2="37.80000000000001" style="visibility: inherit;" fill="rgb(0, 0, 0)" stroke="rgb(204, 204, 204)" stroke-width="1px"></line><line x1="70" y1="0" x2="65" y2="0" style="visibility: inherit;" fill="rgb(0, 0, 0)" stroke="rgb(204, 204, 204)" stroke-width="1px"></line></g><g transform="translate(60, 0)"><text x="0" y="378" dx="0em" dy="0.3em" style="text-anchor: end; visibility: hidden; font-family: &quot;Helvetica Neue&quot;, sans-serif; font-size: 12px; font-weight: 200;" fill="rgb(50, 49, 63)" stroke="none" stroke-width="1px">-5e-3</text><text x="0" y="340.2" dx="0em" dy="0.3em" style="text-anchor: end; visibility: inherit; font-family: &quot;Helvetica Neue&quot;, sans-serif; font-size: 12px; font-weight: 200;" fill="rgb(50, 49, 63)" stroke="none" stroke-width="1px">0</text><text x="0" y="302.4" dx="0em" dy="0.3em" style="text-anchor: end; visibility: inherit; font-family: &quot;Helvetica Neue&quot;, sans-serif; font-size: 12px; font-weight: 200;" fill="rgb(50, 49, 63)" stroke="none" stroke-width="1px">5e-3</text><text x="0" y="264.6" dx="0em" dy="0.3em" style="text-anchor: end; visibility: inherit; font-family: &quot;Helvetica Neue&quot;, sans-serif; font-size: 12px; font-weight: 200;" fill="rgb(50, 49, 63)" stroke="none" stroke-width="1px">0.01</text><text x="0" y="226.79999999999998" dx="0em" dy="0.3em" style="text-anchor: end; visibility: inherit; font-family: &quot;Helvetica Neue&quot;, sans-serif; font-size: 12px; font-weight: 200;" fill="rgb(50, 49, 63)" stroke="none" stroke-width="1px">0.015</text><text x="0" y="188.99999999999997" dx="0em" dy="0.3em" style="text-anchor: end; visibility: inherit; font-family: &quot;Helvetica Neue&quot;, sans-serif; font-size: 12px; font-weight: 200;" fill="rgb(50, 49, 63)" stroke="none" stroke-width="1px">0.02</text><text x="0" y="151.19999999999996" dx="0em" dy="0.3em" style="text-anchor: end; visibility: inherit; font-family: &quot;Helvetica Neue&quot;, sans-serif; font-size: 12px; font-weight: 200;" fill="rgb(50, 49, 63)" stroke="none" stroke-width="1px">0.025</text><text x="0" y="113.40000000000003" dx="0em" dy="0.3em" style="text-anchor: end; visibility: inherit; font-family: &quot;Helvetica Neue&quot;, sans-serif; font-size: 12px; font-weight: 200;" fill="rgb(50, 49, 63)" stroke="none" stroke-width="1px">0.03</text><text x="0" y="75.59999999999997" dx="0em" dy="0.3em" style="text-anchor: end; visibility: inherit; font-family: &quot;Helvetica Neue&quot;, sans-serif; font-size: 12px; font-weight: 200;" fill="rgb(50, 49, 63)" stroke="none" stroke-width="1px">0.035</text><text x="0" y="37.80000000000001" dx="0em" dy="0.3em" style="text-anchor: end; visibility: inherit; font-family: &quot;Helvetica Neue&quot;, sans-serif; font-size: 12px; font-weight: 200;" fill="rgb(50, 49, 63)" stroke="none" stroke-width="1px">0.04</text><text x="0" y="0" dx="0em" dy="0.3em" style="text-anchor: end; visibility: hidden; font-family: &quot;Helvetica Neue&quot;, sans-serif; font-size: 12px; font-weight: 200;" fill="rgb(50, 49, 63)" stroke="none" stroke-width="1px">0.045</text></g><line x1="70" y1="0" x2="70" y2="378" fill="rgb(0, 0, 0)" stroke="rgb(204, 204, 204)" stroke-width="1px"></line></g></g><g transform="translate(70, 0)" clip-path="url(#clip_0)"><clipPath id="clip_0"><rect width="1428" height="378"></rect></clipPath><g><g><g><line x1="0" y1="0" x2="0" y2="378" fill="rgb(0, 0, 0)" stroke="rgb(60, 60, 60)" stroke-width="1px" opacity="0.25"></line><line x1="119" y1="0" x2="119" y2="378" fill="rgb(0, 0, 0)" stroke="rgb(60, 60, 60)" stroke-width="1px" opacity="0.25"></line><line x1="238" y1="0" x2="238" y2="378" fill="rgb(0, 0, 0)" stroke="rgb(60, 60, 60)" stroke-width="1px" opacity="0.25"></line><line x1="357" y1="0" x2="357" y2="378" fill="rgb(0, 0, 0)" stroke="rgb(60, 60, 60)" stroke-width="1px" opacity="0.25"></line><line x1="476" y1="0" x2="476" y2="378" fill="rgb(0, 0, 0)" stroke="rgb(60, 60, 60)" stroke-width="1px" opacity="0.25"></line><line x1="595" y1="0" x2="595" y2="378" fill="rgb(0, 0, 0)" stroke="rgb(60, 60, 60)" stroke-width="1px" opacity="0.25"></line><line x1="714" y1="0" x2="714" y2="378" fill="rgb(0, 0, 0)" stroke="rgb(60, 60, 60)" stroke-width="1px" opacity="0.25"></line><line x1="833" y1="0" x2="833" y2="378" fill="rgb(0, 0, 0)" stroke="rgb(60, 60, 60)" stroke-width="1px" opacity="0.25"></line><line x1="952" y1="0" x2="952" y2="378" fill="rgb(0, 0, 0)" stroke="rgb(60, 60, 60)" stroke-width="1px" opacity="0.25"></line><line x1="1071" y1="0" x2="1071" y2="378" fill="rgb(0, 0, 0)" stroke="rgb(60, 60, 60)" stroke-width="1px" opacity="0.25"></line><line x1="1190" y1="0" x2="1190" y2="378" fill="rgb(0, 0, 0)" stroke="rgb(60, 60, 60)" stroke-width="1px" opacity="0.25"></line><line x1="1309" y1="0" x2="1309" y2="378" fill="rgb(0, 0, 0)" stroke="rgb(60, 60, 60)" stroke-width="1px" opacity="0.25"></line><line x1="1428" y1="0" x2="1428" y2="378" fill="rgb(0, 0, 0)" stroke="rgb(60, 60, 60)" stroke-width="1px" opacity="0.25"></line></g><g><line x1="0" y1="378" x2="1428" y2="378" fill="rgb(0, 0, 0)" stroke="rgb(60, 60, 60)" stroke-width="1px" opacity="0.25"></line><line x1="0" y1="340.2" x2="1428" y2="340.2" fill="rgb(0, 0, 0)" stroke="rgb(60, 60, 60)" stroke-width="1px" opacity="0.25"></line><line x1="0" y1="302.4" x2="1428" y2="302.4" fill="rgb(0, 0, 0)" stroke="rgb(60, 60, 60)" stroke-width="1px" opacity="0.25"></line><line x1="0" y1="264.6" x2="1428" y2="264.6" fill="rgb(0, 0, 0)" stroke="rgb(60, 60, 60)" stroke-width="1px" opacity="0.25"></line><line x1="0" y1="226.79999999999998" x2="1428" y2="226.79999999999998" fill="rgb(0, 0, 0)" stroke="rgb(60, 60, 60)" stroke-width="1px" opacity="0.25"></line><line x1="0" y1="188.99999999999997" x2="1428" y2="188.99999999999997" fill="rgb(0, 0, 0)" stroke="rgb(60, 60, 60)" stroke-width="1px" opacity="0.25"></line><line x1="0" y1="151.19999999999996" x2="1428" y2="151.19999999999996" fill="rgb(0, 0, 0)" stroke="rgb(60, 60, 60)" stroke-width="1px" opacity="0.25"></line><line x1="0" y1="113.40000000000003" x2="1428" y2="113.40000000000003" fill="rgb(0, 0, 0)" stroke="rgb(60, 60, 60)" stroke-width="1px" opacity="0.25"></line><line x1="0" y1="75.59999999999997" x2="1428" y2="75.59999999999997" fill="rgb(0, 0, 0)" stroke="rgb(60, 60, 60)" stroke-width="1px" opacity="0.25"></line><line x1="0" y1="37.80000000000001" x2="1428" y2="37.80000000000001" fill="rgb(0, 0, 0)" stroke="rgb(60, 60, 60)" stroke-width="1px" opacity="0.25"></line><line x1="0" y1="0" x2="1428" y2="0" fill="rgb(0, 0, 0)" stroke="rgb(60, 60, 60)" stroke-width="1px" opacity="0.25"></line></g></g></g><g><g><line x1="0" y1="340.2" x2="1428" y2="340.2" fill="rgb(0, 0, 0)" stroke="rgb(153, 153, 153)" stroke-width="1.5px"></line></g></g><g><g><line x1="119" y1="0" x2="119" y2="378" fill="rgb(0, 0, 0)" stroke="rgb(153, 153, 153)" stroke-width="1.5px"></line></g></g><g><g><g><g><g><path stroke="rgb(255, 112, 67)" stroke-width="2px" d="M154.70000000000002,-144.31909393072135L160.65,22.259274315834034L166.6,-65.01339654922486L172.55,167.5358470201492L178.5,49.142592591047276L184.45000000000002,159.74425983130928L190.4,114.2227223932743L196.35000000000002,211.04723643958567L202.29999999999998,171.5975570350885L208.25,93.00310705304145L214.2,54.71710268855094L220.15,196.30218465328215L226.1,84.25705511569976L232.05,216.54136877954005L238,60.81815187335013L243.95000000000002,214.72554680407046L249.89999999999998,245.21823898404836L255.85,42.45583344697951L261.79999999999995,172.0232578039169L267.75,141.64794277846815L273.70000000000005,234.13595851957797L279.65,75.46267513632773L285.6,179.06422544717785L291.55,269.66539163589476L297.5,278.55173852741717L303.45,261.1570863470435L309.40000000000003,105.8538601219654L315.34999999999997,247.54287835657595L321.3,209.8542153507471L327.25,219.9970350086689L333.2,211.45439174473285L339.15,277.68689610511063L345.1,252.49920633137225L351.04999999999995,264.7479429513216L357,271.60455432236193L362.95,228.17860499471425L368.90000000000003,254.29590549767016L374.85,234.55532256960868L380.8,283.13472815304993L386.75,212.99865011572837L392.70000000000005,259.7011266320944L398.65000000000003,282.8775066554546L404.59999999999997,246.6675099402666L410.54999999999995,282.74531214013695L416.5,282.655735579133L422.45,274.49703410714864L428.4,291.48264404833316L434.34999999999997,285.1287386611104L440.3,288.0976991213858L446.25,276.11607984155415L452.2,286.8548010148108L458.15000000000003,293.50271607264875L464.1,277.1070652127266L470.05,284.3891555674374L476,305.4051756531L481.95000000000005,283.5490122668445L487.90000000000003,270.25045384168624L493.84999999999997,292.011084151268L499.79999999999995,320.05431768000125L505.75,275.67655798494815L511.7,310.29371833875774L517.65,310.75517580360173L523.5999999999999,303.6768179990351L529.5500000000001,306.66051133051513L535.5,297.7566504523158L541.4499999999999,303.66266247332095L547.4000000000001,316.239584800601L553.35,301.5256216607988L559.3,306.93219110816716L565.25,315.6305257927626L571.2,273.3847498565912L577.15,309.08545040041207L583.1,295.6066545702517L589.05,291.13552915379404L595,291.9959569953382L600.95,307.61472965106367L606.9,316.8302550025284L612.8499999999999,279.8189696341753L618.8000000000001,317.69082366004585L624.75,306.74015684500336L630.6999999999999,311.5539491314441L636.6500000000001,313.3841149739921L642.6,316.9332214023918L648.55,314.4219304572791L654.5,321.40615982450544L660.45,320.29136024862527L666.4,314.5979750666767L672.35,307.72992063760756L678.3,317.0285590969026L684.25,305.9789373770356L690.2,316.38820901960133L696.15,308.40273583754896L702.0999999999999,319.7598274748772L708.0500000000001,318.62777618207036L714,294.7657015778124L719.9499999999999,297.5829187452793L725.9,317.5401576094329L731.8499999999999,302.0960214033723L737.8000000000001,321.8588321328163L743.75,321.51420088000594L749.7,318.5629920333624L755.65,323.74593515396117L761.6,321.8359301749617L767.55,315.0045952711254L773.5,235.08541726022958L779.4499999999999,320.5689930215478L785.4000000000001,316.40743920095264L791.35,315.9949821744114L797.3000000000001,313.85136525593697L803.25,274.74772878438233L809.1999999999999,301.5498032838106L815.15,321.7132354572415L821.0999999999999,324.66934645995497L827.0500000000001,311.9031868267804L833,321.78334773033856L838.95,326.78662111032753L844.9,309.75088332295417L850.85,307.7687119178474L856.8,324.55820745304226L862.75,312.8278795581311L868.6999999999999,325.2107293110341L874.6500000000001,313.4677103765309L880.6,321.4187364511192L886.5500000000001,318.03859334886073L892.5,323.17418005764483L898.4499999999999,299.4851946875453L904.4,302.0291478976607L910.3499999999999,321.8405436582863L916.3000000000001,318.05920176655053L922.25,313.21600710488855L928.2,321.1609587304294L934.15,306.3728137359023L940.1,314.55688672587274L946.05,281.3709024757147L952,314.5137618340552L957.9499999999999,314.8336200367659L963.9000000000001,296.5898704200983L969.85,317.23500411473213L975.8000000000001,316.6217927958816L981.75,325.7988780269399L987.6999999999999,323.15274610631167L993.65,322.3619165595621L999.5999999999999,269.62927937954663L1005.5500000000001,323.49876967705785L1011.5,316.4629101332277L1017.45,298.4656518369913L1023.4,325.36926169395446L1029.35,318.0988502640277L1035.3,317.8606001984328L1041.25,319.1492652565241L1047.1999999999998,314.02577111944555L1053.15,300.5303132392466L1059.1000000000001,318.2224972497672L1065.05,319.2585736557841L1071,328.5130768686533L1076.95,327.5321756813675L1082.8999999999999,310.22779534086584L1088.85,324.3521408781409L1094.8000000000002,318.2285875406116L1100.75,296.3143358051777L1106.7,296.81993203684686L1112.65,318.21747363992034L1118.6,325.1722214229405L1124.55,320.04880649484693L1130.5,308.48214900568126L1136.4499999999998,319.2465356502682L1142.4,326.6793879864737L1148.3500000000001,315.01297558173536L1154.3,303.52727847620844L1160.25,307.6118429236114L1166.2,319.52131161913275L1172.1499999999999,314.74655880108475L1178.1,311.503116325289L1184.0500000000002,323.40214703679084L1190,317.5872235883027L1195.95,323.562187910825L1201.9,324.27253936864435L1207.85,324.11743761487304L1213.8,307.67571704909204L1219.75,310.3024911738932L1225.6999999999998,321.0282062318176L1231.65,319.913582675904L1237.6000000000001,323.94838803894817L1243.55,321.55662345215677L1249.5,319.2112348459661L1255.45,313.7942573379725L1261.3999999999999,318.9965292111039L1267.35,318.44365753680466L1273.3000000000002,320.6633520450443L1279.25,318.91212939731776L1285.2,314.32247917614876L1291.15,307.3841716580093L1297.1,316.425578058511L1303.05,309.85956861153244L267.75,198.1559002071619L1309,309.85956861153244L1309,310.109721147269L1309,309.8771178022027" style="fill: none;" fill="none"></path></g></g></g></g></g><g><g opacity="0.00882114"><span fill="rgb(0, 0, 0)" stroke="none" stroke-width="1px">Alt + Scroll to Zoom</span></g></g></g><g transform="translate(70, 378)" clip-path="url(#clip_1)"><clipPath id="clip_1"><rect width="1428" height="22"></rect></clipPath><g><g><line x1="0" y1="0" x2="0" y2="5" style="visibility: inherit;" fill="rgb(0, 0, 0)" stroke="rgb(204, 204, 204)" stroke-width="1px"></line><line x1="119" y1="0" x2="119" y2="5" style="visibility: inherit;" fill="rgb(0, 0, 0)" stroke="rgb(204, 204, 204)" stroke-width="1px"></line><line x1="238" y1="0" x2="238" y2="5" style="visibility: inherit;" fill="rgb(0, 0, 0)" stroke="rgb(204, 204, 204)" stroke-width="1px"></line><line x1="357" y1="0" x2="357" y2="5" style="visibility: inherit;" fill="rgb(0, 0, 0)" stroke="rgb(204, 204, 204)" stroke-width="1px"></line><line x1="476" y1="0" x2="476" y2="5" style="visibility: inherit;" fill="rgb(0, 0, 0)" stroke="rgb(204, 204, 204)" stroke-width="1px"></line><line x1="595" y1="0" x2="595" y2="5" style="visibility: inherit;" fill="rgb(0, 0, 0)" stroke="rgb(204, 204, 204)" stroke-width="1px"></line><line x1="714" y1="0" x2="714" y2="5" style="visibility: inherit;" fill="rgb(0, 0, 0)" stroke="rgb(204, 204, 204)" stroke-width="1px"></line><line x1="833" y1="0" x2="833" y2="5" style="visibility: inherit;" fill="rgb(0, 0, 0)" stroke="rgb(204, 204, 204)" stroke-width="1px"></line><line x1="952" y1="0" x2="952" y2="5" style="visibility: inherit;" fill="rgb(0, 0, 0)" stroke="rgb(204, 204, 204)" stroke-width="1px"></line><line x1="1071" y1="0" x2="1071" y2="5" style="visibility: inherit;" fill="rgb(0, 0, 0)" stroke="rgb(204, 204, 204)" stroke-width="1px"></line><line x1="1190" y1="0" x2="1190" y2="5" style="visibility: inherit;" fill="rgb(0, 0, 0)" stroke="rgb(204, 204, 204)" stroke-width="1px"></line><line x1="1309" y1="0" x2="1309" y2="5" style="visibility: inherit;" fill="rgb(0, 0, 0)" stroke="rgb(204, 204, 204)" stroke-width="1px"></line><line x1="1428" y1="0" x2="1428" y2="5" style="visibility: inherit;" fill="rgb(0, 0, 0)" stroke="rgb(204, 204, 204)" stroke-width="1px"></line></g><g transform="translate(0, 8)"><text x="0" y="0" dx="0em" dy="0.95em" style="text-anchor: middle; visibility: hidden; font-family: &quot;Helvetica Neue&quot;, sans-serif; font-size: 12px; font-weight: 200;" fill="rgb(50, 49, 63)" stroke="none" stroke-width="1px">-20</text><text x="119" y="0" dx="0em" dy="0.95em" style="text-anchor: middle; visibility: inherit; font-family: &quot;Helvetica Neue&quot;, sans-serif; font-size: 12px; font-weight: 200;" fill="rgb(50, 49, 63)" stroke="none" stroke-width="1px">0</text><text x="238" y="0" dx="0em" dy="0.95em" style="text-anchor: middle; visibility: inherit; font-family: &quot;Helvetica Neue&quot;, sans-serif; font-size: 12px; font-weight: 200;" fill="rgb(50, 49, 63)" stroke="none" stroke-width="1px">20</text><text x="357" y="0" dx="0em" dy="0.95em" style="text-anchor: middle; visibility: inherit; font-family: &quot;Helvetica Neue&quot;, sans-serif; font-size: 12px; font-weight: 200;" fill="rgb(50, 49, 63)" stroke="none" stroke-width="1px">40</text><text x="476" y="0" dx="0em" dy="0.95em" style="text-anchor: middle; visibility: inherit; font-family: &quot;Helvetica Neue&quot;, sans-serif; font-size: 12px; font-weight: 200;" fill="rgb(50, 49, 63)" stroke="none" stroke-width="1px">60</text><text x="595" y="0" dx="0em" dy="0.95em" style="text-anchor: middle; visibility: inherit; font-family: &quot;Helvetica Neue&quot;, sans-serif; font-size: 12px; font-weight: 200;" fill="rgb(50, 49, 63)" stroke="none" stroke-width="1px">80</text><text x="714" y="0" dx="0em" dy="0.95em" style="text-anchor: middle; visibility: inherit; font-family: &quot;Helvetica Neue&quot;, sans-serif; font-size: 12px; font-weight: 200;" fill="rgb(50, 49, 63)" stroke="none" stroke-width="1px">100</text><text x="833" y="0" dx="0em" dy="0.95em" style="text-anchor: middle; visibility: inherit; font-family: &quot;Helvetica Neue&quot;, sans-serif; font-size: 12px; font-weight: 200;" fill="rgb(50, 49, 63)" stroke="none" stroke-width="1px">120</text><text x="952" y="0" dx="0em" dy="0.95em" style="text-anchor: middle; visibility: inherit; font-family: &quot;Helvetica Neue&quot;, sans-serif; font-size: 12px; font-weight: 200;" fill="rgb(50, 49, 63)" stroke="none" stroke-width="1px">140</text><text x="1071" y="0" dx="0em" dy="0.95em" style="text-anchor: middle; visibility: inherit; font-family: &quot;Helvetica Neue&quot;, sans-serif; font-size: 12px; font-weight: 200;" fill="rgb(50, 49, 63)" stroke="none" stroke-width="1px">160</text><text x="1190" y="0" dx="0em" dy="0.95em" style="text-anchor: middle; visibility: inherit; font-family: &quot;Helvetica Neue&quot;, sans-serif; font-size: 12px; font-weight: 200;" fill="rgb(50, 49, 63)" stroke="none" stroke-width="1px">180</text><text x="1309" y="0" dx="0em" dy="0.95em" style="text-anchor: middle; visibility: inherit; font-family: &quot;Helvetica Neue&quot;, sans-serif; font-size: 12px; font-weight: 200;" fill="rgb(50, 49, 63)" stroke="none" stroke-width="1px">200</text><text x="1428" y="0" dx="0em" dy="0.95em" style="text-anchor: middle; visibility: hidden; font-family: &quot;Helvetica Neue&quot;, sans-serif; font-size: 12px; font-weight: 200;" fill="rgb(50, 49, 63)" stroke="none" stroke-width="1px">220</text></g><line x1="0" y1="0" x2="1428" y2="0" fill="rgb(0, 0, 0)" stroke="rgb(204, 204, 204)" stroke-width="1px"></line></g></g></g></g></svg>