<svg viewBox="0 0 330 200" xmlns="http://www.w3.org/2000/svg"><g><g><g><g><g><line x1="82" y1="178" x2="77" y2="178" style="visibility: inherit;" fill="rgb(0, 0, 0)" stroke="rgb(204, 204, 204)" stroke-width="1px"></line><line x1="82" y1="158.22222222222223" x2="77" y2="158.22222222222223" style="visibility: inherit;" fill="rgb(0, 0, 0)" stroke="rgb(204, 204, 204)" stroke-width="1px"></line><line x1="82" y1="138.44444444444443" x2="77" y2="138.44444444444443" style="visibility: inherit;" fill="rgb(0, 0, 0)" stroke="rgb(204, 204, 204)" stroke-width="1px"></line><line x1="82" y1="118.66666666666669" x2="77" y2="118.66666666666669" style="visibility: inherit;" fill="rgb(0, 0, 0)" stroke="rgb(204, 204, 204)" stroke-width="1px"></line><line x1="82" y1="98.8888888888889" x2="77" y2="98.8888888888889" style="visibility: inherit;" fill="rgb(0, 0, 0)" stroke="rgb(204, 204, 204)" stroke-width="1px"></line><line x1="82" y1="79.1111111111111" x2="77" y2="79.1111111111111" style="visibility: inherit;" fill="rgb(0, 0, 0)" stroke="rgb(204, 204, 204)" stroke-width="1px"></line><line x1="82" y1="59.333333333333314" x2="77" y2="59.333333333333314" style="visibility: inherit;" fill="rgb(0, 0, 0)" stroke="rgb(204, 204, 204)" stroke-width="1px"></line><line x1="82" y1="39.55555555555557" x2="77" y2="39.55555555555557" style="visibility: inherit;" fill="rgb(0, 0, 0)" stroke="rgb(204, 204, 204)" stroke-width="1px"></line><line x1="82" y1="19.777777777777743" x2="77" y2="19.777777777777743" style="visibility: inherit;" fill="rgb(0, 0, 0)" stroke="rgb(204, 204, 204)" stroke-width="1px"></line><line x1="82" y1="0" x2="77" y2="0" style="visibility: inherit;" fill="rgb(0, 0, 0)" stroke="rgb(204, 204, 204)" stroke-width="1px"></line></g><g transform="translate(72, 0)"><text x="0" y="178" dx="0em" dy="0.3em" style="text-anchor: end; visibility: hidden; font-family: &quot;Helvetica Neue&quot;, sans-serif; font-size: 12px; font-weight: 200;" fill="rgb(50, 49, 63)" stroke="none" stroke-width="1px">2.8e-3</text><text x="0" y="158.22222222222223" dx="0em" dy="0.3em" style="text-anchor: end; visibility: inherit; font-family: &quot;Helvetica Neue&quot;, sans-serif; font-size: 12px; font-weight: 200;" fill="rgb(50, 49, 63)" stroke="none" stroke-width="1px">3e-3</text><text x="0" y="138.44444444444443" dx="0em" dy="0.3em" style="text-anchor: end; visibility: hidden; font-family: &quot;Helvetica Neue&quot;, sans-serif; font-size: 12px; font-weight: 200;" fill="rgb(50, 49, 63)" stroke="none" stroke-width="1px">3.2e-3</text><text x="0" y="118.66666666666669" dx="0em" dy="0.3em" style="text-anchor: end; visibility: inherit; font-family: &quot;Helvetica Neue&quot;, sans-serif; font-size: 12px; font-weight: 200;" fill="rgb(50, 49, 63)" stroke="none" stroke-width="1px">3.4e-3</text><text x="0" y="98.8888888888889" dx="0em" dy="0.3em" style="text-anchor: end; visibility: hidden; font-family: &quot;Helvetica Neue&quot;, sans-serif; font-size: 12px; font-weight: 200;" fill="rgb(50, 49, 63)" stroke="none" stroke-width="1px">3.6e-3</text><text x="0" y="79.1111111111111" dx="0em" dy="0.3em" style="text-anchor: end; visibility: inherit; font-family: &quot;Helvetica Neue&quot;, sans-serif; font-size: 12px; font-weight: 200;" fill="rgb(50, 49, 63)" stroke="none" stroke-width="1px">3.8e-3</text><text x="0" y="59.333333333333314" dx="0em" dy="0.3em" style="text-anchor: end; visibility: hidden; font-family: &quot;Helvetica Neue&quot;, sans-serif; font-size: 12px; font-weight: 200;" fill="rgb(50, 49, 63)" stroke="none" stroke-width="1px">4e-3</text><text x="0" y="39.55555555555557" dx="0em" dy="0.3em" style="text-anchor: end; visibility: inherit; font-family: &quot;Helvetica Neue&quot;, sans-serif; font-size: 12px; font-weight: 200;" fill="rgb(50, 49, 63)" stroke="none" stroke-width="1px">4.2e-3</text><text x="0" y="19.777777777777743" dx="0em" dy="0.3em" style="text-anchor: end; visibility: hidden; font-family: &quot;Helvetica Neue&quot;, sans-serif; font-size: 12px; font-weight: 200;" fill="rgb(50, 49, 63)" stroke="none" stroke-width="1px">4.4e-3</text><text x="0" y="0" dx="0em" dy="0.3em" style="text-anchor: end; visibility: hidden; font-family: &quot;Helvetica Neue&quot;, sans-serif; font-size: 12px; font-weight: 200;" fill="rgb(50, 49, 63)" stroke="none" stroke-width="1px">4.6e-3</text></g><line x1="82" y1="0" x2="82" y2="178" fill="rgb(0, 0, 0)" stroke="rgb(204, 204, 204)" stroke-width="1px"></line></g></g><g transform="translate(82, 0)" clip-path="url(#clip_0)"><clipPath id="clip_0"><rect width="248" height="178"></rect></clipPath><g><g><g><line x1="0" y1="0" x2="0" y2="178" fill="rgb(0, 0, 0)" stroke="rgb(60, 60, 60)" stroke-width="1px" opacity="0.25"></line><line x1="20.666666666666664" y1="0" x2="20.666666666666664" y2="178" fill="rgb(0, 0, 0)" stroke="rgb(60, 60, 60)" stroke-width="1px" opacity="0.25"></line><line x1="41.33333333333333" y1="0" x2="41.33333333333333" y2="178" fill="rgb(0, 0, 0)" stroke="rgb(60, 60, 60)" stroke-width="1px" opacity="0.25"></line><line x1="62" y1="0" x2="62" y2="178" fill="rgb(0, 0, 0)" stroke="rgb(60, 60, 60)" stroke-width="1px" opacity="0.25"></line><line x1="82.66666666666666" y1="0" x2="82.66666666666666" y2="178" fill="rgb(0, 0, 0)" stroke="rgb(60, 60, 60)" stroke-width="1px" opacity="0.25"></line><line x1="103.33333333333334" y1="0" x2="103.33333333333334" y2="178" fill="rgb(0, 0, 0)" stroke="rgb(60, 60, 60)" stroke-width="1px" opacity="0.25"></line><line x1="124" y1="0" x2="124" y2="178" fill="rgb(0, 0, 0)" stroke="rgb(60, 60, 60)" stroke-width="1px" opacity="0.25"></line><line x1="144.66666666666669" y1="0" x2="144.66666666666669" y2="178" fill="rgb(0, 0, 0)" stroke="rgb(60, 60, 60)" stroke-width="1px" opacity="0.25"></line><line x1="165.33333333333331" y1="0" x2="165.33333333333331" y2="178" fill="rgb(0, 0, 0)" stroke="rgb(60, 60, 60)" stroke-width="1px" opacity="0.25"></line><line x1="186" y1="0" x2="186" y2="178" fill="rgb(0, 0, 0)" stroke="rgb(60, 60, 60)" stroke-width="1px" opacity="0.25"></line><line x1="206.66666666666669" y1="0" x2="206.66666666666669" y2="178" fill="rgb(0, 0, 0)" stroke="rgb(60, 60, 60)" stroke-width="1px" opacity="0.25"></line><line x1="227.33333333333331" y1="0" x2="227.33333333333331" y2="178" fill="rgb(0, 0, 0)" stroke="rgb(60, 60, 60)" stroke-width="1px" opacity="0.25"></line><line x1="248" y1="0" x2="248" y2="178" fill="rgb(0, 0, 0)" stroke="rgb(60, 60, 60)" stroke-width="1px" opacity="0.25"></line></g><g><line x1="0" y1="178" x2="248" y2="178" fill="rgb(0, 0, 0)" stroke="rgb(60, 60, 60)" stroke-width="1px" opacity="0.25"></line><line x1="0" y1="158.22222222222223" x2="248" y2="158.22222222222223" fill="rgb(0, 0, 0)" stroke="rgb(60, 60, 60)" stroke-width="1px" opacity="0.25"></line><line x1="0" y1="138.44444444444443" x2="248" y2="138.44444444444443" fill="rgb(0, 0, 0)" stroke="rgb(60, 60, 60)" stroke-width="1px" opacity="0.25"></line><line x1="0" y1="118.66666666666669" x2="248" y2="118.66666666666669" fill="rgb(0, 0, 0)" stroke="rgb(60, 60, 60)" stroke-width="1px" opacity="0.25"></line><line x1="0" y1="98.8888888888889" x2="248" y2="98.8888888888889" fill="rgb(0, 0, 0)" stroke="rgb(60, 60, 60)" stroke-width="1px" opacity="0.25"></line><line x1="0" y1="79.1111111111111" x2="248" y2="79.1111111111111" fill="rgb(0, 0, 0)" stroke="rgb(60, 60, 60)" stroke-width="1px" opacity="0.25"></line><line x1="0" y1="59.333333333333314" x2="248" y2="59.333333333333314" fill="rgb(0, 0, 0)" stroke="rgb(60, 60, 60)" stroke-width="1px" opacity="0.25"></line><line x1="0" y1="39.55555555555557" x2="248" y2="39.55555555555557" fill="rgb(0, 0, 0)" stroke="rgb(60, 60, 60)" stroke-width="1px" opacity="0.25"></line><line x1="0" y1="19.777777777777743" x2="248" y2="19.777777777777743" fill="rgb(0, 0, 0)" stroke="rgb(60, 60, 60)" stroke-width="1px" opacity="0.25"></line><line x1="0" y1="0" x2="248" y2="0" fill="rgb(0, 0, 0)" stroke="rgb(60, 60, 60)" stroke-width="1px" opacity="0.25"></line></g></g></g><g><g><line x1="0" y1="454.8888888888889" x2="248" y2="454.8888888888889" fill="rgb(0, 0, 0)" stroke="rgb(153, 153, 153)" stroke-width="1.5px"></line></g></g><g><g><line x1="20.666666666666664" y1="0" x2="20.666666666666664" y2="178" fill="rgb(0, 0, 0)" stroke="rgb(153, 153, 153)" stroke-width="1.5px"></line></g></g><g><g><g><g><g><path stroke="rgb(255, 112, 67)" stroke-width="2px" d="M23.76666666666667,-339.1966391917732L24.8,34.28073470128905L25.833333333333336,-43.66042015287613L26.866666666666667,41.98523936337895L27.900000000000002,-222.4276579651567L28.933333333333334,29.206947781145573L29.96666666666667,28.97541478027898L31,-16.050938676628817L32.03333333333334,78.76691356259916L33.06666666666666,62.27034842140144L34.1,21.660252107514253L35.13333333333333,21.98880977680284L36.16666666666667,66.07332861423492L37.199999999999996,31.25441234310466L38.233333333333334,36.42720402694411L39.266666666666666,71.22516812715266L40.300000000000004,63.324956374035935L41.33333333333333,95.94327304056948L42.36666666666667,98.72311958587831L43.4,69.23130428377125L44.43333333333334,73.34893543024856L45.46666666666666,92.93764958530663L46.5,77.65732342956794L47.53333333333334,96.86136954112185L48.56666666666666,99.4090844521092L49.6,84.86643588335977L50.63333333333333,89.24150243981016L51.66666666666667,41.47179605397912L52.699999999999996,26.943837029238523L53.733333333333334,109.62239285061756L54.766666666666666,96.01605305406783L55.800000000000004,92.97444251841968L56.83333333333333,86.53199532545274L57.86666666666667,106.38463776103323L58.9,128.9250292873217L59.93333333333334,81.95512022160823L60.96666666666666,82.56155893579125L62,92.09834245716532L63.03333333333333,117.86097065193785L63.03333333333333,121.55605867670641L64.06666666666668,126.62986862121356L65.10000000000001,119.5768153042429L66.13333333333333,113.3304435921212L67.16666666666666,107.20775876152847L68.2,102.01139012931121L69.23333333333333,108.98210832186871L70.26666666666667,84.24942898626128L71.3,102.2282566105326L72.33333333333334,99.12215483230021L73.36666666666667,106.13866848415798L74.39999999999999,122.03943216717906L75.43333333333332,97.59536322992709L76.46666666666667,108.62028044710556L77.5,113.7686432811121L78.53333333333333,124.1826550575594L79.56666666666668,161.81798056347503L80.60000000000001,111.73874630861812L81.63333333333333,119.61351613990135L82.66666666666666,115.07071709425912L83.7,103.01902838009927L84.73333333333333,119.25624708914094L85.76666666666667,142.11262498216496L86.8,134.28521626691023L87.83333333333334,145.6747703312172L88.86666666666667,118.2988710242013L89.89999999999999,116.6304105122884L90.93333333333332,131.22530136216017L91.96666666666667,138.5778786258565L93,108.50762223576506L94.03333333333333,129.8913388053576L95.06666666666668,127.39973426858583L96.10000000000001,124.279311336163L97.13333333333333,129.42555592871375L98.16666666666666,112.16688435069388L99.2,120.16890983987184L100.23333333333333,120.95638912543654L101.26666666666667,112.66119441390038L102.3,127.56177973995605L103.33333333333334,114.13360246933169L104.36666666666667,124.2304306121336L105.39999999999999,135.18963629545436L106.43333333333332,137.76753614718714L107.46666666666667,139.03947106831603L108.5,130.03121181453267L109.53333333333333,121.20019411212868L110.56666666666668,121.39334549879034L111.60000000000001,112.04520058880249L112.63333333333333,122.46759323361846L113.66666666666666,124.26100696706109L114.7,124.62951190728279L115.73333333333333,118.29253932419749L116.76666666666667,113.81775424877802L117.8,127.5888103428814L118.83333333333334,105.72568047336405L119.86666666666667,111.47942290082574L120.89999999999999,129.23175985986987L121.93333333333332,133.14507280331517L122.96666666666667,113.03015984139508L124,126.50526076513859L125.03333333333333,119.18496365927987L126.06666666666666,125.04622986498805L127.1,118.41360142827034L128.13333333333335,133.38807193727956L129.16666666666669,136.88155863392683L130.20000000000002,128.43592273030015L131.23333333333335,128.60918106676803L132.26666666666665,121.0063519945575L133.29999999999998,131.14632779483992L134.33333333333331,133.67380429017874L135.36666666666665,125.47303249397211L136.4,127.96017030419574L137.43333333333334,128.02915129769178L138.46666666666667,114.28611585415072L139.5,128.97271274444128L140.53333333333333,127.83279952448274L141.56666666666666,124.9227732270956L142.6,128.70093315591413L143.63333333333335,133.49149737879634L144.66666666666669,125.51627224890721L145.70000000000002,127.83570059430266L146.73333333333335,118.61204841857155L147.76666666666665,127.71399380804763L148.79999999999998,132.74861628562212L149.83333333333331,136.35381719470024L150.86666666666665,124.6514771502051L151.9,135.94729903009204L152.93333333333334,134.09772887370653L153.96666666666667,122.801354409092L155,128.95450047279397L156.03333333333333,126.92280759993525L157.06666666666666,133.65379611816672L158.1,120.76883265914188L159.13333333333335,127.67897375093565L160.16666666666669,146.55248209792705L161.20000000000002,132.07160789685116L162.23333333333335,142.311808752103L163.26666666666665,133.20463683207828L164.29999999999998,136.59281008938947L165.33333333333331,130.67283175637323L166.36666666666665,125.91240642550918L167.4,130.4282899900443L168.43333333333334,137.64730292020573L169.46666666666667,130.24556864011618L170.5,136.20031376224426L171.53333333333333,131.22157141524883L172.56666666666666,133.39845592528582L173.6,132.94768493374187L174.63333333333335,137.97107152185507L175.66666666666669,133.9990004023744L176.70000000000002,124.73710475862026L177.73333333333335,131.82326711051994L178.76666666666665,128.39454794882073L179.79999999999998,139.5616866602666L180.83333333333331,127.58664605269828L181.86666666666665,140.8385948439439L182.9,135.56244679167867L183.93333333333334,142.41749058125748L184.96666666666667,140.0410999601914L186,138.23790087219743L187.03333333333333,135.83590715875226L188.06666666666666,130.2218765699201L189.1,141.69360458809467L190.13333333333335,129.50006276948585L191.16666666666669,125.69164882683091L192.20000000000002,139.66727639196648L193.23333333333335,132.44909233889646L194.26666666666665,134.63668317803078L195.29999999999998,136.38089384635288L196.33333333333331,132.78338307473393L197.36666666666665,133.33997404161425L198.4,128.13303722648158L199.43333333333334,134.48393954957524L200.46666666666667,131.49767958414222L201.5,123.3656355134315L202.53333333333333,131.86798042472864L203.56666666666666,139.5241799718804L204.6,131.50698142705693L205.63333333333335,140.34665629019338L206.66666666666669,127.40597387113505L207.70000000000002,142.59487027881875L208.73333333333335,151.15542078142363L209.76666666666665,139.15005708692803L210.79999999999998,144.1264049001038L211.83333333333331,124.67415614840056L212.86666666666665,133.09342915564775L213.9,140.7365278398825L214.93333333333334,137.3288989952869L215.96666666666667,130.06871850291887L217,133.84830594228373L218.03333333333333,133.69362826728158L219.06666666666666,134.97366776441532L220.1,134.5913021572762L221.13333333333335,125.54710187183485L222.16666666666669,141.5345062352717L223.20000000000002,136.9362414975961L224.23333333333335,139.88158716882268L225.26666666666665,142.50700930712952L226.29999999999998,141.7432220917609" style="fill: none;" fill="none"></path></g></g></g></g></g></g><g transform="translate(82, 178)" clip-path="url(#clip_1)"><clipPath id="clip_1"><rect width="248" height="22"></rect></clipPath><g><g><line x1="0" y1="0" x2="0" y2="5" style="visibility: inherit;" fill="rgb(0, 0, 0)" stroke="rgb(204, 204, 204)" stroke-width="1px"></line><line x1="20.666666666666664" y1="0" x2="20.666666666666664" y2="5" style="visibility: inherit;" fill="rgb(0, 0, 0)" stroke="rgb(204, 204, 204)" stroke-width="1px"></line><line x1="41.33333333333333" y1="0" x2="41.33333333333333" y2="5" style="visibility: inherit;" fill="rgb(0, 0, 0)" stroke="rgb(204, 204, 204)" stroke-width="1px"></line><line x1="62" y1="0" x2="62" y2="5" style="visibility: inherit;" fill="rgb(0, 0, 0)" stroke="rgb(204, 204, 204)" stroke-width="1px"></line><line x1="82.66666666666666" y1="0" x2="82.66666666666666" y2="5" style="visibility: inherit;" fill="rgb(0, 0, 0)" stroke="rgb(204, 204, 204)" stroke-width="1px"></line><line x1="103.33333333333334" y1="0" x2="103.33333333333334" y2="5" style="visibility: inherit;" fill="rgb(0, 0, 0)" stroke="rgb(204, 204, 204)" stroke-width="1px"></line><line x1="124" y1="0" x2="124" y2="5" style="visibility: inherit;" fill="rgb(0, 0, 0)" stroke="rgb(204, 204, 204)" stroke-width="1px"></line><line x1="144.66666666666669" y1="0" x2="144.66666666666669" y2="5" style="visibility: inherit;" fill="rgb(0, 0, 0)" stroke="rgb(204, 204, 204)" stroke-width="1px"></line><line x1="165.33333333333331" y1="0" x2="165.33333333333331" y2="5" style="visibility: inherit;" fill="rgb(0, 0, 0)" stroke="rgb(204, 204, 204)" stroke-width="1px"></line><line x1="186" y1="0" x2="186" y2="5" style="visibility: inherit;" fill="rgb(0, 0, 0)" stroke="rgb(204, 204, 204)" stroke-width="1px"></line><line x1="206.66666666666669" y1="0" x2="206.66666666666669" y2="5" style="visibility: inherit;" fill="rgb(0, 0, 0)" stroke="rgb(204, 204, 204)" stroke-width="1px"></line><line x1="227.33333333333331" y1="0" x2="227.33333333333331" y2="5" style="visibility: inherit;" fill="rgb(0, 0, 0)" stroke="rgb(204, 204, 204)" stroke-width="1px"></line><line x1="248" y1="0" x2="248" y2="5" style="visibility: inherit;" fill="rgb(0, 0, 0)" stroke="rgb(204, 204, 204)" stroke-width="1px"></line></g><g transform="translate(0, 8)"><text x="0" y="0" dx="0em" dy="0.95em" style="text-anchor: middle; visibility: hidden; font-family: &quot;Helvetica Neue&quot;, sans-serif; font-size: 12px; font-weight: 200;" fill="rgb(50, 49, 63)" stroke="none" stroke-width="1px">-20</text><text x="20.666666666666664" y="0" dx="0em" dy="0.95em" style="text-anchor: middle; visibility: inherit; font-family: &quot;Helvetica Neue&quot;, sans-serif; font-size: 12px; font-weight: 200;" fill="rgb(50, 49, 63)" stroke="none" stroke-width="1px">0</text><text x="41.33333333333333" y="0" dx="0em" dy="0.95em" style="text-anchor: middle; visibility: hidden; font-family: &quot;Helvetica Neue&quot;, sans-serif; font-size: 12px; font-weight: 200;" fill="rgb(50, 49, 63)" stroke="none" stroke-width="1px">20</text><text x="62" y="0" dx="0em" dy="0.95em" style="text-anchor: middle; visibility: inherit; font-family: &quot;Helvetica Neue&quot;, sans-serif; font-size: 12px; font-weight: 200;" fill="rgb(50, 49, 63)" stroke="none" stroke-width="1px">40</text><text x="82.66666666666666" y="0" dx="0em" dy="0.95em" style="text-anchor: middle; visibility: hidden; font-family: &quot;Helvetica Neue&quot;, sans-serif; font-size: 12px; font-weight: 200;" fill="rgb(50, 49, 63)" stroke="none" stroke-width="1px">60</text><text x="103.33333333333334" y="0" dx="0em" dy="0.95em" style="text-anchor: middle; visibility: inherit; font-family: &quot;Helvetica Neue&quot;, sans-serif; font-size: 12px; font-weight: 200;" fill="rgb(50, 49, 63)" stroke="none" stroke-width="1px">80</text><text x="124" y="0" dx="0em" dy="0.95em" style="text-anchor: middle; visibility: hidden; font-family: &quot;Helvetica Neue&quot;, sans-serif; font-size: 12px; font-weight: 200;" fill="rgb(50, 49, 63)" stroke="none" stroke-width="1px">100</text><text x="144.66666666666669" y="0" dx="0em" dy="0.95em" style="text-anchor: middle; visibility: inherit; font-family: &quot;Helvetica Neue&quot;, sans-serif; font-size: 12px; font-weight: 200;" fill="rgb(50, 49, 63)" stroke="none" stroke-width="1px">120</text><text x="165.33333333333331" y="0" dx="0em" dy="0.95em" style="text-anchor: middle; visibility: hidden; font-family: &quot;Helvetica Neue&quot;, sans-serif; font-size: 12px; font-weight: 200;" fill="rgb(50, 49, 63)" stroke="none" stroke-width="1px">140</text><text x="186" y="0" dx="0em" dy="0.95em" style="text-anchor: middle; visibility: inherit; font-family: &quot;Helvetica Neue&quot;, sans-serif; font-size: 12px; font-weight: 200;" fill="rgb(50, 49, 63)" stroke="none" stroke-width="1px">160</text><text x="206.66666666666669" y="0" dx="0em" dy="0.95em" style="text-anchor: middle; visibility: hidden; font-family: &quot;Helvetica Neue&quot;, sans-serif; font-size: 12px; font-weight: 200;" fill="rgb(50, 49, 63)" stroke="none" stroke-width="1px">180</text><text x="227.33333333333331" y="0" dx="0em" dy="0.95em" style="text-anchor: middle; visibility: inherit; font-family: &quot;Helvetica Neue&quot;, sans-serif; font-size: 12px; font-weight: 200;" fill="rgb(50, 49, 63)" stroke="none" stroke-width="1px">200</text><text x="248" y="0" dx="0em" dy="0.95em" style="text-anchor: middle; visibility: hidden; font-family: &quot;Helvetica Neue&quot;, sans-serif; font-size: 12px; font-weight: 200;" fill="rgb(50, 49, 63)" stroke="none" stroke-width="1px">220</text></g><line x1="0" y1="0" x2="248" y2="0" fill="rgb(0, 0, 0)" stroke="rgb(204, 204, 204)" stroke-width="1px"></line></g></g></g></g></svg>