<svg viewBox="0 0 1498 400" xmlns="http://www.w3.org/2000/svg"><g><g><g><g><g><line x1="58" y1="378" x2="53" y2="378" style="visibility: inherit;" fill="rgb(0, 0, 0)" stroke="rgb(204, 204, 204)" stroke-width="1px"></line><line x1="58" y1="343.6363636363636" x2="53" y2="343.6363636363636" style="visibility: inherit;" fill="rgb(0, 0, 0)" stroke="rgb(204, 204, 204)" stroke-width="1px"></line><line x1="58" y1="309.27272727272725" x2="53" y2="309.27272727272725" style="visibility: inherit;" fill="rgb(0, 0, 0)" stroke="rgb(204, 204, 204)" stroke-width="1px"></line><line x1="58" y1="274.90909090909093" x2="53" y2="274.90909090909093" style="visibility: inherit;" fill="rgb(0, 0, 0)" stroke="rgb(204, 204, 204)" stroke-width="1px"></line><line x1="58" y1="240.54545454545456" x2="53" y2="240.54545454545456" style="visibility: inherit;" fill="rgb(0, 0, 0)" stroke="rgb(204, 204, 204)" stroke-width="1px"></line><line x1="58" y1="206.18181818181816" x2="53" y2="206.18181818181816" style="visibility: inherit;" fill="rgb(0, 0, 0)" stroke="rgb(204, 204, 204)" stroke-width="1px"></line><line x1="58" y1="171.81818181818178" x2="53" y2="171.81818181818178" style="visibility: inherit;" fill="rgb(0, 0, 0)" stroke="rgb(204, 204, 204)" stroke-width="1px"></line><line x1="58" y1="137.4545454545455" x2="53" y2="137.4545454545455" style="visibility: inherit;" fill="rgb(0, 0, 0)" stroke="rgb(204, 204, 204)" stroke-width="1px"></line><line x1="58" y1="103.09090909090907" x2="53" y2="103.09090909090907" style="visibility: inherit;" fill="rgb(0, 0, 0)" stroke="rgb(204, 204, 204)" stroke-width="1px"></line><line x1="58" y1="68.72727272727269" x2="53" y2="68.72727272727269" style="visibility: inherit;" fill="rgb(0, 0, 0)" stroke="rgb(204, 204, 204)" stroke-width="1px"></line><line x1="58" y1="34.363636363636374" x2="53" y2="34.363636363636374" style="visibility: inherit;" fill="rgb(0, 0, 0)" stroke="rgb(204, 204, 204)" stroke-width="1px"></line><line x1="58" y1="0" x2="53" y2="0" style="visibility: inherit;" fill="rgb(0, 0, 0)" stroke="rgb(204, 204, 204)" stroke-width="1px"></line></g><g transform="translate(48, 0)"><text x="0" y="378" dx="0em" dy="0.3em" style="text-anchor: end; visibility: hidden; font-family: &quot;Helvetica Neue&quot;, sans-serif; font-size: 12px; font-weight: 200;" fill="rgb(50, 49, 63)" stroke="none" stroke-width="1px">0.16</text><text x="0" y="343.6363636363636" dx="0em" dy="0.3em" style="text-anchor: end; visibility: inherit; font-family: &quot;Helvetica Neue&quot;, sans-serif; font-size: 12px; font-weight: 200;" fill="rgb(50, 49, 63)" stroke="none" stroke-width="1px">0.18</text><text x="0" y="309.27272727272725" dx="0em" dy="0.3em" style="text-anchor: end; visibility: inherit; font-family: &quot;Helvetica Neue&quot;, sans-serif; font-size: 12px; font-weight: 200;" fill="rgb(50, 49, 63)" stroke="none" stroke-width="1px">0.2</text><text x="0" y="274.90909090909093" dx="0em" dy="0.3em" style="text-anchor: end; visibility: inherit; font-family: &quot;Helvetica Neue&quot;, sans-serif; font-size: 12px; font-weight: 200;" fill="rgb(50, 49, 63)" stroke="none" stroke-width="1px">0.22</text><text x="0" y="240.54545454545456" dx="0em" dy="0.3em" style="text-anchor: end; visibility: inherit; font-family: &quot;Helvetica Neue&quot;, sans-serif; font-size: 12px; font-weight: 200;" fill="rgb(50, 49, 63)" stroke="none" stroke-width="1px">0.24</text><text x="0" y="206.18181818181816" dx="0em" dy="0.3em" style="text-anchor: end; visibility: inherit; font-family: &quot;Helvetica Neue&quot;, sans-serif; font-size: 12px; font-weight: 200;" fill="rgb(50, 49, 63)" stroke="none" stroke-width="1px">0.26</text><text x="0" y="171.81818181818178" dx="0em" dy="0.3em" style="text-anchor: end; visibility: inherit; font-family: &quot;Helvetica Neue&quot;, sans-serif; font-size: 12px; font-weight: 200;" fill="rgb(50, 49, 63)" stroke="none" stroke-width="1px">0.28</text><text x="0" y="137.4545454545455" dx="0em" dy="0.3em" style="text-anchor: end; visibility: inherit; font-family: &quot;Helvetica Neue&quot;, sans-serif; font-size: 12px; font-weight: 200;" fill="rgb(50, 49, 63)" stroke="none" stroke-width="1px">0.3</text><text x="0" y="103.09090909090907" dx="0em" dy="0.3em" style="text-anchor: end; visibility: inherit; font-family: &quot;Helvetica Neue&quot;, sans-serif; font-size: 12px; font-weight: 200;" fill="rgb(50, 49, 63)" stroke="none" stroke-width="1px">0.32</text><text x="0" y="68.72727272727269" dx="0em" dy="0.3em" style="text-anchor: end; visibility: inherit; font-family: &quot;Helvetica Neue&quot;, sans-serif; font-size: 12px; font-weight: 200;" fill="rgb(50, 49, 63)" stroke="none" stroke-width="1px">0.34</text><text x="0" y="34.363636363636374" dx="0em" dy="0.3em" style="text-anchor: end; visibility: inherit; font-family: &quot;Helvetica Neue&quot;, sans-serif; font-size: 12px; font-weight: 200;" fill="rgb(50, 49, 63)" stroke="none" stroke-width="1px">0.36</text><text x="0" y="0" dx="0em" dy="0.3em" style="text-anchor: end; visibility: hidden; font-family: &quot;Helvetica Neue&quot;, sans-serif; font-size: 12px; font-weight: 200;" fill="rgb(50, 49, 63)" stroke="none" stroke-width="1px">0.38</text></g><line x1="58" y1="0" x2="58" y2="378" fill="rgb(0, 0, 0)" stroke="rgb(204, 204, 204)" stroke-width="1px"></line></g></g><g transform="translate(58, 0)" clip-path="url(#clip_0)"><clipPath id="clip_0"><rect width="1440" height="378"></rect></clipPath><g><g><g><line x1="0" y1="0" x2="0" y2="378" fill="rgb(0, 0, 0)" stroke="rgb(60, 60, 60)" stroke-width="1px" opacity="0.25"></line><line x1="120" y1="0" x2="120" y2="378" fill="rgb(0, 0, 0)" stroke="rgb(60, 60, 60)" stroke-width="1px" opacity="0.25"></line><line x1="240" y1="0" x2="240" y2="378" fill="rgb(0, 0, 0)" stroke="rgb(60, 60, 60)" stroke-width="1px" opacity="0.25"></line><line x1="360" y1="0" x2="360" y2="378" fill="rgb(0, 0, 0)" stroke="rgb(60, 60, 60)" stroke-width="1px" opacity="0.25"></line><line x1="480" y1="0" x2="480" y2="378" fill="rgb(0, 0, 0)" stroke="rgb(60, 60, 60)" stroke-width="1px" opacity="0.25"></line><line x1="600" y1="0" x2="600" y2="378" fill="rgb(0, 0, 0)" stroke="rgb(60, 60, 60)" stroke-width="1px" opacity="0.25"></line><line x1="720" y1="0" x2="720" y2="378" fill="rgb(0, 0, 0)" stroke="rgb(60, 60, 60)" stroke-width="1px" opacity="0.25"></line><line x1="840" y1="0" x2="840" y2="378" fill="rgb(0, 0, 0)" stroke="rgb(60, 60, 60)" stroke-width="1px" opacity="0.25"></line><line x1="960" y1="0" x2="960" y2="378" fill="rgb(0, 0, 0)" stroke="rgb(60, 60, 60)" stroke-width="1px" opacity="0.25"></line><line x1="1080" y1="0" x2="1080" y2="378" fill="rgb(0, 0, 0)" stroke="rgb(60, 60, 60)" stroke-width="1px" opacity="0.25"></line><line x1="1200" y1="0" x2="1200" y2="378" fill="rgb(0, 0, 0)" stroke="rgb(60, 60, 60)" stroke-width="1px" opacity="0.25"></line><line x1="1320" y1="0" x2="1320" y2="378" fill="rgb(0, 0, 0)" stroke="rgb(60, 60, 60)" stroke-width="1px" opacity="0.25"></line><line x1="1440" y1="0" x2="1440" y2="378" fill="rgb(0, 0, 0)" stroke="rgb(60, 60, 60)" stroke-width="1px" opacity="0.25"></line></g><g><line x1="0" y1="378" x2="1440" y2="378" fill="rgb(0, 0, 0)" stroke="rgb(60, 60, 60)" stroke-width="1px" opacity="0.25"></line><line x1="0" y1="343.6363636363636" x2="1440" y2="343.6363636363636" fill="rgb(0, 0, 0)" stroke="rgb(60, 60, 60)" stroke-width="1px" opacity="0.25"></line><line x1="0" y1="309.27272727272725" x2="1440" y2="309.27272727272725" fill="rgb(0, 0, 0)" stroke="rgb(60, 60, 60)" stroke-width="1px" opacity="0.25"></line><line x1="0" y1="274.90909090909093" x2="1440" y2="274.90909090909093" fill="rgb(0, 0, 0)" stroke="rgb(60, 60, 60)" stroke-width="1px" opacity="0.25"></line><line x1="0" y1="240.54545454545456" x2="1440" y2="240.54545454545456" fill="rgb(0, 0, 0)" stroke="rgb(60, 60, 60)" stroke-width="1px" opacity="0.25"></line><line x1="0" y1="206.18181818181816" x2="1440" y2="206.18181818181816" fill="rgb(0, 0, 0)" stroke="rgb(60, 60, 60)" stroke-width="1px" opacity="0.25"></line><line x1="0" y1="171.81818181818178" x2="1440" y2="171.81818181818178" fill="rgb(0, 0, 0)" stroke="rgb(60, 60, 60)" stroke-width="1px" opacity="0.25"></line><line x1="0" y1="137.4545454545455" x2="1440" y2="137.4545454545455" fill="rgb(0, 0, 0)" stroke="rgb(60, 60, 60)" stroke-width="1px" opacity="0.25"></line><line x1="0" y1="103.09090909090907" x2="1440" y2="103.09090909090907" fill="rgb(0, 0, 0)" stroke="rgb(60, 60, 60)" stroke-width="1px" opacity="0.25"></line><line x1="0" y1="68.72727272727269" x2="1440" y2="68.72727272727269" fill="rgb(0, 0, 0)" stroke="rgb(60, 60, 60)" stroke-width="1px" opacity="0.25"></line><line x1="0" y1="34.363636363636374" x2="1440" y2="34.363636363636374" fill="rgb(0, 0, 0)" stroke="rgb(60, 60, 60)" stroke-width="1px" opacity="0.25"></line><line x1="0" y1="0" x2="1440" y2="0" fill="rgb(0, 0, 0)" stroke="rgb(60, 60, 60)" stroke-width="1px" opacity="0.25"></line></g></g></g><g><g><line x1="0" y1="652.909090909091" x2="1440" y2="652.909090909091" fill="rgb(0, 0, 0)" stroke="rgb(153, 153, 153)" stroke-width="1.5px"></line></g></g><g><g><line x1="120" y1="0" x2="120" y2="378" fill="rgb(0, 0, 0)" stroke="rgb(153, 153, 153)" stroke-width="1.5px"></line></g></g><g><g><g><g><g><path stroke="rgb(255, 112, 67)" stroke-width="2px" d="M162,418.70247935312926L168,342.8894747432637L174,253.72890826411395L180,280.4330873430387L186.00000000000003,317.01536788559156L192,278.4754919380681L198.00000000000003,273.2312086745426L204,292.04643224937496L210,336.2624392269401L216,303.78658902478134L222,255.49383654988898L228,270.4216533507334L234,187.46368181913346L240,250.18105010766578L246,245.2841803734718L251.99999999999997,293.1031624650945L258,266.92197735850107L264,274.5340426185496L270,255.7805975170623L276,321.34953947807435L282,226.2541893434334L288,208.9792949858813L294,172.5501085978326L300,217.9109057376813L306,198.4861152062938L312,207.4082765092567L318,163.3767031333219L324,206.91965299658665L330,110.95505360973613L336,209.76171240092586L342,144.21173203668877L348,151.52300533032516L354,157.2815729067234L360,229.32681201373748L366,258.83593982860964L372.00000000000006,205.20771075914345L378,189.4923961535941L384,281.5765515603847L390,242.17271867864216L396.00000000000006,272.03068800853805L402,233.70159333151582L408,297.1276512291209L413.99999999999994,246.01616404669767L420,226.3236801256992L426,187.07215856157515L432,131.96980358518957L437.99999999999994,193.56271671330654L444,139.97954930271385L450,142.12469811193714L456,137.92457296223884L462.00000000000006,110.71207387852616L468,175.32087469518032L474,137.26524526239248L480,122.66268925556702L486.00000000000006,68.63169800778905L492,63.64913447062929L498,126.50608764180762L503.99999999999994,132.66881750658501L510,78.7507653025001L516,124.59265775279204L522,128.7771523555604L528,147.74947194058987L534,245.55637839371082L540,186.26556552555093L546,191.84512462191427L552,144.43620848314274L558,180.46553624338432L564,240.49358274033494L570,233.9845499712766L576,205.38669607478894L582,258.18988585679296L588,145.83260514210255L594,142.89292439795432L600,186.39857359514772L606,185.06593190195753L612,203.47156668586547L618,193.9379241475805L624,136.08926293688896L630,127.44429381317264L636,232.00146790845287L642,205.5686504459023L648,184.2217660154648L654,201.59326354516216L660,180.46473026621302L666,123.8899357816455L672,157.16335399318632L678,135.9733581028514L684,131.49016173917306L690,105.4796235358827L696,111.82211739018419L702,68.98635245027509L708,128.33661482078708L714,95.35667373200522L720,98.88934994614283L726,194.29147817960535L732,230.95572146989144L737.9999999999999,144.58192572452242L744.0000000000001,109.21927110066946L750,85.25807110874234L756,77.74036915762429L762,93.80676115442151L768,55.43353149120213L774,106.48690663959019L780,93.22127769374833L785.9999999999999,98.97991593199635L792.0000000000001,110.66590004546771L798,87.49785208442893L804,50.276382440399004L810,117.11063281486145L816,110.56992178704883L822,127.22252882015277L827.9999999999999,120.75247021664666L834.0000000000001,111.3832206193124L840,152.40293211340182L846,115.2836785428047L852,162.9740182791814L858,172.38300232118533L864,136.8743254468049L870,199.24903704782645L875.9999999999999,159.85296432682793L882.0000000000001,170.51036994977332L888,137.1225496327654L894,141.78230191877495L900,114.39851486125917L906,108.94265101488753L912,90.57931349250384L917.9999999999999,163.24121846356167L924.0000000000001,194.4921494492509L930,176.20406180866627L936,184.43641878297586L942,146.84998254149457L948,129.78533523183637L954,129.14915162537167L960,164.434294325845L965.9999999999999,140.3359223024466L972.0000000000001,165.65914229685941L978,128.72461908810988L984,114.79470633338263L990,92.71874307479317L996,100.05019876943089L1002,103.07726857740585L1007.9999999999999,93.91908159172965L1014.0000000000001,56.872727362394755L1020,114.20942172402067L1026,122.54721073829757L1032,142.63970336142452L1038,103.93852685638774L1044,116.38467381771778L1050,138.94218120907667L1056,144.24588447336941L1062,141.9408919967145L1068,139.1860929019139L1074,170.4564590917703L1080,170.01344876470046L1086,176.6066606124968L1092,146.26753846563017L1098,104.74342431010348L1104,112.75220146352427L1110,139.50630501417584L1116,191.22560976775716L1122,183.84674277910025L1128,171.18862141538358L1134,156.73473055311527L1140,146.6905924269467L1146,140.66410955124556L1152,130.18920178178664L1158,96.46822590860495L1164,144.825738895785L1170,149.14780221187866L1176,159.9718618543808L1182,132.1712483843376L1188,131.95250312568012L1194,124.96223792644736L1200,146.83232689192968L1206,162.69798748883431L1212,146.1531357619552L1218,143.0852427698659L1224,108.3212613278755L1230,94.32189050671963L1236,106.49928118149398L1242,143.98535401548014L1248,134.9255556779427L1254,122.63067911370533L1260,107.02293152231704L1266,171.73558567264183L1272,169.4091211044157L1278,150.17981593130406L1284,72.79574153396334L1290,68.89116780394932L1296,103.58705955677732L1302,62.673514141423254L1308,105.34368179449217L1314,91.16353917788189" style="fill: none;" fill="none"></path></g></g></g></g><g opacity="0.2"><g><g><g><path stroke="rgb(255, 112, 67)" stroke-width="2px" d="M156,453.9978236610239L162,340.82417955181813L168,231.08001886172727L174,121.3358581716364L180,320.2471510226076L186.00000000000003,371.6897095441818L192,220.79151739857414L198.00000000000003,265.3750578761101L204,320.2471510226076L210,402.5552651394497L216,255.08655641295695L222,183.06696936217222L228,292.8111044493589L234,63.03430720892817L240,344.2536629709331L246,237.93903690576553L251.99999999999997,364.8306915001436L258,227.65050983970818L264,285.9520864053206L270,227.65050983970818L276,419.70278464664113L282,83.61131013523448L288,183.06696936217222L294,117.90634914961726L300,285.9520864053206L306,169.34893327409574L312,220.79151739857414L318,97.329346223311L324,272.2340759201483L330,-32.99184299599045L336,357.97169905900955L342,45.88676209883255L348,162.48991523005748L354,165.9194242520766L360,337.39467052979904L366,303.09963151541626L372.00000000000006,124.76536719365552L378,165.9194242520766L384,419.70278464664113L390,183.06696936217222L396.00000000000006,316.81764200058853L402,176.20795131813395L408,392.26673807339233L413.99999999999994,169.34893327409574L420,196.78495424444026L426,128.19487621567467L432,49.316271120851695L437.99999999999994,285.9520864053206L444,59.60479818690908L450,145.3424213257703L456,131.6243852376938L462.00000000000006,69.89332525296646L468,272.2340759201483L474,80.18180111321539L480,100.75885524533015L486.00000000000006,-12.414788863875629L492,56.17528916488993L498,220.79151739857414L503.99999999999994,141.9129123037512L510,-2.1263130036267626L516,193.3554964282296L522,135.05389425971293L528,176.20795131813395L534,392.26673807339233L540,97.329346223311L546,200.21446326645938L552,73.32283427498561L558,234.50952788374642L564,330.5356524857608L570,224.22100081768903L576,162.48991523005748L582,337.39467052979904L588,-22.703315929933012L594,138.48340328173205L600,251.6570473909378L606,183.06696936217222L612,231.08001886172727L618,179.6374603401531L624,49.316271120851695L630,114.47684012759817L636,388.83722905137324L642,165.9194242520766L648,152.20143936980855L654,227.65050983970818L660,148.7719303477894L666,39.02774405479431L672,207.07348131049764L678,104.18836426734924L684,124.76536719365552L690,66.46381623094732L696,121.3358581716364L702,4.732705040411531L708,217.362008376555L714,45.88676209883255L720,104.18836426734924L726,337.39467052979904L732,285.9520864053206L737.9999999999999,15.021232106468915L744.0000000000001,56.17528916488993L750,49.316271120851695L756,66.46381623094732L762,117.90634914961726L768,-2.1263130036267626L774,183.06696936217222L780,73.32283427498561L785.9999999999999,107.61787328936839L792.0000000000001,128.19487621567467L798,52.74578014287084L804,-5.555822025645909L810,217.362008376555L816,100.75885524533015L822,152.20143936980855L827.9999999999999,111.04738231138748L834.0000000000001,97.329346223311L840,213.9324993545359L846,59.60479818690908L852,234.50952788374642L858,186.49647838419136L864,83.61131013523448L870,292.8111044493589L875.9999999999999,100.75885524533015L882.0000000000001,186.49647838419136L888,87.04081915725362L894,148.7719303477894L900,73.32283427498561L906,100.75885524533015L912,63.03430720892817L917.9999999999999,272.2340759201483L924.0000000000001,241.36854592778465L930,148.7719303477894L936,196.78495424444026L942,90.47032817927271L948,104.18836426734924L954,128.19487621567467L960,217.362008376555L965.9999999999999,104.18836426734924L972.0000000000001,203.64397228847852L978,73.32283427498561L984,93.89983720129186L990,59.60479818690908L996,111.04738231138748L1002,107.61787328936839L1007.9999999999999,80.18180111321539L1014.0000000000001,1.3031960183923843L1020,200.21446326645938L1026,135.05389425971293L1032,172.77844229611483L1038,45.88676209883255L1044,135.05389425971293L1050,172.77844229611483L1056,152.20143936980855L1062,138.48340328173205L1068,135.05389425971293L1074,217.362008376555L1080,169.34893327409574L1086,186.49647838419136L1092,100.75885524533015L1098,42.45725307681346L1104,124.76536719365552L1110,179.6374603401531L1116,268.8045668981292L1122,172.77844229611483L1128,152.20143936980855L1134,135.05389425971293L1140,131.6243852376938L1146,131.6243852376938L1152,114.47684012759817L1158,45.88676209883255L1164,217.362008376555L1170,155.6308971860192L1176,176.20795131813395L1182,90.47032817927271L1188,131.6243852376938L1194,114.47684012759817L1200,179.6374603401531L1206,186.49647838419136L1212,121.3358581716364L1218,138.48340328173205L1224,56.17528916488993L1230,73.32283427498561L1236,124.76536719365552L1242,200.21446326645938L1248,121.3358581716364L1254,104.18836426734924L1260,83.61131013523448L1266,268.8045668981292L1272,165.9194242520766L1278,121.3358581716364L1284,-43.28037006204778L1290,63.03430720892817L1296,155.6308971860192L1302,1.3031960183923843L1308,169.34893327409574L1314,69.89332525296646" style="fill: none;" fill="none"></path></g></g></g></g></g></g><g transform="translate(58, 378)" clip-path="url(#clip_1)"><clipPath id="clip_1"><rect width="1440" height="22"></rect></clipPath><g><g><line x1="0" y1="0" x2="0" y2="5" style="visibility: inherit;" fill="rgb(0, 0, 0)" stroke="rgb(204, 204, 204)" stroke-width="1px"></line><line x1="120" y1="0" x2="120" y2="5" style="visibility: inherit;" fill="rgb(0, 0, 0)" stroke="rgb(204, 204, 204)" stroke-width="1px"></line><line x1="240" y1="0" x2="240" y2="5" style="visibility: inherit;" fill="rgb(0, 0, 0)" stroke="rgb(204, 204, 204)" stroke-width="1px"></line><line x1="360" y1="0" x2="360" y2="5" style="visibility: inherit;" fill="rgb(0, 0, 0)" stroke="rgb(204, 204, 204)" stroke-width="1px"></line><line x1="480" y1="0" x2="480" y2="5" style="visibility: inherit;" fill="rgb(0, 0, 0)" stroke="rgb(204, 204, 204)" stroke-width="1px"></line><line x1="600" y1="0" x2="600" y2="5" style="visibility: inherit;" fill="rgb(0, 0, 0)" stroke="rgb(204, 204, 204)" stroke-width="1px"></line><line x1="720" y1="0" x2="720" y2="5" style="visibility: inherit;" fill="rgb(0, 0, 0)" stroke="rgb(204, 204, 204)" stroke-width="1px"></line><line x1="840" y1="0" x2="840" y2="5" style="visibility: inherit;" fill="rgb(0, 0, 0)" stroke="rgb(204, 204, 204)" stroke-width="1px"></line><line x1="960" y1="0" x2="960" y2="5" style="visibility: inherit;" fill="rgb(0, 0, 0)" stroke="rgb(204, 204, 204)" stroke-width="1px"></line><line x1="1080" y1="0" x2="1080" y2="5" style="visibility: inherit;" fill="rgb(0, 0, 0)" stroke="rgb(204, 204, 204)" stroke-width="1px"></line><line x1="1200" y1="0" x2="1200" y2="5" style="visibility: inherit;" fill="rgb(0, 0, 0)" stroke="rgb(204, 204, 204)" stroke-width="1px"></line><line x1="1320" y1="0" x2="1320" y2="5" style="visibility: inherit;" fill="rgb(0, 0, 0)" stroke="rgb(204, 204, 204)" stroke-width="1px"></line><line x1="1440" y1="0" x2="1440" y2="5" style="visibility: inherit;" fill="rgb(0, 0, 0)" stroke="rgb(204, 204, 204)" stroke-width="1px"></line></g><g transform="translate(0, 8)"><text x="0" y="0" dx="0em" dy="0.95em" style="text-anchor: middle; visibility: hidden; font-family: &quot;Helvetica Neue&quot;, sans-serif; font-size: 12px; font-weight: 200;" fill="rgb(50, 49, 63)" stroke="none" stroke-width="1px">-20</text><text x="120" y="0" dx="0em" dy="0.95em" style="text-anchor: middle; visibility: inherit; font-family: &quot;Helvetica Neue&quot;, sans-serif; font-size: 12px; font-weight: 200;" fill="rgb(50, 49, 63)" stroke="none" stroke-width="1px">0</text><text x="240" y="0" dx="0em" dy="0.95em" style="text-anchor: middle; visibility: inherit; font-family: &quot;Helvetica Neue&quot;, sans-serif; font-size: 12px; font-weight: 200;" fill="rgb(50, 49, 63)" stroke="none" stroke-width="1px">20</text><text x="360" y="0" dx="0em" dy="0.95em" style="text-anchor: middle; visibility: inherit; font-family: &quot;Helvetica Neue&quot;, sans-serif; font-size: 12px; font-weight: 200;" fill="rgb(50, 49, 63)" stroke="none" stroke-width="1px">40</text><text x="480" y="0" dx="0em" dy="0.95em" style="text-anchor: middle; visibility: inherit; font-family: &quot;Helvetica Neue&quot;, sans-serif; font-size: 12px; font-weight: 200;" fill="rgb(50, 49, 63)" stroke="none" stroke-width="1px">60</text><text x="600" y="0" dx="0em" dy="0.95em" style="text-anchor: middle; visibility: inherit; font-family: &quot;Helvetica Neue&quot;, sans-serif; font-size: 12px; font-weight: 200;" fill="rgb(50, 49, 63)" stroke="none" stroke-width="1px">80</text><text x="720" y="0" dx="0em" dy="0.95em" style="text-anchor: middle; visibility: inherit; font-family: &quot;Helvetica Neue&quot;, sans-serif; font-size: 12px; font-weight: 200;" fill="rgb(50, 49, 63)" stroke="none" stroke-width="1px">100</text><text x="840" y="0" dx="0em" dy="0.95em" style="text-anchor: middle; visibility: inherit; font-family: &quot;Helvetica Neue&quot;, sans-serif; font-size: 12px; font-weight: 200;" fill="rgb(50, 49, 63)" stroke="none" stroke-width="1px">120</text><text x="960" y="0" dx="0em" dy="0.95em" style="text-anchor: middle; visibility: inherit; font-family: &quot;Helvetica Neue&quot;, sans-serif; font-size: 12px; font-weight: 200;" fill="rgb(50, 49, 63)" stroke="none" stroke-width="1px">140</text><text x="1080" y="0" dx="0em" dy="0.95em" style="text-anchor: middle; visibility: inherit; font-family: &quot;Helvetica Neue&quot;, sans-serif; font-size: 12px; font-weight: 200;" fill="rgb(50, 49, 63)" stroke="none" stroke-width="1px">160</text><text x="1200" y="0" dx="0em" dy="0.95em" style="text-anchor: middle; visibility: inherit; font-family: &quot;Helvetica Neue&quot;, sans-serif; font-size: 12px; font-weight: 200;" fill="rgb(50, 49, 63)" stroke="none" stroke-width="1px">180</text><text x="1320" y="0" dx="0em" dy="0.95em" style="text-anchor: middle; visibility: inherit; font-family: &quot;Helvetica Neue&quot;, sans-serif; font-size: 12px; font-weight: 200;" fill="rgb(50, 49, 63)" stroke="none" stroke-width="1px">200</text><text x="1440" y="0" dx="0em" dy="0.95em" style="text-anchor: middle; visibility: hidden; font-family: &quot;Helvetica Neue&quot;, sans-serif; font-size: 12px; font-weight: 200;" fill="rgb(50, 49, 63)" stroke="none" stroke-width="1px">220</text></g><line x1="0" y1="0" x2="1440" y2="0" fill="rgb(0, 0, 0)" stroke="rgb(204, 204, 204)" stroke-width="1px"></line></g></g></g></g></svg>