<svg viewBox="0 0 1498 400" xmlns="http://www.w3.org/2000/svg"><g><g><g><g><g><line x1="58" y1="355.12634669309676" x2="53" y2="355.12634669309676" style="visibility: inherit;" fill="rgb(0, 0, 0)" stroke="rgb(204, 204, 204)" stroke-width="1px"></line><line x1="58" y1="253.4897901436253" x2="53" y2="253.4897901436253" style="visibility: inherit;" fill="rgb(0, 0, 0)" stroke="rgb(204, 204, 204)" stroke-width="1px"></line><line x1="58" y1="174.6543521946793" x2="53" y2="174.6543521946793" style="visibility: inherit;" fill="rgb(0, 0, 0)" stroke="rgb(204, 204, 204)" stroke-width="1px"></line><line x1="58" y1="110.2411092722084" x2="53" y2="110.2411092722084" style="visibility: inherit;" fill="rgb(0, 0, 0)" stroke="rgb(204, 204, 204)" stroke-width="1px"></line><line x1="58" y1="55.78048837262605" x2="53" y2="55.78048837262605" style="visibility: inherit;" fill="rgb(0, 0, 0)" stroke="rgb(204, 204, 204)" stroke-width="1px"></line><line x1="58" y1="8.604552722736969" x2="53" y2="8.604552722736969" style="visibility: inherit;" fill="rgb(0, 0, 0)" stroke="rgb(204, 204, 204)" stroke-width="1px"></line></g><g transform="translate(48, 0)"><text x="0" y="355.12634669309676" dx="0em" dy="0.3em" style="text-anchor: end; visibility: inherit; font-family: &quot;Helvetica Neue&quot;, sans-serif; font-size: 12px; font-weight: 200;" fill="rgb(50, 49, 63)" stroke="none" stroke-width="1px">3e-3</text><text x="0" y="253.4897901436253" dx="0em" dy="0.3em" style="text-anchor: end; visibility: inherit; font-family: &quot;Helvetica Neue&quot;, sans-serif; font-size: 12px; font-weight: 200;" fill="rgb(50, 49, 63)" stroke="none" stroke-width="1px">4e-3</text><text x="0" y="174.6543521946793" dx="0em" dy="0.3em" style="text-anchor: end; visibility: inherit; font-family: &quot;Helvetica Neue&quot;, sans-serif; font-size: 12px; font-weight: 200;" fill="rgb(50, 49, 63)" stroke="none" stroke-width="1px">5e-3</text><text x="0" y="110.2411092722084" dx="0em" dy="0.3em" style="text-anchor: end; visibility: inherit; font-family: &quot;Helvetica Neue&quot;, sans-serif; font-size: 12px; font-weight: 200;" fill="rgb(50, 49, 63)" stroke="none" stroke-width="1px">6e-3</text><text x="0" y="55.78048837262605" dx="0em" dy="0.3em" style="text-anchor: end; visibility: inherit; font-family: &quot;Helvetica Neue&quot;, sans-serif; font-size: 12px; font-weight: 200;" fill="rgb(50, 49, 63)" stroke="none" stroke-width="1px">7e-3</text><text x="0" y="8.604552722736969" dx="0em" dy="0.3em" style="text-anchor: end; visibility: inherit; font-family: &quot;Helvetica Neue&quot;, sans-serif; font-size: 12px; font-weight: 200;" fill="rgb(50, 49, 63)" stroke="none" stroke-width="1px">8e-3</text></g><line x1="58" y1="0" x2="58" y2="378" fill="rgb(0, 0, 0)" stroke="rgb(204, 204, 204)" stroke-width="1px"></line></g></g><g transform="translate(58, 0)" clip-path="url(#clip_0)"><clipPath id="clip_0"><rect width="1440" height="378"></rect></clipPath><g><g><g><line x1="0" y1="0" x2="0" y2="378" fill="rgb(0, 0, 0)" stroke="rgb(60, 60, 60)" stroke-width="1px" opacity="0.25"></line><line x1="120" y1="0" x2="120" y2="378" fill="rgb(0, 0, 0)" stroke="rgb(60, 60, 60)" stroke-width="1px" opacity="0.25"></line><line x1="240" y1="0" x2="240" y2="378" fill="rgb(0, 0, 0)" stroke="rgb(60, 60, 60)" stroke-width="1px" opacity="0.25"></line><line x1="360" y1="0" x2="360" y2="378" fill="rgb(0, 0, 0)" stroke="rgb(60, 60, 60)" stroke-width="1px" opacity="0.25"></line><line x1="480" y1="0" x2="480" y2="378" fill="rgb(0, 0, 0)" stroke="rgb(60, 60, 60)" stroke-width="1px" opacity="0.25"></line><line x1="600" y1="0" x2="600" y2="378" fill="rgb(0, 0, 0)" stroke="rgb(60, 60, 60)" stroke-width="1px" opacity="0.25"></line><line x1="720" y1="0" x2="720" y2="378" fill="rgb(0, 0, 0)" stroke="rgb(60, 60, 60)" stroke-width="1px" opacity="0.25"></line><line x1="840" y1="0" x2="840" y2="378" fill="rgb(0, 0, 0)" stroke="rgb(60, 60, 60)" stroke-width="1px" opacity="0.25"></line><line x1="960" y1="0" x2="960" y2="378" fill="rgb(0, 0, 0)" stroke="rgb(60, 60, 60)" stroke-width="1px" opacity="0.25"></line><line x1="1080" y1="0" x2="1080" y2="378" fill="rgb(0, 0, 0)" stroke="rgb(60, 60, 60)" stroke-width="1px" opacity="0.25"></line><line x1="1200" y1="0" x2="1200" y2="378" fill="rgb(0, 0, 0)" stroke="rgb(60, 60, 60)" stroke-width="1px" opacity="0.25"></line><line x1="1320" y1="0" x2="1320" y2="378" fill="rgb(0, 0, 0)" stroke="rgb(60, 60, 60)" stroke-width="1px" opacity="0.25"></line><line x1="1440" y1="0" x2="1440" y2="378" fill="rgb(0, 0, 0)" stroke="rgb(60, 60, 60)" stroke-width="1px" opacity="0.25"></line></g><g><line x1="0" y1="355.12634669309676" x2="1440" y2="355.12634669309676" fill="rgb(0, 0, 0)" stroke="rgb(60, 60, 60)" stroke-width="1px" opacity="0.25"></line><line x1="0" y1="253.4897901436253" x2="1440" y2="253.4897901436253" fill="rgb(0, 0, 0)" stroke="rgb(60, 60, 60)" stroke-width="1px" opacity="0.25"></line><line x1="0" y1="174.6543521946793" x2="1440" y2="174.6543521946793" fill="rgb(0, 0, 0)" stroke="rgb(60, 60, 60)" stroke-width="1px" opacity="0.25"></line><line x1="0" y1="110.2411092722084" x2="1440" y2="110.2411092722084" fill="rgb(0, 0, 0)" stroke="rgb(60, 60, 60)" stroke-width="1px" opacity="0.25"></line><line x1="0" y1="55.78048837262605" x2="1440" y2="55.78048837262605" fill="rgb(0, 0, 0)" stroke="rgb(60, 60, 60)" stroke-width="1px" opacity="0.25"></line><line x1="0" y1="8.604552722736969" x2="1440" y2="8.604552722736969" fill="rgb(0, 0, 0)" stroke="rgb(60, 60, 60)" stroke-width="1px" opacity="0.25"></line></g></g></g><g><g><line x1="120" y1="0" x2="120" y2="378" fill="rgb(0, 0, 0)" stroke="rgb(153, 153, 153)" stroke-width="1.5px"></line></g></g><g><g><g><g><g><path stroke="rgb(255, 112, 67)" stroke-width="2px" d="M162,-43.12570029251913L168,48.254683029712396L174,54.00000000000017L180,-46.41761810207527L186.00000000000003,120.41953624127206L192,85.97671104545219L198.00000000000003,65.043533630566L204,91.03155115699087L210,54.6167556607366L216,80.1778305247438L222,72.92131182410975L228,142.70557720055447L234,173.28220358753825L240,150.14016214889716L246,236.51585786176562L251.99999999999997,252.49138256438204L258,182.7158300031973L264,166.307088952047L270,167.9714105402401L276,162.71862412778236L282,190.92072336458315L288,165.0858926201009L294,188.80638249746397L300,173.84783843838932L306,222.55275008578937L312,140.50696897560317L318,263.8944574258494L324,280.5877454347562L330,222.38473475608217L336,302.1207694108713L342,271.43773964083726L348,260.7595625473867L354,287.90808629124245L360,303.51471409882515L366,245.86391898368194L372.00000000000006,287.11882825931343L378,262.4852190488361L384,268.900190429256L390,268.5692539923913L396.00000000000006,249.24032832002322L402,284.03666074841203L408,272.6435443584712L413.99999999999994,243.62500105956312L420,295.7531364316583L426,295.63981565361576L432,334.6566451881556L437.99999999999994,285.4089491555835L444,324.0000000000001L450,282.72217335335984L456,262.18523094376746L462.00000000000006,284.0031419668113L468,249.48724481006371L474,321.17200774270896L480,295.8806136007714L486.00000000000006,255.60204020360408L492,288.1368875697794L498,308.7690053434547L503.99999999999994,290.4463752695258L510,284.79930381430705L516,313.81500273878646L522,336.6387152761001L528,261.6363097864508L534,297.86233269230445L540,279.06317159925555L546,304.41325768062L552,325.9704776118879L558,357.1126030791931L564,308.9389419592228L570,294.0047489256592L576,313.0275577871962L582,304.55573232494805L588,304.3771076725237L594,285.90343323638456L600,286.80371751186925L606,295.0299217020355L612,307.25325164195004L618,283.93396208270804L624,301.33826011381507L630,301.16805616007855L636,273.4484953256946L642,311.9774014487217L648,315.07159484200736L654,293.1626750016589L660,310.5227601942038L666,324.352752455689L672,293.56822322903486L678,297.820295567775L684,328.9450583415805L690,312.74849806961987L696,318.03971411670676L702,312.301828975545L708,318.117881488388L714,310.486583760074L720,324.6556222633781L726,306.7187105411125L732,306.9360327366812L737.9999999999999,327.38744402036025L744.0000000000001,308.5638914281375L750,290.16802399077613L756,297.5767046395647L762,303.48668694924277L768,289.8008838202687L774,316.43457012626277L780,291.2802527673739L785.9999999999999,297.38394593508167L792.0000000000001,282.2818678709086L798,310.86235156290013L804,317.8042795559338L810,292.70223244618603L816,309.51102488261597L822,295.0081567576775L827.9999999999999,292.8741527695504L834.0000000000001,280.20254134562106L840,302.14226896585865L846,322.8644084422457L852,285.16823081723004L858,307.81721309069565L864,297.7384506039549L870,301.2487692235161L875.9999999999999,293.9055907313385L882.0000000000001,294.0479721592896L888,285.1782855918668L894,304.05674088009357L900,290.0504593057073L906,304.21872779160924L912,300.2816855893684L917.9999999999999,281.61799420936694L924.0000000000001,305.9005816612986L930,294.82019212116944L936,310.10250111110014L942,302.10113539499275L948,304.70960389029676L954,294.13720311474157L960,294.9917587639203L965.9999999999999,298.1096206085814L972.0000000000001,294.97071308891105L978,295.5450619689493L984,286.1964677539761L990,290.24872693771624L996,301.3496806034102L1002,306.91005322439395L1007.9999999999999,307.31093882606064L1014.0000000000001,304.1701357874225L1020,312.6273812882956L1026,297.60107481533714L1032,311.05212808977194L1038,307.46505697235744L1044,324.15205508786516L1050,314.3301287029082L1056,308.2313033039503L1062,293.6601210074001L1068,312.91537215647384L1074,307.83090754938206L1080,300.38668901832557L1086,304.20173051229585L1092,291.41200977602256L1098,301.5321759430982L1104,314.5172069875093L1110,299.8840497187191L1116,314.7877366418431L1122,307.4880822560473L1128,327.9375100839814L1134,313.41171653531023L1140,319.39688775304813L1146,310.31428301739163L1152,308.4957388089807L1158,304.56046108294044L1164,311.4432056616033L1170,305.6804625559281L1176,313.21122000470416L1182,302.97368321833187L1188,312.60088265045846L1194,307.648294474526L1200,304.11419323195344L1206,319.1884837517212L1212,313.12137329526905L1218,303.7405997855629L1224,302.42651172905926L1230,294.51684798095306L1236,298.61681986739075L1242,286.4890456124796L1248,292.1632256712152L1254,289.8621955235703L1260,302.48816443177554L1266,296.4916307540742L1272,306.8072782484454L1278,303.34573201867664L1284,314.2261251427775L1290,298.44556278726475L1296,320.6809639628243L1302,310.34536921265334L1308,305.85576458496956L1314,296.9488787674605" style="fill: none;" fill="none"></path></g></g></g></g></g></g><g transform="translate(58, 378)" clip-path="url(#clip_1)"><clipPath id="clip_1"><rect width="1440" height="22"></rect></clipPath><g><g><line x1="0" y1="0" x2="0" y2="5" style="visibility: inherit;" fill="rgb(0, 0, 0)" stroke="rgb(204, 204, 204)" stroke-width="1px"></line><line x1="120" y1="0" x2="120" y2="5" style="visibility: inherit;" fill="rgb(0, 0, 0)" stroke="rgb(204, 204, 204)" stroke-width="1px"></line><line x1="240" y1="0" x2="240" y2="5" style="visibility: inherit;" fill="rgb(0, 0, 0)" stroke="rgb(204, 204, 204)" stroke-width="1px"></line><line x1="360" y1="0" x2="360" y2="5" style="visibility: inherit;" fill="rgb(0, 0, 0)" stroke="rgb(204, 204, 204)" stroke-width="1px"></line><line x1="480" y1="0" x2="480" y2="5" style="visibility: inherit;" fill="rgb(0, 0, 0)" stroke="rgb(204, 204, 204)" stroke-width="1px"></line><line x1="600" y1="0" x2="600" y2="5" style="visibility: inherit;" fill="rgb(0, 0, 0)" stroke="rgb(204, 204, 204)" stroke-width="1px"></line><line x1="720" y1="0" x2="720" y2="5" style="visibility: inherit;" fill="rgb(0, 0, 0)" stroke="rgb(204, 204, 204)" stroke-width="1px"></line><line x1="840" y1="0" x2="840" y2="5" style="visibility: inherit;" fill="rgb(0, 0, 0)" stroke="rgb(204, 204, 204)" stroke-width="1px"></line><line x1="960" y1="0" x2="960" y2="5" style="visibility: inherit;" fill="rgb(0, 0, 0)" stroke="rgb(204, 204, 204)" stroke-width="1px"></line><line x1="1080" y1="0" x2="1080" y2="5" style="visibility: inherit;" fill="rgb(0, 0, 0)" stroke="rgb(204, 204, 204)" stroke-width="1px"></line><line x1="1200" y1="0" x2="1200" y2="5" style="visibility: inherit;" fill="rgb(0, 0, 0)" stroke="rgb(204, 204, 204)" stroke-width="1px"></line><line x1="1320" y1="0" x2="1320" y2="5" style="visibility: inherit;" fill="rgb(0, 0, 0)" stroke="rgb(204, 204, 204)" stroke-width="1px"></line><line x1="1440" y1="0" x2="1440" y2="5" style="visibility: inherit;" fill="rgb(0, 0, 0)" stroke="rgb(204, 204, 204)" stroke-width="1px"></line></g><g transform="translate(0, 8)"><text x="0" y="0" dx="0em" dy="0.95em" style="text-anchor: middle; visibility: hidden; font-family: &quot;Helvetica Neue&quot;, sans-serif; font-size: 12px; font-weight: 200;" fill="rgb(50, 49, 63)" stroke="none" stroke-width="1px">-20</text><text x="120" y="0" dx="0em" dy="0.95em" style="text-anchor: middle; visibility: inherit; font-family: &quot;Helvetica Neue&quot;, sans-serif; font-size: 12px; font-weight: 200;" fill="rgb(50, 49, 63)" stroke="none" stroke-width="1px">0</text><text x="240" y="0" dx="0em" dy="0.95em" style="text-anchor: middle; visibility: inherit; font-family: &quot;Helvetica Neue&quot;, sans-serif; font-size: 12px; font-weight: 200;" fill="rgb(50, 49, 63)" stroke="none" stroke-width="1px">20</text><text x="360" y="0" dx="0em" dy="0.95em" style="text-anchor: middle; visibility: inherit; font-family: &quot;Helvetica Neue&quot;, sans-serif; font-size: 12px; font-weight: 200;" fill="rgb(50, 49, 63)" stroke="none" stroke-width="1px">40</text><text x="480" y="0" dx="0em" dy="0.95em" style="text-anchor: middle; visibility: inherit; font-family: &quot;Helvetica Neue&quot;, sans-serif; font-size: 12px; font-weight: 200;" fill="rgb(50, 49, 63)" stroke="none" stroke-width="1px">60</text><text x="600" y="0" dx="0em" dy="0.95em" style="text-anchor: middle; visibility: inherit; font-family: &quot;Helvetica Neue&quot;, sans-serif; font-size: 12px; font-weight: 200;" fill="rgb(50, 49, 63)" stroke="none" stroke-width="1px">80</text><text x="720" y="0" dx="0em" dy="0.95em" style="text-anchor: middle; visibility: inherit; font-family: &quot;Helvetica Neue&quot;, sans-serif; font-size: 12px; font-weight: 200;" fill="rgb(50, 49, 63)" stroke="none" stroke-width="1px">100</text><text x="840" y="0" dx="0em" dy="0.95em" style="text-anchor: middle; visibility: inherit; font-family: &quot;Helvetica Neue&quot;, sans-serif; font-size: 12px; font-weight: 200;" fill="rgb(50, 49, 63)" stroke="none" stroke-width="1px">120</text><text x="960" y="0" dx="0em" dy="0.95em" style="text-anchor: middle; visibility: inherit; font-family: &quot;Helvetica Neue&quot;, sans-serif; font-size: 12px; font-weight: 200;" fill="rgb(50, 49, 63)" stroke="none" stroke-width="1px">140</text><text x="1080" y="0" dx="0em" dy="0.95em" style="text-anchor: middle; visibility: inherit; font-family: &quot;Helvetica Neue&quot;, sans-serif; font-size: 12px; font-weight: 200;" fill="rgb(50, 49, 63)" stroke="none" stroke-width="1px">160</text><text x="1200" y="0" dx="0em" dy="0.95em" style="text-anchor: middle; visibility: inherit; font-family: &quot;Helvetica Neue&quot;, sans-serif; font-size: 12px; font-weight: 200;" fill="rgb(50, 49, 63)" stroke="none" stroke-width="1px">180</text><text x="1320" y="0" dx="0em" dy="0.95em" style="text-anchor: middle; visibility: inherit; font-family: &quot;Helvetica Neue&quot;, sans-serif; font-size: 12px; font-weight: 200;" fill="rgb(50, 49, 63)" stroke="none" stroke-width="1px">200</text><text x="1440" y="0" dx="0em" dy="0.95em" style="text-anchor: middle; visibility: hidden; font-family: &quot;Helvetica Neue&quot;, sans-serif; font-size: 12px; font-weight: 200;" fill="rgb(50, 49, 63)" stroke="none" stroke-width="1px">220</text></g><line x1="0" y1="0" x2="1440" y2="0" fill="rgb(0, 0, 0)" stroke="rgb(204, 204, 204)" stroke-width="1px"></line></g></g></g></g></svg>