<svg viewBox="0 0 1498 400" xmlns="http://www.w3.org/2000/svg"><g><g><g><g><g><line x1="58" y1="378" x2="53" y2="378" style="visibility: inherit;" fill="rgb(0, 0, 0)" stroke="rgb(204, 204, 204)" stroke-width="1px"></line><line x1="58" y1="343.6363636363636" x2="53" y2="343.6363636363636" style="visibility: inherit;" fill="rgb(0, 0, 0)" stroke="rgb(204, 204, 204)" stroke-width="1px"></line><line x1="58" y1="309.27272727272725" x2="53" y2="309.27272727272725" style="visibility: inherit;" fill="rgb(0, 0, 0)" stroke="rgb(204, 204, 204)" stroke-width="1px"></line><line x1="58" y1="274.9090909090909" x2="53" y2="274.9090909090909" style="visibility: inherit;" fill="rgb(0, 0, 0)" stroke="rgb(204, 204, 204)" stroke-width="1px"></line><line x1="58" y1="240.54545454545453" x2="53" y2="240.54545454545453" style="visibility: inherit;" fill="rgb(0, 0, 0)" stroke="rgb(204, 204, 204)" stroke-width="1px"></line><line x1="58" y1="206.1818181818182" x2="53" y2="206.1818181818182" style="visibility: inherit;" fill="rgb(0, 0, 0)" stroke="rgb(204, 204, 204)" stroke-width="1px"></line><line x1="58" y1="171.81818181818184" x2="53" y2="171.81818181818184" style="visibility: inherit;" fill="rgb(0, 0, 0)" stroke="rgb(204, 204, 204)" stroke-width="1px"></line><line x1="58" y1="137.4545454545455" x2="53" y2="137.4545454545455" style="visibility: inherit;" fill="rgb(0, 0, 0)" stroke="rgb(204, 204, 204)" stroke-width="1px"></line><line x1="58" y1="103.09090909090912" x2="53" y2="103.09090909090912" style="visibility: inherit;" fill="rgb(0, 0, 0)" stroke="rgb(204, 204, 204)" stroke-width="1px"></line><line x1="58" y1="68.72727272727275" x2="53" y2="68.72727272727275" style="visibility: inherit;" fill="rgb(0, 0, 0)" stroke="rgb(204, 204, 204)" stroke-width="1px"></line><line x1="58" y1="34.363636363636374" x2="53" y2="34.363636363636374" style="visibility: inherit;" fill="rgb(0, 0, 0)" stroke="rgb(204, 204, 204)" stroke-width="1px"></line><line x1="58" y1="0" x2="53" y2="0" style="visibility: inherit;" fill="rgb(0, 0, 0)" stroke="rgb(204, 204, 204)" stroke-width="1px"></line></g><g transform="translate(48, 0)"><text x="0" y="378" dx="0em" dy="0.3em" style="text-anchor: end; visibility: hidden; font-family: &quot;Helvetica Neue&quot;, sans-serif; font-size: 12px; font-weight: 200;" fill="rgb(50, 49, 63)" stroke="none" stroke-width="1px">-0.1</text><text x="0" y="343.6363636363636" dx="0em" dy="0.3em" style="text-anchor: end; visibility: inherit; font-family: &quot;Helvetica Neue&quot;, sans-serif; font-size: 12px; font-weight: 200;" fill="rgb(50, 49, 63)" stroke="none" stroke-width="1px">0</text><text x="0" y="309.27272727272725" dx="0em" dy="0.3em" style="text-anchor: end; visibility: inherit; font-family: &quot;Helvetica Neue&quot;, sans-serif; font-size: 12px; font-weight: 200;" fill="rgb(50, 49, 63)" stroke="none" stroke-width="1px">0.1</text><text x="0" y="274.9090909090909" dx="0em" dy="0.3em" style="text-anchor: end; visibility: inherit; font-family: &quot;Helvetica Neue&quot;, sans-serif; font-size: 12px; font-weight: 200;" fill="rgb(50, 49, 63)" stroke="none" stroke-width="1px">0.2</text><text x="0" y="240.54545454545453" dx="0em" dy="0.3em" style="text-anchor: end; visibility: inherit; font-family: &quot;Helvetica Neue&quot;, sans-serif; font-size: 12px; font-weight: 200;" fill="rgb(50, 49, 63)" stroke="none" stroke-width="1px">0.3</text><text x="0" y="206.1818181818182" dx="0em" dy="0.3em" style="text-anchor: end; visibility: inherit; font-family: &quot;Helvetica Neue&quot;, sans-serif; font-size: 12px; font-weight: 200;" fill="rgb(50, 49, 63)" stroke="none" stroke-width="1px">0.4</text><text x="0" y="171.81818181818184" dx="0em" dy="0.3em" style="text-anchor: end; visibility: inherit; font-family: &quot;Helvetica Neue&quot;, sans-serif; font-size: 12px; font-weight: 200;" fill="rgb(50, 49, 63)" stroke="none" stroke-width="1px">0.5</text><text x="0" y="137.4545454545455" dx="0em" dy="0.3em" style="text-anchor: end; visibility: inherit; font-family: &quot;Helvetica Neue&quot;, sans-serif; font-size: 12px; font-weight: 200;" fill="rgb(50, 49, 63)" stroke="none" stroke-width="1px">0.6</text><text x="0" y="103.09090909090912" dx="0em" dy="0.3em" style="text-anchor: end; visibility: inherit; font-family: &quot;Helvetica Neue&quot;, sans-serif; font-size: 12px; font-weight: 200;" fill="rgb(50, 49, 63)" stroke="none" stroke-width="1px">0.7</text><text x="0" y="68.72727272727275" dx="0em" dy="0.3em" style="text-anchor: end; visibility: inherit; font-family: &quot;Helvetica Neue&quot;, sans-serif; font-size: 12px; font-weight: 200;" fill="rgb(50, 49, 63)" stroke="none" stroke-width="1px">0.8</text><text x="0" y="34.363636363636374" dx="0em" dy="0.3em" style="text-anchor: end; visibility: inherit; font-family: &quot;Helvetica Neue&quot;, sans-serif; font-size: 12px; font-weight: 200;" fill="rgb(50, 49, 63)" stroke="none" stroke-width="1px">0.9</text><text x="0" y="0" dx="0em" dy="0.3em" style="text-anchor: end; visibility: hidden; font-family: &quot;Helvetica Neue&quot;, sans-serif; font-size: 12px; font-weight: 200;" fill="rgb(50, 49, 63)" stroke="none" stroke-width="1px">1</text></g><line x1="58" y1="0" x2="58" y2="378" fill="rgb(0, 0, 0)" stroke="rgb(204, 204, 204)" stroke-width="1px"></line></g></g><g transform="translate(58, 0)" clip-path="url(#clip_0)"><clipPath id="clip_0"><rect width="1440" height="378"></rect></clipPath><g><g><g><line x1="0" y1="0" x2="0" y2="378" fill="rgb(0, 0, 0)" stroke="rgb(60, 60, 60)" stroke-width="1px" opacity="0.25"></line><line x1="130.9090909090909" y1="0" x2="130.9090909090909" y2="378" fill="rgb(0, 0, 0)" stroke="rgb(60, 60, 60)" stroke-width="1px" opacity="0.25"></line><line x1="261.8181818181818" y1="0" x2="261.8181818181818" y2="378" fill="rgb(0, 0, 0)" stroke="rgb(60, 60, 60)" stroke-width="1px" opacity="0.25"></line><line x1="392.7272727272727" y1="0" x2="392.7272727272727" y2="378" fill="rgb(0, 0, 0)" stroke="rgb(60, 60, 60)" stroke-width="1px" opacity="0.25"></line><line x1="523.6363636363636" y1="0" x2="523.6363636363636" y2="378" fill="rgb(0, 0, 0)" stroke="rgb(60, 60, 60)" stroke-width="1px" opacity="0.25"></line><line x1="654.5454545454545" y1="0" x2="654.5454545454545" y2="378" fill="rgb(0, 0, 0)" stroke="rgb(60, 60, 60)" stroke-width="1px" opacity="0.25"></line><line x1="785.4545454545454" y1="0" x2="785.4545454545454" y2="378" fill="rgb(0, 0, 0)" stroke="rgb(60, 60, 60)" stroke-width="1px" opacity="0.25"></line><line x1="916.3636363636364" y1="0" x2="916.3636363636364" y2="378" fill="rgb(0, 0, 0)" stroke="rgb(60, 60, 60)" stroke-width="1px" opacity="0.25"></line><line x1="1047.2727272727273" y1="0" x2="1047.2727272727273" y2="378" fill="rgb(0, 0, 0)" stroke="rgb(60, 60, 60)" stroke-width="1px" opacity="0.25"></line><line x1="1178.1818181818182" y1="0" x2="1178.1818181818182" y2="378" fill="rgb(0, 0, 0)" stroke="rgb(60, 60, 60)" stroke-width="1px" opacity="0.25"></line><line x1="1309.090909090909" y1="0" x2="1309.090909090909" y2="378" fill="rgb(0, 0, 0)" stroke="rgb(60, 60, 60)" stroke-width="1px" opacity="0.25"></line><line x1="1440" y1="0" x2="1440" y2="378" fill="rgb(0, 0, 0)" stroke="rgb(60, 60, 60)" stroke-width="1px" opacity="0.25"></line></g><g><line x1="0" y1="378" x2="1440" y2="378" fill="rgb(0, 0, 0)" stroke="rgb(60, 60, 60)" stroke-width="1px" opacity="0.25"></line><line x1="0" y1="343.6363636363636" x2="1440" y2="343.6363636363636" fill="rgb(0, 0, 0)" stroke="rgb(60, 60, 60)" stroke-width="1px" opacity="0.25"></line><line x1="0" y1="309.27272727272725" x2="1440" y2="309.27272727272725" fill="rgb(0, 0, 0)" stroke="rgb(60, 60, 60)" stroke-width="1px" opacity="0.25"></line><line x1="0" y1="274.9090909090909" x2="1440" y2="274.9090909090909" fill="rgb(0, 0, 0)" stroke="rgb(60, 60, 60)" stroke-width="1px" opacity="0.25"></line><line x1="0" y1="240.54545454545453" x2="1440" y2="240.54545454545453" fill="rgb(0, 0, 0)" stroke="rgb(60, 60, 60)" stroke-width="1px" opacity="0.25"></line><line x1="0" y1="206.1818181818182" x2="1440" y2="206.1818181818182" fill="rgb(0, 0, 0)" stroke="rgb(60, 60, 60)" stroke-width="1px" opacity="0.25"></line><line x1="0" y1="171.81818181818184" x2="1440" y2="171.81818181818184" fill="rgb(0, 0, 0)" stroke="rgb(60, 60, 60)" stroke-width="1px" opacity="0.25"></line><line x1="0" y1="137.4545454545455" x2="1440" y2="137.4545454545455" fill="rgb(0, 0, 0)" stroke="rgb(60, 60, 60)" stroke-width="1px" opacity="0.25"></line><line x1="0" y1="103.09090909090912" x2="1440" y2="103.09090909090912" fill="rgb(0, 0, 0)" stroke="rgb(60, 60, 60)" stroke-width="1px" opacity="0.25"></line><line x1="0" y1="68.72727272727275" x2="1440" y2="68.72727272727275" fill="rgb(0, 0, 0)" stroke="rgb(60, 60, 60)" stroke-width="1px" opacity="0.25"></line><line x1="0" y1="34.363636363636374" x2="1440" y2="34.363636363636374" fill="rgb(0, 0, 0)" stroke="rgb(60, 60, 60)" stroke-width="1px" opacity="0.25"></line><line x1="0" y1="0" x2="1440" y2="0" fill="rgb(0, 0, 0)" stroke="rgb(60, 60, 60)" stroke-width="1px" opacity="0.25"></line></g></g></g><g><g><line x1="0" y1="343.6363636363636" x2="1440" y2="343.6363636363636" fill="rgb(0, 0, 0)" stroke="rgb(153, 153, 153)" stroke-width="1.5px"></line></g></g><g><g><line x1="130.9090909090909" y1="0" x2="130.9090909090909" y2="378" fill="rgb(0, 0, 0)" stroke="rgb(153, 153, 153)" stroke-width="1.5px"></line></g></g><g><g><g><g><g><path stroke="rgb(255, 112, 67)" stroke-width="2px" d="M130.9090909090909,343.6363636363636L130.9090909090909,343.6363636363636L130.9090909090909,343.6363636363636L130.9090909090909,343.6363636363636L130.9090909090909,343.6363636363636L130.9090909090909,343.6363636363636L130.9090909090909,343.6363636363636L130.9090909090909,343.6363636363636L130.9090909090909,343.6363636363636L130.9090909090909,343.6363636363636L130.9090909090909,343.6363636363636L130.9090909090909,343.6363636363636L130.9090909090909,133.06478619575503L130.9090909090909,260.6423528356986L130.9090909090909,343.6363636363636L130.9090909090909,343.6363636363636L130.9090909090909,244.18072489174932L137.45454545454547,207.1420786597512L144,210.57158768177035L130.9090909090909,343.6363636363636L130.9090909090909,343.6363636363636L130.9090909090909,343.6363636363636L130.9090909090909,343.6363636363636L130.9090909090909,343.6363636363636L130.9090909090909,343.6363636363636L130.9090909090909,251.7256447401914L130.9090909090909,141.29558736627754L137.45454545454547,244.86662669615313L144,203.7125798788938L150.54545454545453,112.48775254596364L157.0909090909091,200.96897266127849L163.63636363636363,126.89168019728231L170.1818181818182,171.47522579539907L176.72727272727272,119.34677059000188L183.27272727272725,216.05879187583926L189.8181818181818,130.32117897813973L196.36363636363635,196.85356183485553L202.9090909090909,99.45562850345266L209.45454545454544,124.83396454290914L216,176.27653842622587L222.54545454545453,174.2188330130144L229.0909090909091,103.57103932987565L235.63636363636363,203.7125798788938L242.1818181818182,111.11594893715602L248.72727272727272,154.32771140878853L255.27272727272728,97.3979333314029L261.8181818181818,117.97496698119426L268.3636363636364,102.19923572106796L274.90909090909093,122.09035732529381L281.4545454545455,139.9237837574699L288,102.19923572106796L294.54545454545456,155.69951501759616L301.09090909090907,86.42352494326508L307.6363636363636,112.48775254596364L314.1818181818182,87.10941650650722L320.7272727272727,85.73761289769953L327.27272727272725,127.57757176052442L333.8181818181818,78.19270329041916L340.3636363636364,141.29558736627754L346.9090909090909,110.43005737391388L353.45454545454544,148.84049697355795L360,87.10941650650722L366.5454545454545,142.66739097508517L373.0909090909091,139.23789219422778L379.6363636363636,96.71202128583735L386.1818181818182,118.6608585444364L392.7272727272727,127.57757176052442L399.2727272727273,117.97496698119426L405.8181818181818,124.14807297966698L412.3636363636364,103.57103932987565L418.9090909090909,104.94284293868327L425.4545454545455,117.97496698119426L432,79.56450689922684L438.54545454545456,132.37887415018952L445.09090909090907,93.28252250497991L451.6363636363637,64.4746876846661L458.1818181818182,107.00053811073309L464.72727272727275,98.08382489464503L471.27272727272725,106.3146465474909L477.81818181818187,109.05825376510626L484.3636363636364,115.23135976357895L490.9090909090909,104.94284293868327L497.45454545454544,91.91071889617228L503.99999999999994,98.08382489464503L510.54545454545456,106.3146465474909L517.090909090909,119.34677059000188L523.6363636363636,80.93631050803447L530.1818181818181,93.28252250497991L536.7272727272727,68.59009851108902L543.2727272727273,89.85302372412252L549.8181818181819,144.725086147135L556.3636363636364,82.30811411684209L562.909090909091,114.54544771801346L569.4545454545455,73.39140090075409L576,88.48122011531484L582.5454545454545,78.19270329041916L589.0909090909091,122.09035732529381L595.6363636363636,100.82743211226034L602.1818181818181,98.08382489464503L608.7272727272727,87.10941650650722L615.2727272727273,96.02612972259527L621.8181818181819,101.51334415782583L628.3636363636364,87.7953285520727L634.9090909090909,96.02612972259527L641.4545454545454,91.91071889617228L648,96.71202128583735L654.5454545454545,108.37234171954071L661.0909090909091,97.3979333314029L667.6363636363636,87.7953285520727L674.1818181818182,77.50681172717702L680.7272727272727,78.8786153359847L687.2727272727273,98.76973694021052L693.8181818181818,81.6222020712766L700.3636363636364,110.43005737391388L706.9090909090909,93.96843455054545L713.4545454545455,100.1415405490182L720,91.91071889617228L726.5454545454545,87.7953285520727L733.090909090909,88.48122011531484L739.6363636363637,116.60316337238663L746.1818181818182,82.30811411684209L752.7272727272727,98.08382489464503L759.2727272727273,82.99400568008429L765.8181818181819,109.74414532834834L772.3636363636364,86.42352494326508L778.9090909090909,92.59663094173783L785.4545454545454,85.73761289769953L792.0000000000001,83.67991772564977L798.5454545454546,89.85302372412252L805.0909090909091,89.85302372412252L811.6363636363636,78.8786153359847L818.1818181818182,143.3533030206507L824.7272727272727,77.50681172717702L831.2727272727273,84.36580928889191L837.8181818181818,89.16711167855698L844.3636363636363,93.96843455054545L850.909090909091,89.16711167855698L857.4545454545455,91.91071889617228L864,80.25039846246892L870.5454545454545,78.19270329041916L877.0909090909091,77.50681172717702L883.6363636363636,82.99400568008429L890.1818181818181,90.53891528736466L896.7272727272726,82.30811411684209L903.2727272727274,90.53891528736466L909.8181818181819,101.51334415782583L916.3636363636364,108.37234171954071L922.9090909090909,91.22482733293015L929.4545454545455,85.05172133445745L936,100.82743211226034L942.5454545454545,85.73761289769953L949.090909090909,100.1415405490182L955.6363636363637,100.1415405490182L962.1818181818182,91.22482733293015L968.7272727272727,82.30811411684209L975.2727272727273,89.16711167855698L981.8181818181818,85.73761289769953L988.3636363636364,89.16711167855698L994.9090909090909,88.48122011531484L1001.4545454545454,93.96843455054545L1007.9999999999999,87.10941650650722L1014.5454545454546,74.07729246399623L1021.0909090909091,83.67991772564977L1027.6363636363635,81.6222020712766L1034.181818181818,90.53891528736466L1040.7272727272727,96.71202128583735L1047.2727272727273,80.25039846246892L1053.8181818181818,73.39140090075409L1060.3636363636363,85.05172133445745L1066.909090909091,87.7953285520727L1073.4545454545455,97.3979333314029L1080,80.93631050803447L1086.5454545454545,104.25693089311773L1093.090909090909,87.7953285520727L1099.6363636363637,93.96843455054545L1106.1818181818182,89.85302372412252L1112.7272727272727,98.08382489464503L1119.2727272727273,85.05172133445745L1125.818181818182,84.36580928889191L1132.3636363636365,83.67991772564977L1138.909090909091,89.85302372412252L1145.4545454545455,89.85302372412252L1152,96.02612972259527L1158.5454545454545,88.48122011531484L1165.090909090909,85.73761289769953L1171.6363636363635,88.48122011531484L1178.1818181818182,88.48122011531484L1184.7272727272727,84.36580928889191L1191.2727272727273,84.36580928889191L1197.8181818181818,91.91071889617228L1204.3636363636363,98.08382489464503L1210.909090909091,82.99400568008429L1217.4545454545455,82.99400568008429L1224,80.25039846246892L1230.5454545454545,89.85302372412252L1237.0909090909092,81.6222020712766L1243.6363636363637,84.36580928889191L1250.1818181818182,95.34023815935308L1256.7272727272727,90.53891528736466L1263.2727272727273,76.82089968161154L1269.8181818181818,81.6222020712766L1276.3636363636363,91.22482733293015L1282.9090909090908,85.05172133445745L1289.4545454545455,91.22482733293015L1296,85.05172133445745L1302.5454545454545,91.91071889617228L1309.090909090909,100.1415405490182L1315.6363636363637,87.7953285520727L1322.1818181818182,83.67991772564977L1328.7272727272727,95.34023815935308L1335.2727272727273,91.91071889617228L1341.8181818181818,87.10941650650722L1348.3636363636365,93.28252250497991L1354.909090909091,106.3146465474909L1361.4545454545455,84.36580928889191L1368,85.73761289769953L1374.5454545454545,83.67991772564977L1381.090909090909,94.65432611378759L1387.6363636363635,93.28252250497991L1394.181818181818,90.53891528736466L1400.7272727272727,93.96843455054545L1407.2727272727273,82.30811411684209L1413.8181818181818,89.85302372412252L1420.3636363636363,83.67991772564977L1426.909090909091,89.16711167855698L1433.4545454545455,83.67991772564977" style="fill: none;" fill="none"></path></g></g></g></g></g></g><g transform="translate(58, 378)" clip-path="url(#clip_1)"><clipPath id="clip_1"><rect width="1440" height="22"></rect></clipPath><g><g><line x1="0" y1="0" x2="0" y2="5" style="visibility: inherit;" fill="rgb(0, 0, 0)" stroke="rgb(204, 204, 204)" stroke-width="1px"></line><line x1="130.9090909090909" y1="0" x2="130.9090909090909" y2="5" style="visibility: inherit;" fill="rgb(0, 0, 0)" stroke="rgb(204, 204, 204)" stroke-width="1px"></line><line x1="261.8181818181818" y1="0" x2="261.8181818181818" y2="5" style="visibility: inherit;" fill="rgb(0, 0, 0)" stroke="rgb(204, 204, 204)" stroke-width="1px"></line><line x1="392.7272727272727" y1="0" x2="392.7272727272727" y2="5" style="visibility: inherit;" fill="rgb(0, 0, 0)" stroke="rgb(204, 204, 204)" stroke-width="1px"></line><line x1="523.6363636363636" y1="0" x2="523.6363636363636" y2="5" style="visibility: inherit;" fill="rgb(0, 0, 0)" stroke="rgb(204, 204, 204)" stroke-width="1px"></line><line x1="654.5454545454545" y1="0" x2="654.5454545454545" y2="5" style="visibility: inherit;" fill="rgb(0, 0, 0)" stroke="rgb(204, 204, 204)" stroke-width="1px"></line><line x1="785.4545454545454" y1="0" x2="785.4545454545454" y2="5" style="visibility: inherit;" fill="rgb(0, 0, 0)" stroke="rgb(204, 204, 204)" stroke-width="1px"></line><line x1="916.3636363636364" y1="0" x2="916.3636363636364" y2="5" style="visibility: inherit;" fill="rgb(0, 0, 0)" stroke="rgb(204, 204, 204)" stroke-width="1px"></line><line x1="1047.2727272727273" y1="0" x2="1047.2727272727273" y2="5" style="visibility: inherit;" fill="rgb(0, 0, 0)" stroke="rgb(204, 204, 204)" stroke-width="1px"></line><line x1="1178.1818181818182" y1="0" x2="1178.1818181818182" y2="5" style="visibility: inherit;" fill="rgb(0, 0, 0)" stroke="rgb(204, 204, 204)" stroke-width="1px"></line><line x1="1309.090909090909" y1="0" x2="1309.090909090909" y2="5" style="visibility: inherit;" fill="rgb(0, 0, 0)" stroke="rgb(204, 204, 204)" stroke-width="1px"></line><line x1="1440" y1="0" x2="1440" y2="5" style="visibility: inherit;" fill="rgb(0, 0, 0)" stroke="rgb(204, 204, 204)" stroke-width="1px"></line></g><g transform="translate(0, 8)"><text x="0" y="0" dx="0em" dy="0.95em" style="text-anchor: middle; visibility: hidden; font-family: &quot;Helvetica Neue&quot;, sans-serif; font-size: 12px; font-weight: 200;" fill="rgb(50, 49, 63)" stroke="none" stroke-width="1px">-20</text><text x="130.9090909090909" y="0" dx="0em" dy="0.95em" style="text-anchor: middle; visibility: inherit; font-family: &quot;Helvetica Neue&quot;, sans-serif; font-size: 12px; font-weight: 200;" fill="rgb(50, 49, 63)" stroke="none" stroke-width="1px">0</text><text x="261.8181818181818" y="0" dx="0em" dy="0.95em" style="text-anchor: middle; visibility: inherit; font-family: &quot;Helvetica Neue&quot;, sans-serif; font-size: 12px; font-weight: 200;" fill="rgb(50, 49, 63)" stroke="none" stroke-width="1px">20</text><text x="392.7272727272727" y="0" dx="0em" dy="0.95em" style="text-anchor: middle; visibility: inherit; font-family: &quot;Helvetica Neue&quot;, sans-serif; font-size: 12px; font-weight: 200;" fill="rgb(50, 49, 63)" stroke="none" stroke-width="1px">40</text><text x="523.6363636363636" y="0" dx="0em" dy="0.95em" style="text-anchor: middle; visibility: inherit; font-family: &quot;Helvetica Neue&quot;, sans-serif; font-size: 12px; font-weight: 200;" fill="rgb(50, 49, 63)" stroke="none" stroke-width="1px">60</text><text x="654.5454545454545" y="0" dx="0em" dy="0.95em" style="text-anchor: middle; visibility: inherit; font-family: &quot;Helvetica Neue&quot;, sans-serif; font-size: 12px; font-weight: 200;" fill="rgb(50, 49, 63)" stroke="none" stroke-width="1px">80</text><text x="785.4545454545454" y="0" dx="0em" dy="0.95em" style="text-anchor: middle; visibility: inherit; font-family: &quot;Helvetica Neue&quot;, sans-serif; font-size: 12px; font-weight: 200;" fill="rgb(50, 49, 63)" stroke="none" stroke-width="1px">100</text><text x="916.3636363636364" y="0" dx="0em" dy="0.95em" style="text-anchor: middle; visibility: inherit; font-family: &quot;Helvetica Neue&quot;, sans-serif; font-size: 12px; font-weight: 200;" fill="rgb(50, 49, 63)" stroke="none" stroke-width="1px">120</text><text x="1047.2727272727273" y="0" dx="0em" dy="0.95em" style="text-anchor: middle; visibility: inherit; font-family: &quot;Helvetica Neue&quot;, sans-serif; font-size: 12px; font-weight: 200;" fill="rgb(50, 49, 63)" stroke="none" stroke-width="1px">140</text><text x="1178.1818181818182" y="0" dx="0em" dy="0.95em" style="text-anchor: middle; visibility: inherit; font-family: &quot;Helvetica Neue&quot;, sans-serif; font-size: 12px; font-weight: 200;" fill="rgb(50, 49, 63)" stroke="none" stroke-width="1px">160</text><text x="1309.090909090909" y="0" dx="0em" dy="0.95em" style="text-anchor: middle; visibility: inherit; font-family: &quot;Helvetica Neue&quot;, sans-serif; font-size: 12px; font-weight: 200;" fill="rgb(50, 49, 63)" stroke="none" stroke-width="1px">180</text><text x="1440" y="0" dx="0em" dy="0.95em" style="text-anchor: middle; visibility: hidden; font-family: &quot;Helvetica Neue&quot;, sans-serif; font-size: 12px; font-weight: 200;" fill="rgb(50, 49, 63)" stroke="none" stroke-width="1px">200</text></g><line x1="0" y1="0" x2="1440" y2="0" fill="rgb(0, 0, 0)" stroke="rgb(204, 204, 204)" stroke-width="1px"></line></g></g></g></g></svg>