<svg viewBox="0 0 1498 400" xmlns="http://www.w3.org/2000/svg"><g><g><g><g><g><line x1="58" y1="360.91491970490813" x2="53" y2="360.91491970490813" style="visibility: inherit;" fill="rgb(0, 0, 0)" stroke="rgb(204, 204, 204)" stroke-width="1px"></line><line x1="58" y1="317.21818681180685" x2="53" y2="317.21818681180685" style="visibility: inherit;" fill="rgb(0, 0, 0)" stroke="rgb(204, 204, 204)" stroke-width="1px"></line><line x1="58" y1="283.32436758457857" x2="53" y2="283.32436758457857" style="visibility: inherit;" fill="rgb(0, 0, 0)" stroke="rgb(204, 204, 204)" stroke-width="1px"></line><line x1="58" y1="255.63110084751008" x2="53" y2="255.63110084751008" style="visibility: inherit;" fill="rgb(0, 0, 0)" stroke="rgb(204, 204, 204)" stroke-width="1px"></line><line x1="58" y1="232.21677744426535" x2="53" y2="232.21677744426535" style="visibility: inherit;" fill="rgb(0, 0, 0)" stroke="rgb(204, 204, 204)" stroke-width="1px"></line><line x1="58" y1="211.93436795440883" x2="53" y2="211.93436795440883" style="visibility: inherit;" fill="rgb(0, 0, 0)" stroke="rgb(204, 204, 204)" stroke-width="1px"></line><line x1="58" y1="194.0440148832133" x2="53" y2="194.0440148832133" style="visibility: inherit;" fill="rgb(0, 0, 0)" stroke="rgb(204, 204, 204)" stroke-width="1px"></line><line x1="58" y1="178.04054872718055" x2="53" y2="178.04054872718055" style="visibility: inherit;" fill="rgb(0, 0, 0)" stroke="rgb(204, 204, 204)" stroke-width="1px"></line><line x1="58" y1="72.75672986978253" x2="53" y2="72.75672986978253" style="visibility: inherit;" fill="rgb(0, 0, 0)" stroke="rgb(204, 204, 204)" stroke-width="1px"></line><line x1="58" y1="11.16964390548577" x2="53" y2="11.16964390548577" style="visibility: inherit;" fill="rgb(0, 0, 0)" stroke="rgb(204, 204, 204)" stroke-width="1px"></line></g><g transform="translate(48, 0)"><text x="0" y="360.91491970490813" dx="0em" dy="0.3em" style="text-anchor: end; visibility: inherit; font-family: &quot;Helvetica Neue&quot;, sans-serif; font-size: 12px; font-weight: 200;" fill="rgb(50, 49, 63)" stroke="none" stroke-width="1px">3e-3</text><text x="0" y="317.21818681180685" dx="0em" dy="0.3em" style="text-anchor: end; visibility: hidden; font-family: &quot;Helvetica Neue&quot;, sans-serif; font-size: 12px; font-weight: 200;" fill="rgb(50, 49, 63)" stroke="none" stroke-width="1px">4e-3</text><text x="0" y="283.32436758457857" dx="0em" dy="0.3em" style="text-anchor: end; visibility: inherit; font-family: &quot;Helvetica Neue&quot;, sans-serif; font-size: 12px; font-weight: 200;" fill="rgb(50, 49, 63)" stroke="none" stroke-width="1px">5e-3</text><text x="0" y="255.63110084751008" dx="0em" dy="0.3em" style="text-anchor: end; visibility: hidden; font-family: &quot;Helvetica Neue&quot;, sans-serif; font-size: 12px; font-weight: 200;" fill="rgb(50, 49, 63)" stroke="none" stroke-width="1px">6e-3</text><text x="0" y="232.21677744426535" dx="0em" dy="0.3em" style="text-anchor: end; visibility: inherit; font-family: &quot;Helvetica Neue&quot;, sans-serif; font-size: 12px; font-weight: 200;" fill="rgb(50, 49, 63)" stroke="none" stroke-width="1px">7e-3</text><text x="0" y="211.93436795440883" dx="0em" dy="0.3em" style="text-anchor: end; visibility: hidden; font-family: &quot;Helvetica Neue&quot;, sans-serif; font-size: 12px; font-weight: 200;" fill="rgb(50, 49, 63)" stroke="none" stroke-width="1px">8e-3</text><text x="0" y="194.0440148832133" dx="0em" dy="0.3em" style="text-anchor: end; visibility: inherit; font-family: &quot;Helvetica Neue&quot;, sans-serif; font-size: 12px; font-weight: 200;" fill="rgb(50, 49, 63)" stroke="none" stroke-width="1px">9e-3</text><text x="0" y="178.04054872718055" dx="0em" dy="0.3em" style="text-anchor: end; visibility: hidden; font-family: &quot;Helvetica Neue&quot;, sans-serif; font-size: 12px; font-weight: 200;" fill="rgb(50, 49, 63)" stroke="none" stroke-width="1px">0.01</text><text x="0" y="72.75672986978253" dx="0em" dy="0.3em" style="text-anchor: end; visibility: inherit; font-family: &quot;Helvetica Neue&quot;, sans-serif; font-size: 12px; font-weight: 200;" fill="rgb(50, 49, 63)" stroke="none" stroke-width="1px">0.02</text><text x="0" y="11.16964390548577" dx="0em" dy="0.3em" style="text-anchor: end; visibility: hidden; font-family: &quot;Helvetica Neue&quot;, sans-serif; font-size: 12px; font-weight: 200;" fill="rgb(50, 49, 63)" stroke="none" stroke-width="1px">0.03</text></g><line x1="58" y1="0" x2="58" y2="378" fill="rgb(0, 0, 0)" stroke="rgb(204, 204, 204)" stroke-width="1px"></line></g></g><g transform="translate(58, 0)" clip-path="url(#clip_0)"><clipPath id="clip_0"><rect width="1440" height="378"></rect></clipPath><g><g><g><line x1="0" y1="0" x2="0" y2="378" fill="rgb(0, 0, 0)" stroke="rgb(60, 60, 60)" stroke-width="1px" opacity="0.25"></line><line x1="120" y1="0" x2="120" y2="378" fill="rgb(0, 0, 0)" stroke="rgb(60, 60, 60)" stroke-width="1px" opacity="0.25"></line><line x1="240" y1="0" x2="240" y2="378" fill="rgb(0, 0, 0)" stroke="rgb(60, 60, 60)" stroke-width="1px" opacity="0.25"></line><line x1="360" y1="0" x2="360" y2="378" fill="rgb(0, 0, 0)" stroke="rgb(60, 60, 60)" stroke-width="1px" opacity="0.25"></line><line x1="480" y1="0" x2="480" y2="378" fill="rgb(0, 0, 0)" stroke="rgb(60, 60, 60)" stroke-width="1px" opacity="0.25"></line><line x1="600" y1="0" x2="600" y2="378" fill="rgb(0, 0, 0)" stroke="rgb(60, 60, 60)" stroke-width="1px" opacity="0.25"></line><line x1="720" y1="0" x2="720" y2="378" fill="rgb(0, 0, 0)" stroke="rgb(60, 60, 60)" stroke-width="1px" opacity="0.25"></line><line x1="840" y1="0" x2="840" y2="378" fill="rgb(0, 0, 0)" stroke="rgb(60, 60, 60)" stroke-width="1px" opacity="0.25"></line><line x1="960" y1="0" x2="960" y2="378" fill="rgb(0, 0, 0)" stroke="rgb(60, 60, 60)" stroke-width="1px" opacity="0.25"></line><line x1="1080" y1="0" x2="1080" y2="378" fill="rgb(0, 0, 0)" stroke="rgb(60, 60, 60)" stroke-width="1px" opacity="0.25"></line><line x1="1200" y1="0" x2="1200" y2="378" fill="rgb(0, 0, 0)" stroke="rgb(60, 60, 60)" stroke-width="1px" opacity="0.25"></line><line x1="1320" y1="0" x2="1320" y2="378" fill="rgb(0, 0, 0)" stroke="rgb(60, 60, 60)" stroke-width="1px" opacity="0.25"></line><line x1="1440" y1="0" x2="1440" y2="378" fill="rgb(0, 0, 0)" stroke="rgb(60, 60, 60)" stroke-width="1px" opacity="0.25"></line></g><g><line x1="0" y1="360.91491970490813" x2="1440" y2="360.91491970490813" fill="rgb(0, 0, 0)" stroke="rgb(60, 60, 60)" stroke-width="1px" opacity="0.25"></line><line x1="0" y1="317.21818681180685" x2="1440" y2="317.21818681180685" fill="rgb(0, 0, 0)" stroke="rgb(60, 60, 60)" stroke-width="1px" opacity="0.25"></line><line x1="0" y1="283.32436758457857" x2="1440" y2="283.32436758457857" fill="rgb(0, 0, 0)" stroke="rgb(60, 60, 60)" stroke-width="1px" opacity="0.25"></line><line x1="0" y1="255.63110084751008" x2="1440" y2="255.63110084751008" fill="rgb(0, 0, 0)" stroke="rgb(60, 60, 60)" stroke-width="1px" opacity="0.25"></line><line x1="0" y1="232.21677744426535" x2="1440" y2="232.21677744426535" fill="rgb(0, 0, 0)" stroke="rgb(60, 60, 60)" stroke-width="1px" opacity="0.25"></line><line x1="0" y1="211.93436795440883" x2="1440" y2="211.93436795440883" fill="rgb(0, 0, 0)" stroke="rgb(60, 60, 60)" stroke-width="1px" opacity="0.25"></line><line x1="0" y1="194.0440148832133" x2="1440" y2="194.0440148832133" fill="rgb(0, 0, 0)" stroke="rgb(60, 60, 60)" stroke-width="1px" opacity="0.25"></line><line x1="0" y1="178.04054872718055" x2="1440" y2="178.04054872718055" fill="rgb(0, 0, 0)" stroke="rgb(60, 60, 60)" stroke-width="1px" opacity="0.25"></line><line x1="0" y1="72.75672986978253" x2="1440" y2="72.75672986978253" fill="rgb(0, 0, 0)" stroke="rgb(60, 60, 60)" stroke-width="1px" opacity="0.25"></line><line x1="0" y1="11.16964390548577" x2="1440" y2="11.16964390548577" fill="rgb(0, 0, 0)" stroke="rgb(60, 60, 60)" stroke-width="1px" opacity="0.25"></line></g></g></g><g><g><line x1="120" y1="0" x2="120" y2="378" fill="rgb(0, 0, 0)" stroke="rgb(153, 153, 153)" stroke-width="1.5px"></line></g></g><g><g><g><g><g><path stroke="rgb(255, 112, 67)" stroke-width="2px" d="M120,-8.066522809872993L120,30.693612148057525L120,-35.76867983028086L120,46.75914051518453L120,126.65843461488987L120,78.68498617198571L120,-14.830230241256743L120,-79.70139651763367L120,69.74348784758467L120,102.23477716579009L120,54.00000000000006L120,145.91005309435795L120,173.27018485022455L120,264.0763237336312L120,112.02658412688675L120,82.24238753526822L120,222.08081009042604L125.99999999999999,225.20856613130863L132,285.996292122153L120,127.43211959805001L120,-764.7871088636662L120,-798.8757451248873L120,217.78891454971767L120,190.68699300461978L125.99999999999999,183.16812506323907L132,268.63247544058896L138,270.0057997740906L144,259.76284200413266L150,298.5290557626383L156,278.14722183281594L162,298.97254493321645L168,280.9989216439023L174,313.68574366766643L180,233.97712841349372L186.00000000000003,239.81312514986817L192,253.82277892481932L198.00000000000003,243.0935087727122L204,302.07000211891324L210,290.6830925788167L216,261.2079513698799L222,306.47875390012683L228,261.5514438525973L234,271.68482927923174L240,318.75029835563095L246,320.663623364657L251.99999999999997,284.0718331670354L258,205.58410824178202L264,328.6950049891479L270,317.1835079627485L276,319.0016262216572L282,274.93975207900036L288,307.44012307948503L294,277.1143725925041L300,320.3866368029533L306,309.98539370795345L312,317.0822081806765L318,307.7365004861935L324,321.33290646626585L330,312.5937674678327L336,287.8722430110805L342,284.83280684864224L348,312.9445951702502L354,304.1118301774184L360,306.1081276743106L366,313.9603884660846L372.00000000000006,311.38383434585467L378,309.06520150428025L384,302.5567811596827L390,294.9340104354726L396.00000000000006,313.82963551936876L402,319.21853595575544L408,288.8507880804233L413.99999999999994,300.3320036018778L420,322.34753726164854L426,317.14580425074786L432,305.1434485673336L437.99999999999994,320.16388900999056L444,324.9430736883405L450,317.71614145247895L456,329.3557726021237L462.00000000000006,320.2770443373945L468,322.26683605536584L474,312.1452099507102L480,326.51982133804665L486.00000000000006,316.08013951066124L492,320.28776185081995L498,313.82951447194466L503.99999999999994,313.491718582088L510,321.88661751696236L516,317.30511448353155L522,305.0877199140187L528,315.57807481838796L534,316.71752687550406L540,319.82097047378767L546,325.98239874728307L552,306.91591852378235L558,321.2465504487377L564,321.3731088650719L570,324.94812507423075L576,312.34791583644227L582,316.72263804304885L588,309.77520655330227L594,307.32148865682285L600,323.4143685985152L606,309.7330020142042L612,311.4208833028141L618,315.4889057164488L624,314.1852046592817L630,317.4870693054521L636,317.16825212214854L642,326.1756485237008L648,311.1273264582429L654,310.24084010198817L660,306.54223097309824L666,305.1579188275661L672,308.8557809167841L678,321.8738447708776L684,312.94715680429886L690,308.0316430251347L696,301.76970807154873L702,315.5968631408474L708,310.64031007748093L714,313.1519693946184L720,311.10357969616257L726,314.7371363890063L732,318.6299034830511L737.9999999999999,315.2958126370588L744.0000000000001,312.705951061262L750,306.71359658376673L756,312.93868122711217L762,317.05765333472357L768,315.36359088671264L774,311.0506469521493L780,315.0814999678643L785.9999999999999,317.3082815152694L792.0000000000001,315.2969475558651L798,317.6826684922875L804,318.94892715000117L810,315.77490771706704L816,324L822,327.53398167075295L827.9999999999999,322.2335331371617L834.0000000000001,317.7928182480523L840,317.18663710204476L846,319.2336765914953L852,315.6403791018523L858,325.02711785390477L864,314.3963462427725L870,322.7903230239447L875.9999999999999,330.799708668415L882.0000000000001,315.47259548079046L888,320.52032317222125L894,320.87892708804367L900,313.2085673445442L906,318.5855940597189L912,316.5197158856541L917.9999999999999,311.4249852817911L924.0000000000001,318.45696832904946L930,328.54594717670034L936,317.0496694486505L942,317.3529277653956L948,318.01890371809935L954,311.0155214769161L960,309.75003729746214L965.9999999999999,314.61899309768694L972.0000000000001,311.3780829525147L978,309.0031742097849L984,303.4503447123448L990,307.68147310886593L996,310.3099306429025L1002,307.59618934670425L1007.9999999999999,306.31895926545064L1014.0000000000001,308.0744429680383L1020,301.92261085588643L1026,312.4317126214586L1032,308.3319298187536L1038,306.2969562130972L1044,308.0403984694069L1050,307.4313192712482L1056,306.30146518031995L1062,307.7066174658754L1068,312.64689763965026L1074,306.7799452565688L1080,313.2945291134831L1086,309.2702963433845L1092,309.9030870078828L1098,309.21412346794875L1104,308.7969673432853L1110,314.24342010827684L1116,307.64628796204204L1122,308.0555802077834L1128,307.92260845677447L1134,305.18789265657574L1140,307.97940382014866L1146,301.87316589152147L1152,309.89260592380253L1158,307.7171647200008L1164,309.4603777579513L1170,306.03527060567717L1176,300.57370479021216L1182,307.7025980751492L1188,314.4425406023565L1194,310.03950815373685L1200,314.8205737043807L1206,312.6014347694171L1212,315.269100843096L1218,319.11674764962805L1224,318.0914829715181L1230,307.5904966132559L1236,318.0462991116084L1242,312.4844261878108L1248,313.42954764637517L1254,314.73652752597303L1260,312.39806502163816L1266,307.977224110016L1272,312.33748729669685L1278,313.3237740946936L1284,314.59551102579854L1290,309.6724513257586L1296,310.38532417040074L1302,312.5229618500958L1308,312.07141655912284L1314,313.3693502744585" style="fill: none;" fill="none"></path></g></g></g></g></g></g><g transform="translate(58, 378)" clip-path="url(#clip_1)"><clipPath id="clip_1"><rect width="1440" height="22"></rect></clipPath><g><g><line x1="0" y1="0" x2="0" y2="5" style="visibility: inherit;" fill="rgb(0, 0, 0)" stroke="rgb(204, 204, 204)" stroke-width="1px"></line><line x1="120" y1="0" x2="120" y2="5" style="visibility: inherit;" fill="rgb(0, 0, 0)" stroke="rgb(204, 204, 204)" stroke-width="1px"></line><line x1="240" y1="0" x2="240" y2="5" style="visibility: inherit;" fill="rgb(0, 0, 0)" stroke="rgb(204, 204, 204)" stroke-width="1px"></line><line x1="360" y1="0" x2="360" y2="5" style="visibility: inherit;" fill="rgb(0, 0, 0)" stroke="rgb(204, 204, 204)" stroke-width="1px"></line><line x1="480" y1="0" x2="480" y2="5" style="visibility: inherit;" fill="rgb(0, 0, 0)" stroke="rgb(204, 204, 204)" stroke-width="1px"></line><line x1="600" y1="0" x2="600" y2="5" style="visibility: inherit;" fill="rgb(0, 0, 0)" stroke="rgb(204, 204, 204)" stroke-width="1px"></line><line x1="720" y1="0" x2="720" y2="5" style="visibility: inherit;" fill="rgb(0, 0, 0)" stroke="rgb(204, 204, 204)" stroke-width="1px"></line><line x1="840" y1="0" x2="840" y2="5" style="visibility: inherit;" fill="rgb(0, 0, 0)" stroke="rgb(204, 204, 204)" stroke-width="1px"></line><line x1="960" y1="0" x2="960" y2="5" style="visibility: inherit;" fill="rgb(0, 0, 0)" stroke="rgb(204, 204, 204)" stroke-width="1px"></line><line x1="1080" y1="0" x2="1080" y2="5" style="visibility: inherit;" fill="rgb(0, 0, 0)" stroke="rgb(204, 204, 204)" stroke-width="1px"></line><line x1="1200" y1="0" x2="1200" y2="5" style="visibility: inherit;" fill="rgb(0, 0, 0)" stroke="rgb(204, 204, 204)" stroke-width="1px"></line><line x1="1320" y1="0" x2="1320" y2="5" style="visibility: inherit;" fill="rgb(0, 0, 0)" stroke="rgb(204, 204, 204)" stroke-width="1px"></line><line x1="1440" y1="0" x2="1440" y2="5" style="visibility: inherit;" fill="rgb(0, 0, 0)" stroke="rgb(204, 204, 204)" stroke-width="1px"></line></g><g transform="translate(0, 8)"><text x="0" y="0" dx="0em" dy="0.95em" style="text-anchor: middle; visibility: hidden; font-family: &quot;Helvetica Neue&quot;, sans-serif; font-size: 12px; font-weight: 200;" fill="rgb(50, 49, 63)" stroke="none" stroke-width="1px">-20</text><text x="120" y="0" dx="0em" dy="0.95em" style="text-anchor: middle; visibility: inherit; font-family: &quot;Helvetica Neue&quot;, sans-serif; font-size: 12px; font-weight: 200;" fill="rgb(50, 49, 63)" stroke="none" stroke-width="1px">0</text><text x="240" y="0" dx="0em" dy="0.95em" style="text-anchor: middle; visibility: inherit; font-family: &quot;Helvetica Neue&quot;, sans-serif; font-size: 12px; font-weight: 200;" fill="rgb(50, 49, 63)" stroke="none" stroke-width="1px">20</text><text x="360" y="0" dx="0em" dy="0.95em" style="text-anchor: middle; visibility: inherit; font-family: &quot;Helvetica Neue&quot;, sans-serif; font-size: 12px; font-weight: 200;" fill="rgb(50, 49, 63)" stroke="none" stroke-width="1px">40</text><text x="480" y="0" dx="0em" dy="0.95em" style="text-anchor: middle; visibility: inherit; font-family: &quot;Helvetica Neue&quot;, sans-serif; font-size: 12px; font-weight: 200;" fill="rgb(50, 49, 63)" stroke="none" stroke-width="1px">60</text><text x="600" y="0" dx="0em" dy="0.95em" style="text-anchor: middle; visibility: inherit; font-family: &quot;Helvetica Neue&quot;, sans-serif; font-size: 12px; font-weight: 200;" fill="rgb(50, 49, 63)" stroke="none" stroke-width="1px">80</text><text x="720" y="0" dx="0em" dy="0.95em" style="text-anchor: middle; visibility: inherit; font-family: &quot;Helvetica Neue&quot;, sans-serif; font-size: 12px; font-weight: 200;" fill="rgb(50, 49, 63)" stroke="none" stroke-width="1px">100</text><text x="840" y="0" dx="0em" dy="0.95em" style="text-anchor: middle; visibility: inherit; font-family: &quot;Helvetica Neue&quot;, sans-serif; font-size: 12px; font-weight: 200;" fill="rgb(50, 49, 63)" stroke="none" stroke-width="1px">120</text><text x="960" y="0" dx="0em" dy="0.95em" style="text-anchor: middle; visibility: inherit; font-family: &quot;Helvetica Neue&quot;, sans-serif; font-size: 12px; font-weight: 200;" fill="rgb(50, 49, 63)" stroke="none" stroke-width="1px">140</text><text x="1080" y="0" dx="0em" dy="0.95em" style="text-anchor: middle; visibility: inherit; font-family: &quot;Helvetica Neue&quot;, sans-serif; font-size: 12px; font-weight: 200;" fill="rgb(50, 49, 63)" stroke="none" stroke-width="1px">160</text><text x="1200" y="0" dx="0em" dy="0.95em" style="text-anchor: middle; visibility: inherit; font-family: &quot;Helvetica Neue&quot;, sans-serif; font-size: 12px; font-weight: 200;" fill="rgb(50, 49, 63)" stroke="none" stroke-width="1px">180</text><text x="1320" y="0" dx="0em" dy="0.95em" style="text-anchor: middle; visibility: inherit; font-family: &quot;Helvetica Neue&quot;, sans-serif; font-size: 12px; font-weight: 200;" fill="rgb(50, 49, 63)" stroke="none" stroke-width="1px">200</text><text x="1440" y="0" dx="0em" dy="0.95em" style="text-anchor: middle; visibility: hidden; font-family: &quot;Helvetica Neue&quot;, sans-serif; font-size: 12px; font-weight: 200;" fill="rgb(50, 49, 63)" stroke="none" stroke-width="1px">220</text></g><line x1="0" y1="0" x2="1440" y2="0" fill="rgb(0, 0, 0)" stroke="rgb(204, 204, 204)" stroke-width="1px"></line></g></g></g></g></svg>